<?xml version="1.0" standalone="no"?>
<!DOCTYPE svg PUBLIC "-//W3C//DTD SVG 1.1//EN" "http://www.w3.org/Graphics/SVG/1.1/DTD/svg11.dtd" >
<svg xmlns="http://www.w3.org/2000/svg" xmlns:xlink="http://www.w3.org/1999/xlink" version="1.1">
<metadata>
Created by FontForge 20170731 at Wed May  3 20:49:43 2017
 By Aleksey,,,
Copyright (c) 2015 Dan Reynolds. Copyright (c) 2015 Mathieu Reguer
</metadata>
<defs>
<font id="Biryani-Regular" horiz-adv-x="287" >
  <font-face 
    font-family="Biryani"
    font-weight="400"
    font-stretch="normal"
    units-per-em="1000"
    panose-1="0 0 5 0 0 0 0 0 0 0"
    ascent="800"
    descent="-200"
    x-height="553"
    cap-height="758"
    bbox="-1271 -592 2230 1109"
    underline-thickness="50"
    underline-position="-150"
    unicode-range="U+000D-FB02"
  />
<missing-glyph horiz-adv-x="600" 
 />
    <glyph glyph-name="fi" unicode="fi" horiz-adv-x="608" 
d="M37 0zM211.5 757.5q-12.5 -14.5 -12.5 -54.5v-150h110v-88h-110v-465h-94v465h-68v88h68v175q0 71 33 101t108 30q24 0 63 -7v-86q-23 6 -50 6q-35 0 -47.5 -14.5zM424 808h94v-151h-94v151zM424 553h94v-553h-94v553z" />
    <glyph glyph-name="fl" unicode="fl" horiz-adv-x="653" 
d="M37 0zM211.5 757.5q-12.5 -14.5 -12.5 -54.5v-150h110v-88h-110v-465h-94v465h-68v88h68v175q0 71 33 101t108 30q24 0 63 -7v-86q-23 6 -50 6q-35 0 -47.5 -14.5zM457 17q-33 30 -33 101v728h94v-703q0 -40 12.5 -54.5t47.5 -14.5q28 0 50 6v-86q-40 -7 -63 -7
q-75 0 -108 30z" />
    <glyph glyph-name=".notdef" horiz-adv-x="600" 
 />
    <glyph glyph-name=".null" horiz-adv-x="0" 
 />
    <glyph glyph-name="nonmarkingreturn" unicode="&#xd;" horiz-adv-x="600" 
 />
    <glyph glyph-name="space" unicode=" " horiz-adv-x="220" 
 />
    <glyph glyph-name="exclam" unicode="!" horiz-adv-x="284" 
d="M86 758h112l-15 -528h-82zM90 158h104v-158h-104v158z" />
    <glyph glyph-name="quotedbl" unicode="&#x22;" horiz-adv-x="464" 
d="M97 456zM97 758h90v-302h-90v302zM277 758h90v-302h-90v302z" />
    <glyph glyph-name="numbersign" unicode="#" horiz-adv-x="703" 
d="M531 420l-22 -166h103v-88h-114l-21 -166h-90l22 166h-160l-21 -166h-90l22 166h-100v88h111l22 166h-103v88h114l21 166h90l-22 -166h160l21 166h90l-22 -166h100v-88h-111zM442 420h-160l-22 -166h160z" />
    <glyph glyph-name="dollar" unicode="$" horiz-adv-x="583" 
d="M459 45q-52 -51 -144 -60v-81h-86v81q-93 7 -183 50v91q87 -46 183 -56v227l-6 2q-80 23 -125 65.5t-45 126.5q0 88 48 137.5t136 57.5v72h86v-73q41 -4 76 -15t74 -31v-89q-71 39 -150 49v-228l19 -5q83 -23 126 -65.5t43 -123.5t-52 -132zM171 432q22 -22 66 -37v206
q-45 -6 -67 -34t-22 -71q1 -42 23 -64zM389.5 236.5q-26.5 21.5 -74.5 36.5v-202q101 13 101 104q0 40 -26.5 61.5z" />
    <glyph glyph-name="percent" unicode="%" horiz-adv-x="1020" 
d="M683 773h84l-417 -806h-84zM134 334.5q-46 26.5 -71.5 72.5t-25.5 101t25.5 101t71.5 72.5t104 26.5q57 0 102.5 -26.5t71 -72.5t25.5 -101t-25.5 -101t-71 -72.5t-102.5 -26.5q-58 0 -104 26.5zM324 417q33 37 33 91t-32.5 90.5t-86.5 36.5t-87 -36.5t-33 -90.5
t33.5 -91t86.5 -37t86 37zM680.5 10q-45.5 27 -71.5 73t-26 101t25.5 100.5t71.5 72t104 26.5q57 0 102.5 -26.5t71 -72t25.5 -100.5t-25.5 -101t-71 -73t-102.5 -27q-58 0 -103.5 27zM870 93q33 37 33 91t-33 90.5t-86 36.5q-54 0 -87 -36.5t-33 -90.5t33.5 -91t86.5 -37
t86 37z" />
    <glyph glyph-name="ampersand" unicode="&#x26;" horiz-adv-x="814" 
d="M784 87v-87h-41q-97 0 -207 77q-50 -45 -108.5 -69.5t-121.5 -24.5q-81 0 -138 28.5t-85.5 78t-28.5 113.5q0 76 40.5 125.5t114.5 96.5q-37 48 -56 89.5t-19 90.5q0 79 51.5 126.5t133.5 47.5q81 0 130.5 -45t49.5 -121q0 -54 -37 -100.5t-96 -84.5l-30 -20
q37 -46 90.5 -103.5t105.5 -104.5q39 58 60 134.5t22 163.5h98q0 -97 -30 -188.5t-84 -163.5q84 -59 146 -59h40zM253.5 672.5q-21.5 -24.5 -21.5 -68.5q0 -34 12.5 -64.5t39.5 -66.5l38 24q79 52 79 118q0 37 -20 59.5t-62 22.5q-44 0 -65.5 -24.5zM192 107.5
q40 -39.5 114 -39.5q91 0 165 63q-93 87 -211 228q-56 -38 -82 -71.5t-26 -82.5q0 -58 40 -97.5z" />
    <glyph glyph-name="quotesingle" unicode="'" horiz-adv-x="284" 
d="M97 758h90v-302h-90v302z" />
    <glyph glyph-name="parenleft" unicode="(" horiz-adv-x="346" 
d="M107.5 73.5q-51.5 115.5 -51.5 285.5t51.5 285.5t125.5 202.5l66 -47q-59 -81 -100.5 -185t-41.5 -256t41.5 -256t100.5 -185l-66 -47q-74 87 -125.5 202.5z" />
    <glyph glyph-name="parenright" unicode=")" horiz-adv-x="346" 
d="M47 -82q59 81 100.5 185t41.5 256t-41.5 256t-100.5 185l66 47q74 -87 125.5 -202.5t51.5 -285.5t-51.5 -285.5t-125.5 -202.5z" />
    <glyph glyph-name="asterisk" unicode="*" horiz-adv-x="618" 
d="M366 623l179 -88l-41 -71l-167 109l13 -198h-82l13 198l-167 -109l-41 71l179 88l-179 89l41 71l167 -110l-13 199h82l-13 -199l167 110l41 -71z" />
    <glyph glyph-name="plus" unicode="+" horiz-adv-x="550" 
d="M483 293h-163v-164l-90 -1v165h-163v88h163v163l90 1v-164h163v-88z" />
    <glyph glyph-name="comma" unicode="," horiz-adv-x="284" 
d="M117 161h100l-73 -312h-87z" />
    <glyph glyph-name="hyphen" unicode="-" horiz-adv-x="454" 
d="M80 340h294v-88h-294v88z" />
    <glyph glyph-name="period" unicode="." horiz-adv-x="284" 
d="M90 161h104v-161h-104v161z" />
    <glyph glyph-name="slash" unicode="/" horiz-adv-x="410" 
d="M313 931h96l-311 -1108h-96z" />
    <glyph glyph-name="zero" unicode="0" horiz-adv-x="550" 
d="M108 69.5q-54 86.5 -54 266.5q0 177 54.5 264.5t166.5 87.5q109 0 165 -88.5t56 -263.5q0 -353 -221 -353q-113 0 -167 86.5zM366.5 133.5q31.5 65.5 31.5 208.5q0 132 -32.5 196.5t-90.5 64.5q-62 0 -92.5 -64.5t-30.5 -202.5q0 -141 30 -204.5t93 -63.5q60 0 91.5 65.5
z" />
    <glyph glyph-name="one" unicode="1" horiz-adv-x="550" 
d="M456 87v-87h-355v87h129v500h-109v87h205v-587h130z" />
    <glyph glyph-name="two" unicode="2" horiz-adv-x="550" 
d="M55 87q136 123 197 183t93.5 110.5t32.5 100.5q0 59 -34 90.5t-93 31.5q-86 0 -171 -41v89q86 37 184 37q94 0 153 -52t59 -148q0 -62 -31 -119t-80 -108t-138 -132l-45 -42h321v-87h-448v87z" />
    <glyph glyph-name="three" unicode="3" horiz-adv-x="550" 
d="M454.5 294q31.5 -44 31.5 -109q0 -93 -61.5 -147.5t-167.5 -54.5q-101 0 -183 35v89q37 -18 81.5 -28.5t88.5 -10.5q70 0 107 33t37 94q0 58 -39.5 88t-114.5 30h-80v85h80q71 0 107.5 26.5t36.5 78.5q0 47 -34 73.5t-96 26.5q-41 0 -84.5 -8.5t-79.5 -26.5v89
q75 31 173 31q101 0 160 -47t59 -127q0 -59 -28.5 -97t-85.5 -60q61 -19 92.5 -63z" />
    <glyph glyph-name="four" unicode="4" horiz-adv-x="550" 
d="M536 150h-106v-167h-96v167h-311v84l291 449h116v-449h106v-84zM334 234v320l-209 -320h209z" />
    <glyph glyph-name="five" unicode="5" horiz-adv-x="550" 
d="M428.5 372.5q62.5 -59.5 62.5 -159.5q0 -110 -66 -170t-185 -60q-93 0 -168 29v88q37 -15 79.5 -23.5t82.5 -8.5q159 0 159 145q0 65 -40 99.5t-113 34.5q-41 0 -82.5 -8.5t-74.5 -21.5l7 357h362v-87h-268l-4 -160q40 5 73 5q113 0 175.5 -59.5z" />
    <glyph glyph-name="six" unicode="6" horiz-adv-x="550" 
d="M404 394.5q48 -26.5 74 -75t26 -112.5q0 -67 -28.5 -118t-78.5 -78.5t-113 -27.5q-113 0 -173.5 68.5t-60.5 193.5q0 135 79 246t224 195l59 -63q-90 -57 -147.5 -113t-86.5 -121q53 32 115 32q63 0 111 -26.5zM371.5 102q34.5 37 34.5 102q0 64 -35.5 101.5t-91.5 37.5
q-71 0 -127 -46q-4 -36 -4 -58q1 -88 36.5 -131t98.5 -43q54 0 88.5 37z" />
    <glyph glyph-name="seven" unicode="7" horiz-adv-x="550" 
d="M505 674v-87l-254 -604h-107l264 604h-338v87h435z" />
    <glyph glyph-name="eight" unicode="8" horiz-adv-x="550" 
d="M471 282.5q32 -45.5 32 -105.5q0 -58 -29 -102t-81 -68t-118 -24q-68 0 -119.5 24t-80 68t-28.5 102q0 60 31 105.5t86 68.5q-45 23 -70 64t-25 92q0 52 26 93t73 64.5t107 23.5q59 0 106 -23.5t73.5 -65t26.5 -92.5t-26 -92t-71 -64q55 -23 87 -68.5zM198 576
q-31 -30 -31 -77t31 -77.5t77 -30.5t77 30.5t31 77.5t-31 77t-77 30t-77 -30zM368 97.5q37 32.5 37 87.5t-37 88t-93 33t-93 -33t-37 -88t37 -87.5t93 -32.5t93 32.5z" />
    <glyph glyph-name="nine" unicode="9" horiz-adv-x="550" 
d="M438.5 618.5q60.5 -68.5 60.5 -192.5q0 -135 -79 -246.5t-223 -195.5l-60 63q91 58 148 114t86 121q-52 -33 -115 -33t-111 27t-74 75.5t-26 111.5q0 67 28.5 118t78.5 78.5t113 27.5q113 0 173.5 -68.5zM397 373q4 25 4 59q-1 88 -36.5 130.5t-97.5 42.5
q-55 0 -89.5 -37t-34.5 -101t35.5 -101.5t91.5 -37.5q71 0 127 45z" />
    <glyph glyph-name="colon" unicode=":" horiz-adv-x="284" 
d="M90 0zM90 161h104v-161h-104v161zM90 556h104v-161h-104v161z" />
    <glyph glyph-name="semicolon" unicode=";" horiz-adv-x="284" 
d="M57 0zM117 161h100l-73 -312h-87zM90 556h104v-161h-104v161z" />
    <glyph glyph-name="less" unicode="&#x3c;" horiz-adv-x="550" 
d="M172 336l303 -178l-44 -76l-364 216v75l365 217l43 -76z" />
    <glyph glyph-name="equal" unicode="=" horiz-adv-x="550" 
d="M67 481h416v-88h-416v88zM67 281h416v-88h-416v88z" />
    <glyph glyph-name="greater" unicode="&#x3e;" horiz-adv-x="550" 
d="M75 82zM378 336l-303 -178l44 -76l364 216v75l-365 217l-43 -76z" />
    <glyph glyph-name="question" unicode="?" horiz-adv-x="533" 
d="M189 277q0 40 10.5 68.5t28.5 48.5t51 48l35 30q30 27 42 48.5t12 52.5q0 55 -33.5 84.5t-90.5 29.5q-92 0 -174 -42v90q85 37 181 37q95 0 155 -50.5t60 -143.5q0 -57 -22 -93.5t-63 -71.5l-28 -24q-40 -35 -54 -57t-14 -61v-41h-96v47zM185 158h104v-158h-104v158z" />
    <glyph glyph-name="at" unicode="@" horiz-adv-x="986" 
d="M640 158q-7 -26 -7 -37q0 -20 13.5 -29t42.5 -9q50 0 85.5 35.5t53.5 93.5t18 125q0 152 -85.5 234t-238.5 82q-102 0 -189.5 -54t-140 -151t-52.5 -220q0 -170 87.5 -270.5t258.5 -100.5q67 0 127.5 18.5t127.5 54.5l27 -67q-74 -37 -139 -56t-143 -19
q-125 0 -221.5 51.5t-150.5 151t-54 237.5q0 144 63 256.5t168.5 175t230.5 62.5q123 0 214.5 -47t140.5 -134t49 -204q0 -94 -31.5 -167.5t-87.5 -114.5t-127 -41q-54 0 -85.5 20t-39.5 58q-59 -65 -132 -65q-69 0 -110 42.5t-41 122.5q0 88 33.5 160t90.5 113t125 41
q82 0 120 -63l14 47h82zM567 190l54 185q-20 30 -43.5 43.5t-52.5 13.5q-49 0 -87 -34t-60 -88.5t-23 -113.5q0 -52 19 -73.5t59 -21.5q73 0 134 89z" />
    <glyph glyph-name="A" unicode="A" horiz-adv-x="732" 
d="M524 221h-316l-81 -221h-100l285 767h108l286 -767h-100zM491 308l-125 338l-125 -338h250z" />
    <glyph glyph-name="B" unicode="B" horiz-adv-x="709" 
d="M640 205q0 -104 -62.5 -154.5t-208.5 -50.5h-262v758h262q133 0 187 -50t54 -153q0 -61 -25.5 -103.5t-80.5 -66.5q136 -44 136 -180zM204 421h165q141 0 142 127q0 70 -31 99t-111 29h-165v-255zM497.5 308.5q-43.5 30.5 -128.5 30.5h-165v-257h165q94 0 133 31t39 98
t-43.5 97.5z" />
    <glyph glyph-name="C" unicode="C" horiz-adv-x="706" 
d="M222 32q-83 49 -124.5 138t-41.5 208q0 112 41 201t124.5 141t205.5 52q53 0 94.5 -8.5t89.5 -28.5v-89q-85 41 -182 41q-84 0 -146 -39.5t-95 -110t-32 -159.5q0 -92 32 -162t93 -109t146 -39q53 0 104.5 15t108.5 43l31 -82q-58 -30 -122 -45.5t-122 -15.5
q-122 0 -205 49z" />
    <glyph glyph-name="D" unicode="D" horiz-adv-x="796" 
d="M641.5 661.5q95.5 -96.5 95.5 -283.5q0 -188 -95 -283t-283 -95h-252v758h252q187 0 282.5 -96.5zM567 602q-70 71 -208 71h-155v-588h155q139 0 208.5 71t69.5 225q0 150 -70 221z" />
    <glyph glyph-name="E" unicode="E" horiz-adv-x="631" 
d="M571 84v-84h-464v758h459v-84h-362v-251h312v-84h-312v-255h367z" />
    <glyph glyph-name="F" unicode="F" horiz-adv-x="613" 
d="M204 671v-260h312v-87h-312v-324h-97v758h459v-87h-362z" />
    <glyph glyph-name="G" unicode="G" horiz-adv-x="772" 
d="M688 463v-410q-59 -34 -129.5 -52t-131.5 -18q-120 0 -203.5 49.5t-125.5 138.5t-42 207q0 112 40.5 201t124 141t206.5 52q66 0 111.5 -12.5t102.5 -37.5v-92q-51 28 -100.5 42.5t-113.5 14.5q-85 0 -146 -39t-93 -108.5t-32 -158.5q0 -93 31.5 -163.5t92.5 -110
t147 -39.5q43 0 82 10t83 28v270h-282v87h378z" />
    <glyph glyph-name="H" unicode="H" horiz-adv-x="790" 
d="M683 758v-758h-97v337h-382v-337h-97v758h97v-333h382v333h97z" />
    <glyph glyph-name="I" unicode="I" horiz-adv-x="311" 
d="M107 758h97v-758h-97v758z" />
    <glyph glyph-name="J" unicode="J" horiz-adv-x="321" 
d="M8 -109v86q20 -4 48 -4q25 0 37.5 8.5t18 31t5.5 66.5v679h97v-685q0 -76 -13 -115.5t-44 -55.5t-92 -16q-33 0 -57 5z" />
    <glyph glyph-name="K" unicode="K" horiz-adv-x="687" 
d="M256 342l-52 -55v-287h-97v758h97v-339l322 339h123l-327 -346l332 -412h-125z" />
    <glyph glyph-name="L" unicode="L" horiz-adv-x="561" 
d="M521 87v-87h-414v758h97v-671h317z" />
    <glyph glyph-name="M" unicode="M" horiz-adv-x="921" 
d="M814 758v-758h-97v611l-232 -323h-51l-230 323v-611h-97v758h106l247 -346l247 346h107z" />
    <glyph glyph-name="N" unicode="N" horiz-adv-x="790" 
d="M683 758v-758h-106l-373 595v-595h-97v758h105l374 -595v595h97z" />
    <glyph glyph-name="O" unicode="O" horiz-adv-x="836" 
d="M219.5 34.5q-81.5 51.5 -122.5 141t-41 202.5q0 111 41 200t122.5 141.5t198.5 52.5q116 0 197 -52.5t122.5 -142t41.5 -199.5q0 -113 -41 -202.5t-122.5 -141t-197.5 -51.5q-117 0 -198.5 51.5zM559 109q59 41 89.5 112t30.5 160q0 86 -31 155.5t-90 110t-140 40.5
q-84 0 -143 -41t-89 -111t-30 -157q0 -89 30 -159t89 -110.5t143 -40.5q82 0 141 41z" />
    <glyph glyph-name="P" unicode="P" horiz-adv-x="660" 
d="M620 532q0 -110 -62 -167.5t-186 -57.5h-168v-307h-97v758h265q248 0 248 -226zM484 639.5q-37 33.5 -112 33.5h-168v-280h168q148 0 149 139q0 74 -37 107.5z" />
    <glyph glyph-name="Q" unicode="Q" horiz-adv-x="836" 
d="M748 198.5q-31 -81.5 -92 -134.5l113 -128h-118l-69 81q-71 -34 -164 -34q-117 0 -198.5 51.5t-122.5 141t-41 202.5q0 111 41 200t122.5 141.5t198.5 52.5q116 0 197 -52.5t122.5 -142t41.5 -199.5q0 -98 -31 -179.5zM186 219q30 -70 89 -110.5t143 -40.5q57 0 103 20
l-129 149h114l86 -100q42 42 64.5 105t22.5 139q0 86 -31 155.5t-90 110t-140 40.5q-84 0 -143 -41t-89 -111t-30 -157q0 -89 30 -159z" />
    <glyph glyph-name="R" unicode="R" horiz-adv-x="706" 
d="M351 321h-147v-321h-97v758h265q248 0 248 -220q0 -87 -41.5 -140.5t-124.5 -69.5l203 -328h-111zM204 406h168q148 0 149 132q0 70 -37 102.5t-112 32.5h-168v-267z" />
    <glyph glyph-name="S" unicode="S" horiz-adv-x="643" 
d="M63 37v92q115 -61 259 -61q83 0 121.5 35t38.5 92q0 54 -35.5 81t-104.5 47l-68 19q-58 17 -99 39t-68.5 63.5t-27.5 108.5q0 107 62.5 163t177.5 56q67 0 118 -12.5t106 -37.5v-90q-102 55 -224 55q-74 0 -108 -34.5t-34 -94.5q1 -55 33.5 -81t101.5 -46l69 -19
q61 -17 103.5 -39.5t69 -65t26.5 -110.5q-1 -99 -69.5 -156.5t-188.5 -57.5q-145 0 -259 54z" />
    <glyph glyph-name="T" unicode="T" horiz-adv-x="634" 
d="M594 671h-228v-671h-98v671h-228v87h554v-87z" />
    <glyph glyph-name="U" unicode="U" horiz-adv-x="784" 
d="M175 56.5q-72 73.5 -72 208.5v493h98v-493q0 -97 48 -147t143 -50t143 50t48 147v493h98v-493q0 -135 -72 -208.5t-217 -73.5t-217 73.5z" />
    <glyph glyph-name="V" unicode="V" horiz-adv-x="746" 
d="M712 758l-285 -767h-108l-286 767h102l238 -646l238 646h101z" />
    <glyph glyph-name="W" unicode="W" horiz-adv-x="1098" 
d="M1058 758l-218 -767h-108l-183 623l-182 -623h-108l-219 767h98l176 -636l180 636h110l181 -637l175 637h98z" />
    <glyph glyph-name="X" unicode="X" horiz-adv-x="741" 
d="M587 0l-215 320l-215 -320h-114l270 390l-252 368h113l199 -295l198 295h113l-252 -368l269 -390h-114z" />
    <glyph glyph-name="Y" unicode="Y" horiz-adv-x="713" 
d="M404 293v-293h-96v293l-278 465h100l226 -383l227 383h100z" />
    <glyph glyph-name="Z" unicode="Z" horiz-adv-x="718" 
d="M645 87v-87h-565v85l413 586h-400v87h519v-85l-413 -586h446z" />
    <glyph glyph-name="bracketleft" unicode="[" horiz-adv-x="331" 
d="M281 -42v-87h-181v976h176v-87h-80v-802h85z" />
    <glyph glyph-name="backslash" unicode="\" horiz-adv-x="410" 
d="M2 931h96l311 -1108h-96z" />
    <glyph glyph-name="bracketright" unicode="]" horiz-adv-x="331" 
d="M231 -129h-179v87h83v802h-82v87h178v-976z" />
    <glyph glyph-name="asciicircum" unicode="^" horiz-adv-x="550" 
d="M453 128l-178 303l-178 -303l-76 44l216 364h75l217 -365z" />
    <glyph glyph-name="underscore" unicode="_" horiz-adv-x="500" 
d="M0 -77h500v-87h-500v87z" />
    <glyph glyph-name="grave" unicode="`" horiz-adv-x="649" 
d="M180 809h112l104 -153h-95z" />
    <glyph glyph-name="a" unicode="a" horiz-adv-x="535" 
d="M394 523.5q46 -29.5 61 -79t15 -124.5v-320h-94v55q-38 -36 -76 -52t-82 -16q-52 0 -94 22.5t-66.5 65t-24.5 100.5q0 90 56 139.5t151 49.5q75 0 135 -33q-1 49 -10 78t-37 44.5t-83 15.5h-74v84h89q88 0 134 -29.5zM302.5 84q37.5 16 73.5 48v126q-56 28 -122 28
q-53 0 -89 -25.5t-36 -85.5q0 -56 30.5 -81.5t71.5 -25.5q34 0 71.5 16z" />
    <glyph glyph-name="b" unicode="b" horiz-adv-x="646" 
d="M522.5 494q66.5 -75 66.5 -218t-66.5 -218t-178.5 -75q-81 0 -160 67v-50h-94v846h94v-345q80 68 160 68q112 0 178.5 -75zM451 122.5q41 52.5 41 153.5t-41 153t-120 52q-75 0 -147 -62v-287q74 -62 147 -62q79 0 120 52.5z" />
    <glyph glyph-name="c" unicode="c" horiz-adv-x="546" 
d="M125.5 63q-69.5 79 -69.5 214t69.5 213t198.5 79q45 0 77.5 -6.5t69.5 -21.5v-91q-36 17 -68.5 24t-71.5 7q-93 -1 -135 -55.5t-42 -147.5q0 -95 42 -151t133 -57q71 0 155 43l30 -82q-91 -48 -190 -48q-129 1 -198.5 80z" />
    <glyph glyph-name="d" unicode="d" horiz-adv-x="646" 
d="M556 846v-846h-94v50q-79 -67 -160 -67q-112 0 -179 75t-67 218t67 218t179 75q80 0 160 -68v345h94zM462 132v287q-74 62 -148 62q-79 0 -119.5 -52t-40.5 -153t40.5 -153.5t119.5 -52.5q72 0 148 62z" />
    <glyph glyph-name="e" unicode="e" horiz-adv-x="585" 
d="M200 122q44 -55 140 -55q73 0 160 41l29 -78q-91 -47 -197 -47q-88 0 -150 37t-94 103t-32 154q0 93 33.5 158.5t90.5 99.5t128 34q109 0 171 -68t62 -195v-37h-387q2 -92 46 -147zM160 348h282q-5 70 -38 103.5t-96 33.5q-124 0 -148 -137z" />
    <glyph glyph-name="f" unicode="f" horiz-adv-x="334" 
d="M211.5 757.5q-12.5 -14.5 -12.5 -54.5v-150h110v-88h-110v-465h-94v465h-68v88h68v175q0 71 33 101t108 30q24 0 63 -7v-86q-23 6 -50 6q-35 0 -47.5 -14.5z" />
    <glyph glyph-name="g" unicode="g" horiz-adv-x="629" 
d="M554 553v-564q0 -113 -52.5 -176.5t-183.5 -63.5q-64 0 -110.5 8t-95.5 28v93q46 -21 92 -31.5t85 -10.5q72 0 109 18.5t49.5 53t12.5 91.5v71q-79 -67 -160 -67q-112 0 -178.5 73t-66.5 210q0 138 67 210.5t178 72.5q80 0 160 -68v52h94zM460 152v267q-72 62 -147 62
q-78 0 -119.5 -51.5t-41.5 -143.5q0 -95 41 -145.5t120 -50.5q73 0 147 62z" />
    <glyph glyph-name="h" unicode="h" horiz-adv-x="639" 
d="M504.5 511q49.5 -54 49.5 -178v-333h-94v333q0 78 -26.5 111t-93.5 33q-78 0 -156 -68v-409h-94v846h94v-352q81 71 169 71q102 0 151.5 -54z" />
    <glyph glyph-name="i" unicode="i" horiz-adv-x="274" 
d="M90 808h94v-151h-94v151zM90 553h94v-553h-94v553z" />
    <glyph glyph-name="j" unicode="j" horiz-adv-x="274" 
d="M90 808h94v-151h-94v151zM-20 -243v85q19 -5 50 -5q24 0 37 8t18 28t5 59v622h94v-647q0 -87 -31.5 -122.5t-109.5 -35.5q-26 0 -63 8z" />
    <glyph glyph-name="k" unicode="k" horiz-adv-x="584" 
d="M244 255l-60 -61v-194h-94v846h94v-533l226 233h118l-220 -226l252 -320h-114z" />
    <glyph glyph-name="l" unicode="l" horiz-adv-x="319" 
d="M123 17q-33 30 -33 101v728h94v-703q0 -40 12.5 -54.5t47.5 -14.5q28 0 50 6v-86q-40 -7 -63 -7q-75 0 -108 30z" />
    <glyph glyph-name="m" unicode="m" horiz-adv-x="978" 
d="M861.5 511q48.5 -54 48.5 -178v-333h-94v333q0 79 -25.5 111.5t-91.5 32.5q-78 0 -156 -75q4 -28 4 -69v-333h-94v333q0 79 -25.5 111.5t-91.5 32.5q-76 0 -152 -68v-409h-94v553h94v-59q81 71 165 71q67 0 110 -22.5t65 -71.5q91 94 188 94q101 0 149.5 -54z" />
    <glyph glyph-name="n" unicode="n" horiz-adv-x="639" 
d="M504.5 511q49.5 -54 49.5 -178v-333h-94v333q0 78 -26.5 111t-93.5 33q-78 0 -156 -68v-409h-94v553h94v-59q82 71 169 71q102 0 151.5 -54z" />
    <glyph glyph-name="o" unicode="o" horiz-adv-x="657" 
d="M179.5 21.5q-61.5 38.5 -92.5 105t-31 149.5t31 149.5t92.5 105t149.5 38.5t149.5 -38.5t92 -105t30.5 -149.5t-30.5 -149.5t-92 -105t-149.5 -38.5t-149.5 38.5zM457.5 126q45.5 58 45.5 150t-45.5 149.5t-128.5 57.5t-129 -57.5t-46 -149.5t46 -150t129 -58t128.5 58z
" />
    <glyph glyph-name="p" unicode="p" horiz-adv-x="646" 
d="M522.5 494q66.5 -75 66.5 -218t-66.5 -218t-178.5 -75q-81 0 -160 67v-284h-94v787h94v-52q80 68 160 68q112 0 178.5 -75zM451 122.5q41 52.5 41 153.5t-41 153t-120 52q-75 0 -147 -62v-287q74 -62 147 -62q79 0 120 52.5z" />
    <glyph glyph-name="q" unicode="q" horiz-adv-x="646" 
d="M556 553v-787h-94v284q-79 -67 -160 -67q-112 0 -179 75t-67 218t67 218t179 75q80 0 160 -68v52h94zM462 132v287q-74 62 -148 62q-79 0 -119.5 -52t-40.5 -153t40.5 -153.5t119.5 -52.5q72 0 148 62z" />
    <glyph glyph-name="r" unicode="r" horiz-adv-x="404" 
d="M374 565v-88h-23q-86 0 -167 -69v-408h-94v553h94v-62q82 74 167 74h23z" />
    <glyph glyph-name="s" unicode="s" horiz-adv-x="514" 
d="M150 -7q-47 10 -98 34v93q95 -53 206 -53q56 0 80.5 22.5t24.5 59.5q0 36 -19.5 53t-63.5 29l-65 16q-70 17 -110 54t-40 109q0 75 49 117t144 42q49 0 91 -9.5t84 -26.5v-88q-41 19 -81 29.5t-91 10.5q-53 0 -76.5 -20.5t-23.5 -51.5q0 -34 20.5 -51.5t59.5 -27.5
l66 -15q50 -12 82.5 -30t51 -50.5t18.5 -86.5q0 -81 -54.5 -125t-146.5 -44q-61 0 -108 10z" />
    <glyph glyph-name="t" unicode="t" horiz-adv-x="373" 
d="M203 459v-316q0 -40 12.5 -54.5t46.5 -14.5q30 0 64 8v-85q-45 -10 -80 -10q-76 0 -106.5 31t-30.5 104v337h-72v87h72v190h94v-190h128v-87h-128z" />
    <glyph glyph-name="u" unicode="u" horiz-adv-x="639" 
d="M549 553v-553h-94v59q-82 -71 -169 -71q-102 0 -151.5 54t-49.5 177v334h94v-334q0 -78 26.5 -111t93.5 -33q78 0 156 68v410h94z" />
    <glyph glyph-name="v" unicode="v" horiz-adv-x="568" 
d="M548 553l-209 -562h-108l-211 562h98l167 -458l165 458h98z" />
    <glyph glyph-name="w" unicode="w" horiz-adv-x="862" 
d="M839 553l-170 -562h-101l-137 424l-136 -424h-101l-171 562h98l124 -439l132 439h108l133 -439l123 439h98z" />
    <glyph glyph-name="x" unicode="x" horiz-adv-x="582" 
d="M434 0l-146 215l-140 -215h-113l195 289l-185 264h113l134 -198l135 198h111l-190 -272l199 -281h-113z" />
    <glyph glyph-name="y" unicode="y" horiz-adv-x="555" 
d="M535 553l-245 -642q-26 -68 -47 -101t-49.5 -47t-78.5 -14q-29 0 -59 8v85q26 -6 52 -6q34 0 53.5 20t42.5 79l26 67l-210 551h98l159 -428l163 428h95z" />
    <glyph glyph-name="z" unicode="z" horiz-adv-x="536" 
d="M483 85v-85h-417v85l291 382h-273v86h377v-86l-290 -382h312z" />
    <glyph glyph-name="braceleft" unicode="{" horiz-adv-x="351" 
d="M197.5 401q-15.5 -30 -58.5 -42q42 -13 58 -43.5t16 -96.5v-188q0 -43 11.5 -58t45.5 -15q26 0 46 4v-87q-25 -4 -51 -4q-55 0 -86.5 12t-46.5 42t-15 84v200q0 45 -5 67t-17 30.5t-36 8.5h-17v88h17q24 0 36 8.5t17 30.5t5 67v200q0 54 15 84t46.5 42t86.5 12
q26 0 51 -4v-87q-20 4 -46 4q-34 0 -45.5 -15t-11.5 -58v-188q0 -68 -15.5 -98z" />
    <glyph glyph-name="bar" unicode="|" horiz-adv-x="309" 
d="M107 847h96v-976h-96v976z" />
    <glyph glyph-name="braceright" unicode="}" horiz-adv-x="324" 
d="M8 0zM126.5 401q15.5 -30 58.5 -42q-42 -13 -58 -43.5t-16 -96.5v-188q0 -43 -11.5 -58t-45.5 -15q-26 0 -46 4v-87q25 -4 51 -4q55 0 86.5 12t46.5 42t15 84v200q0 45 5 67t17 30.5t36 8.5h17v88h-17q-24 0 -36 8.5t-17 30.5t-5 67v200q0 54 -15 84t-46.5 42t-86.5 12
q-26 0 -51 -4v-87q20 4 46 4q34 0 45.5 -15t11.5 -58v-188q0 -68 15.5 -98z" />
    <glyph glyph-name="asciitilde" unicode="~" horiz-adv-x="550" 
d="M314 279.5q-23 11.5 -54 33.5q-23 17 -38 25t-33 8q-28 0 -51.5 -15.5t-55.5 -45.5l-42 57q37 43 70 65.5t76 22.5q34 0 58 -11.5t53 -33.5q21 -16 36 -24t33 -8q28 0 51 13t52 40l41 -57q-36 -39 -68 -60t-73 -21q-32 0 -55 11.5z" />
    <glyph glyph-name="DEL" horiz-adv-x="600" 
 />
    <glyph glyph-name="uni00A0" unicode="&#xa0;" horiz-adv-x="220" 
 />
    <glyph glyph-name="exclamdown" unicode="&#xa1;" horiz-adv-x="284" 
d="M90 758h104v-158h-104v158zM101 528h82l15 -528h-112z" />
    <glyph glyph-name="cent" unicode="&#xa2;" horiz-adv-x="550" 
d="M374 -14v-82h-86v81q-112 13 -172 89.5t-60 199.5q0 122 60 197.5t172 88.5v81h86v-81q50 -4 103 -25v-92q-53 26 -103 30v-400q57 9 116 40l30 -82q-70 -37 -146 -45zM185.5 141q32.5 -53 102.5 -67v396q-70 -13 -102.5 -64.5t-32.5 -130.5q0 -81 32.5 -134z" />
    <glyph glyph-name="sterling" unicode="&#xa3;" horiz-adv-x="550" 
d="M509 87v-87h-465v87h95v220h-65v88h65v92q0 76 18 119t60 62.5t115 19.5q28 0 59.5 -4.5t51.5 -13.5v-90q-46 21 -105 21q-41 0 -63.5 -10.5t-32 -35.5t-9.5 -71v-89h162v-88h-162v-220h276z" />
    <glyph glyph-name="currency" unicode="&#xa4;" horiz-adv-x="550" 
d="M42 154l78 78q-33 46 -33 104q0 57 31 102l-78 79l52 53l79 -79q46 30 101 30q58 0 105 -34l80 79l52 -53l-80 -80q29 -47 29 -97q0 -56 -32 -102l79 -78l-53 -53l-79 79q-45 -31 -101 -31q-52 0 -99 29l-79 -79zM351 253q33 34 33 83q0 48 -33 82.5t-79 34.5
t-78.5 -34.5t-32.5 -82.5q0 -49 32.5 -83t78.5 -34t79 34z" />
    <glyph glyph-name="yen" unicode="&#xa5;" horiz-adv-x="550" 
d="M359 354h111v-77h-147v-78h147v-78h-147v-121h-96v121h-147v78h147v78h-147v77h112l-184 320h96l171 -302l172 302h96z" />
    <glyph glyph-name="brokenbar" unicode="&#xa6;" horiz-adv-x="309" 
d="M107 847h96v-376h-96v376zM107 247h96v-376h-96v376z" />
    <glyph glyph-name="section" unicode="&#xa7;" horiz-adv-x="550" 
d="M403 166q61 -42 61 -119q-1 -70 -53.5 -109.5t-143.5 -39.5q-94 0 -169 29v88q77 -35 169 -35q53 0 79.5 18.5t26.5 48.5t-23 48t-64 29l-71 19q-56 15 -92.5 33t-59 48.5t-22.5 79.5q0 88 104 128q-52 39 -52 111t49.5 108.5t137.5 36.5q51 0 90 -8t80 -26v-87
q-42 21 -81.5 30t-88.5 9q-48 0 -72 -16.5t-24 -46.5t20 -45t58 -25l71 -20q81 -23 128 -56.5t48 -97.5q-1 -91 -106 -133zM418 290q0 31 -29.5 49t-87.5 34l-67 19l-11 3q-90 -22 -91 -82q1 -25 12 -40t34.5 -26t68.5 -24l67 -19l9 -2q95 26 95 88z" />
    <glyph glyph-name="dieresis" unicode="&#xa8;" horiz-adv-x="649" 
d="M383 794h87v-124h-87v124zM179 794h88v-124h-88v124z" />
    <glyph glyph-name="copyright" unicode="&#xa9;" horiz-adv-x="935" 
d="M266 34.5q-92 51.5 -145.5 141.5t-53.5 202q0 106 54 196.5t146 144t201 53.5q107 0 199 -53.5t146.5 -144t54.5 -196.5q0 -111 -54 -201.5t-146 -142t-200 -51.5q-110 0 -202 51.5zM626.5 97.5q73.5 42.5 117.5 117t44 165.5q0 85 -44.5 159t-118 117.5t-157.5 43.5
q-87 0 -160.5 -44t-117 -118t-43.5 -160q0 -91 43 -165t116.5 -116t161.5 -42q85 0 158.5 42.5zM357.5 184.5q-48.5 29.5 -73 80.5t-24.5 113q0 98 54.5 160t160.5 62q31 0 54.5 -4.5t49.5 -15.5v-79q-45 24 -104 24q-60 0 -95 -40.5t-35 -103.5q0 -71 33.5 -110.5
t96.5 -39.5q30 0 58 7t60 21l20 -69q-33 -17 -69 -26t-69 -9q-69 0 -117.5 29.5z" />
    <glyph glyph-name="ordfeminine" unicode="&#xaa;" horiz-adv-x="397" 
d="M289.5 662q33.5 -22 44.5 -59.5t11 -94.5v-224h-75v33q-49 -42 -109 -42q-57 0 -96 36t-39 97q0 65 41 101t110 36q49 0 93 -21q-2 46 -19.5 67.5t-68.5 21.5h-59v71h70q63 0 96.5 -22zM220.5 353q25.5 9 49.5 28v81q-38 15 -81 15q-35 0 -58.5 -15.5t-23.5 -52.5
q0 -33 20.5 -49t46.5 -16q21 0 46.5 9z" />
    <glyph glyph-name="guillemotleft" unicode="&#xab;" horiz-adv-x="746" 
d="M366 33zM451 270l181 -179l-60 -58l-206 203v68l206 203l60 -58zM195 270l181 -179l-60 -58l-206 203v68l206 203l60 -58z" />
    <glyph glyph-name="logicalnot" unicode="&#xac;" horiz-adv-x="550" 
d="M483 381v-252l-89 -1v165h-327v88h416z" />
    <glyph glyph-name="registered" unicode="&#xae;" horiz-adv-x="721" 
d="M505.5 730q66.5 -39 105.5 -105t39 -142q0 -81 -39 -146.5t-105.5 -103t-144.5 -37.5q-80 0 -146.5 37t-105 103t-38.5 147q0 76 39 142t105.5 105t145.5 39q78 0 144.5 -39zM474 286q52 30 83 82.5t31 116.5q0 60 -31.5 111.5t-84 82t-111.5 30.5q-62 0 -114.5 -30.5
t-83 -82.5t-30.5 -113q0 -64 30.5 -116t83 -81.5t114.5 -29.5q61 0 113 30zM422 446l67 -108h-69l-60 99h-46v-99h-60v290h114q54 0 80.5 -22.5t26.5 -71.5q0 -68 -53 -88zM314 490h48q29 0 40 9.5t11 34.5q0 23 -11 32t-40 9h-48v-85z" />
    <glyph glyph-name="macron" unicode="&#xaf;" horiz-adv-x="649" 
d="M170 767h309v-68h-309v68z" />
    <glyph glyph-name="degree" unicode="&#xb0;" horiz-adv-x="473" 
d="M138 328.5q-45 26.5 -71.5 71.5t-26.5 99t26.5 99t71.5 71t99 26t99 -26t71 -71t26 -99t-26 -99t-71 -71.5t-99 -26.5t-99 26.5zM317 415q31 34 31 84t-31 83.5t-80 33.5t-80.5 -34t-31.5 -83q0 -50 31.5 -84t80.5 -34t80 34z" />
    <glyph glyph-name="plusminus" unicode="&#xb1;" horiz-adv-x="550" 
d="M67 0zM483 293h-163v-164l-90 -1v165h-163v88h163v163l90 1v-164h163v-88zM67 71h416v-88h-416v88z" />
    <glyph glyph-name="uni00B2" unicode="&#xb2;" horiz-adv-x="390" 
d="M44 202q87 95 133.5 151t70 99.5t23.5 80.5q0 40 -22 60.5t-64 20.5q-64 0 -124 -30v72q61 27 125 27q74 0 117.5 -38t43.5 -110q0 -48 -27.5 -100t-69 -102t-116.5 -131h227v-71h-317v71z" />
    <glyph glyph-name="uni00B3" unicode="&#xb3;" horiz-adv-x="390" 
d="M326.5 364.5q23.5 -34.5 23.5 -78.5q0 -79 -48 -122.5t-132 -43.5q-69 0 -120 20v72q52 -23 117 -23q48 0 77 25.5t29 73.5q0 45 -32 69t-92 24h-42v72h42q57 0 87 22.5t30 65.5q0 34 -24.5 53.5t-71.5 19.5q-64 0 -113 -20v71q49 18 113 18q86 0 129.5 -38t43.5 -104
q0 -85 -85 -124q45 -18 68.5 -52.5z" />
    <glyph glyph-name="acute" unicode="&#xb4;" horiz-adv-x="649" 
d="M359 809h111l-121 -153h-95z" />
    <glyph glyph-name="paragraph" unicode="&#xb6;" horiz-adv-x="694" 
d="M311 301h-29q-119 0 -178 58t-59 169q0 230 237 230h305v-858h-89v773h-98v-773h-89v401z" />
    <glyph glyph-name="periodcentered" unicode="&#xb7;" horiz-adv-x="284" 
d="M90 423h104v-161h-104v161z" />
    <glyph glyph-name="cedilla" unicode="&#xb8;" horiz-adv-x="649" 
d="M426 -89.5q28 -26.5 28 -69.5q0 -47 -33 -75.5t-96 -28.5q-54 0 -98 20v64q46 -21 92 -21q31 0 46 11.5t15 28.5q0 37 -55 37q-32 0 -81 -15l41 139h71l-20 -64h9q53 0 81 -26.5z" />
    <glyph glyph-name="uni00B9" unicode="&#xb9;" horiz-adv-x="390" 
d="M315 202v-71h-240v71h83v400h-69v71h143v-471h83z" />
    <glyph glyph-name="ordmasculine" unicode="&#xba;" horiz-adv-x="517" 
d="M150.5 303q-45.5 28 -69.5 76t-24 108q0 59 24 107t69.5 76t108.5 28t108.5 -28t69 -76t23.5 -107q0 -60 -23.5 -108t-69 -76t-108.5 -28t-108.5 28zM350.5 387.5q30.5 38.5 30.5 99.5q0 60 -30.5 98.5t-91.5 38.5t-92 -38.5t-31 -98.5t31 -99t92 -39t91.5 38.5z" />
    <glyph glyph-name="guillemotright" unicode="&#xbb;" horiz-adv-x="746" 
d="M114 33zM295 270l-181 -179l60 -58l206 203v68l-206 203l-60 -58zM551 270l-181 -179l60 -58l206 203v68l-206 203l-60 -58z" />
    <glyph glyph-name="onequarter" unicode="&#xbc;" horiz-adv-x="1031" 
d="M75 0zM315 202v-71h-240v71h83v400h-69v71h143v-471h83zM712 773h84l-417 -806h-84zM1021 173h-67v-129h-74v129h-222v69l221 353h75v-353h67v-69zM880 242v233l-147 -233h147z" />
    <glyph glyph-name="onehalf" unicode="&#xbd;" horiz-adv-x="1076" 
d="M75 0zM315 202v-71h-240v71h83v400h-69v71h143v-471h83zM712 773h84l-417 -806h-84zM730 115q87 95 133.5 151t70 99.5t23.5 80.5q0 40 -22 60.5t-64 20.5q-64 0 -124 -30v72q61 27 125 27q74 0 117.5 -38t43.5 -110q0 -48 -27.5 -100t-69 -102t-116.5 -131h227v-71h-317
v71z" />
    <glyph glyph-name="threequarters" unicode="&#xbe;" horiz-adv-x="1028" 
d="M50 0zM326.5 364.5q23.5 -34.5 23.5 -78.5q0 -79 -48 -122.5t-132 -43.5q-69 0 -120 20v72q52 -23 117 -23q48 0 77 25.5t29 73.5q0 45 -32 69t-92 24h-42v72h42q57 0 87 22.5t30 65.5q0 34 -24.5 53.5t-71.5 19.5q-64 0 -113 -20v71q49 18 113 18q86 0 129.5 -38
t43.5 -104q0 -85 -85 -124q45 -18 68.5 -52.5zM709 773h84l-417 -806h-84zM1018 173h-67v-129h-74v129h-222v69l221 353h75v-353h67v-69zM877 242v233l-147 -233h147z" />
    <glyph glyph-name="questiondown" unicode="&#xbf;" horiz-adv-x="533" 
d="M287 657h18v44h-18v-44zM127 36.5q-60 50.5 -60 143.5q0 57 22 93.5t63 71.5l28 24q40 35 54 57t14 61v41h96v-47q0 -41 -10.5 -69t-28.5 -48.5t-51 -47.5l-34 -30q-31 -27 -43 -48.5t-12 -52.5q0 -55 33.5 -84.5t90.5 -29.5q92 0 174 41v-89q-85 -37 -181 -37
q-95 0 -155 50.5z" />
    <glyph glyph-name="Agrave" unicode="&#xc0;" horiz-adv-x="732" 
d="M27 0zM524 221h-316l-81 -221h-100l285 767h108l286 -767h-100zM491 308l-125 338l-125 -338h250zM210 989h111l105 -153h-95z" />
    <glyph glyph-name="Aacute" unicode="&#xc1;" horiz-adv-x="732" 
d="M27 0zM524 221h-316l-81 -221h-100l285 767h108l286 -767h-100zM491 308l-125 338l-125 -338h250zM421 989h111l-121 -153h-95z" />
    <glyph glyph-name="Acircumflex" unicode="&#xc2;" horiz-adv-x="732" 
d="M27 0zM524 221h-316l-81 -221h-100l285 767h108l286 -767h-100zM491 308l-125 338l-125 -338h250zM433 836l-67 109l-68 -109h-101l111 153h115l111 -153h-101z" />
    <glyph glyph-name="Atilde" unicode="&#xc3;" horiz-adv-x="732" 
d="M27 0zM524 221h-316l-81 -221h-100l285 767h108l286 -767h-100zM491 308l-125 338l-125 -338h250zM232.5 940q23.5 26 60.5 26q26 0 58 -15l37 -17q23 -10 34 -10q27 0 27 42h74q-3 -113 -85 -113q-30 0 -58 15l-37 17q-10 4 -18.5 7t-15.5 3q-27 0 -27 -42h-74
q1 61 24.5 87z" />
    <glyph glyph-name="Adieresis" unicode="&#xc4;" horiz-adv-x="732" 
d="M27 0zM524 221h-316l-81 -221h-100l285 767h108l286 -767h-100zM491 308l-125 338l-125 -338h250zM425 974h87v-124h-87v124zM221 974h88v-124h-88v124z" />
    <glyph glyph-name="Aring" unicode="&#xc5;" horiz-adv-x="732" 
d="M27 0zM524 221h-316l-81 -221h-100l285 767h108l286 -767h-100zM491 308l-125 338l-125 -338h250zM291 846q-28 26 -28 66t27.5 65.5t75.5 25.5q47 0 74.5 -25.5t27.5 -65.5t-27.5 -66t-74.5 -26t-75 26zM398 880q12 12 12 32t-12 32t-32 12t-32.5 -12t-12.5 -32
t12.5 -32t32.5 -12t32 12z" />
    <glyph glyph-name="AE" unicode="&#xc6;" horiz-adv-x="1081" 
d="M1021 84v-84h-465v237h-270l-147 -237h-107l476 758h508v-84h-363v-251h313v-84h-313v-255h368zM556 321v352l-218 -352h218z" />
    <glyph glyph-name="Ccedilla" unicode="&#xc7;" horiz-adv-x="706" 
d="M524 -89.5q28 -26.5 28 -69.5q0 -47 -33 -75.5t-96 -28.5q-54 0 -98 20v64q46 -21 92 -21q31 0 46 11.5t15 28.5q0 37 -55 37q-32 0 -81 -15l36 123q-158 15 -240 120t-82 273q0 112 41 201t124.5 141t205.5 52q53 0 94.5 -8.5t89.5 -28.5v-89q-85 41 -182 41
q-84 0 -146 -39.5t-95 -110t-32 -159.5q0 -92 32 -162t93 -109t146 -39q53 0 104.5 15t108.5 43l31 -82q-53 -27 -110.5 -42.5t-112.5 -17.5l-14 -47h9q53 0 81 -26.5z" />
    <glyph glyph-name="Egrave" unicode="&#xc8;" horiz-adv-x="631" 
d="M107 0zM571 84v-84h-464v758h459v-84h-362v-251h312v-84h-312v-255h367zM179 989h111l105 -153h-95z" />
    <glyph glyph-name="Eacute" unicode="&#xc9;" horiz-adv-x="631" 
d="M107 0zM571 84v-84h-464v758h459v-84h-362v-251h312v-84h-312v-255h367zM390 989h111l-121 -153h-95z" />
    <glyph glyph-name="Ecircumflex" unicode="&#xca;" horiz-adv-x="631" 
d="M107 0zM571 84v-84h-464v758h459v-84h-362v-251h312v-84h-312v-255h367zM403 836l-67 109l-68 -109h-101l111 153h115l111 -153h-101z" />
    <glyph glyph-name="Edieresis" unicode="&#xcb;" horiz-adv-x="631" 
d="M107 0zM571 84v-84h-464v758h459v-84h-362v-251h312v-84h-312v-255h367zM394 974h87v-124h-87v124zM190 974h88v-124h-88v124z" />
    <glyph glyph-name="Igrave" unicode="&#xcc;" horiz-adv-x="311" 
d="M0 0zM107 758h97v-758h-97v758zM-1 989h111l105 -153h-95z" />
    <glyph glyph-name="Iacute" unicode="&#xcd;" horiz-adv-x="311" 
d="M105 0zM107 758h97v-758h-97v758zM210 989h111l-121 -153h-95z" />
    <glyph glyph-name="Icircumflex" unicode="&#xce;" horiz-adv-x="311" 
d="M0 0zM107 758h97v-758h-97v758zM222 836l-67 109l-68 -109h-101l111 153h115l111 -153h-101z" />
    <glyph glyph-name="Idieresis" unicode="&#xcf;" horiz-adv-x="311" 
d="M10 0zM107 758h97v-758h-97v758zM214 974h87v-124h-87v124zM10 974h88v-124h-88v124z" />
    <glyph glyph-name="Eth" unicode="&#xd0;" horiz-adv-x="796" 
d="M641.5 661.5q95.5 -96.5 95.5 -283.5q0 -188 -95 -283t-283 -95h-252v342h-87v78h87v338h252q187 0 282.5 -96.5zM567 602q-70 71 -208 71h-155v-253h187v-78h-187v-257h155q139 0 208.5 71t69.5 225q0 150 -70 221z" />
    <glyph glyph-name="Ntilde" unicode="&#xd1;" horiz-adv-x="790" 
d="M107 0zM683 758v-758h-106l-373 595v-595h-97v758h105l374 -595v595h97zM271.5 940q23.5 26 60.5 26q26 0 58 -15l37 -17q23 -10 34 -10q27 0 27 42h74q-3 -113 -85 -113q-30 0 -58 15l-37 17q-10 4 -18.5 7t-15.5 3q-27 0 -27 -42h-74q1 61 24.5 87z" />
    <glyph glyph-name="Ograve" unicode="&#xd2;" horiz-adv-x="836" 
d="M56 0zM219.5 34.5q-81.5 51.5 -122.5 141t-41 202.5q0 111 41 200t122.5 141.5t198.5 52.5q116 0 197 -52.5t122.5 -142t41.5 -199.5q0 -113 -41 -202.5t-122.5 -141t-197.5 -51.5q-117 0 -198.5 51.5zM559 109q59 41 89.5 112t30.5 160q0 86 -31 155.5t-90 110
t-140 40.5q-84 0 -143 -41t-89 -111t-30 -157q0 -89 30 -159t89 -110.5t143 -40.5q82 0 141 41zM262 989h111l105 -153h-95z" />
    <glyph glyph-name="Oacute" unicode="&#xd3;" horiz-adv-x="836" 
d="M56 0zM219.5 34.5q-81.5 51.5 -122.5 141t-41 202.5q0 111 41 200t122.5 141.5t198.5 52.5q116 0 197 -52.5t122.5 -142t41.5 -199.5q0 -113 -41 -202.5t-122.5 -141t-197.5 -51.5q-117 0 -198.5 51.5zM559 109q59 41 89.5 112t30.5 160q0 86 -31 155.5t-90 110
t-140 40.5q-84 0 -143 -41t-89 -111t-30 -157q0 -89 30 -159t89 -110.5t143 -40.5q82 0 141 41zM473 989h111l-121 -153h-95z" />
    <glyph glyph-name="Ocircumflex" unicode="&#xd4;" horiz-adv-x="836" 
d="M56 0zM219.5 34.5q-81.5 51.5 -122.5 141t-41 202.5q0 111 41 200t122.5 141.5t198.5 52.5q116 0 197 -52.5t122.5 -142t41.5 -199.5q0 -113 -41 -202.5t-122.5 -141t-197.5 -51.5q-117 0 -198.5 51.5zM559 109q59 41 89.5 112t30.5 160q0 86 -31 155.5t-90 110
t-140 40.5q-84 0 -143 -41t-89 -111t-30 -157q0 -89 30 -159t89 -110.5t143 -40.5q82 0 141 41zM485 836l-67 109l-68 -109h-101l111 153h115l111 -153h-101z" />
    <glyph glyph-name="Otilde" unicode="&#xd5;" horiz-adv-x="836" 
d="M56 0zM219.5 34.5q-81.5 51.5 -122.5 141t-41 202.5q0 111 41 200t122.5 141.5t198.5 52.5q116 0 197 -52.5t122.5 -142t41.5 -199.5q0 -113 -41 -202.5t-122.5 -141t-197.5 -51.5q-117 0 -198.5 51.5zM559 109q59 41 89.5 112t30.5 160q0 86 -31 155.5t-90 110
t-140 40.5q-84 0 -143 -41t-89 -111t-30 -157q0 -89 30 -159t89 -110.5t143 -40.5q82 0 141 41zM284.5 940q23.5 26 60.5 26q26 0 58 -15l37 -17q23 -10 34 -10q27 0 27 42h74q-3 -113 -85 -113q-30 0 -58 15l-37 17q-10 4 -18.5 7t-15.5 3q-27 0 -27 -42h-74q1 61 24.5 87z
" />
    <glyph glyph-name="Odieresis" unicode="&#xd6;" horiz-adv-x="836" 
d="M56 0zM219.5 34.5q-81.5 51.5 -122.5 141t-41 202.5q0 111 41 200t122.5 141.5t198.5 52.5q116 0 197 -52.5t122.5 -142t41.5 -199.5q0 -113 -41 -202.5t-122.5 -141t-197.5 -51.5q-117 0 -198.5 51.5zM559 109q59 41 89.5 112t30.5 160q0 86 -31 155.5t-90 110
t-140 40.5q-84 0 -143 -41t-89 -111t-30 -157q0 -89 30 -159t89 -110.5t143 -40.5q82 0 141 41zM477 974h87v-124h-87v124zM273 974h88v-124h-88v124z" />
    <glyph glyph-name="Oslash" unicode="&#xd8;" horiz-adv-x="836" 
d="M716 618q63 -100 63 -240q0 -113 -41 -202.5t-122.5 -141t-197.5 -51.5q-153 0 -249 91l-79 -79l-58 56l86 86q-31 49 -46.5 110.5t-15.5 130.5q0 111 41 200t122.5 141.5t198.5 52.5q77 0 139.5 -23.5t107.5 -67.5l83 81l57 -56zM191 209l406 404q-33 35 -78.5 54.5
t-100.5 19.5q-84 0 -143 -41t-89 -111t-30 -157q0 -96 35 -169zM644 546l-407 -405q68 -73 181 -73q83 0 141.5 41.5t89 113.5t30.5 162q0 89 -35 161z" />
    <glyph glyph-name="Ugrave" unicode="&#xd9;" horiz-adv-x="784" 
d="M103 0zM175 56.5q-72 73.5 -72 208.5v493h98v-493q0 -97 48 -147t143 -50t143 50t48 147v493h98v-493q0 -135 -72 -208.5t-217 -73.5t-217 73.5zM236 989h111l105 -153h-95z" />
    <glyph glyph-name="Uacute" unicode="&#xda;" horiz-adv-x="784" 
d="M103 0zM175 56.5q-72 73.5 -72 208.5v493h98v-493q0 -97 48 -147t143 -50t143 50t48 147v493h98v-493q0 -135 -72 -208.5t-217 -73.5t-217 73.5zM447 989h111l-121 -153h-95z" />
    <glyph glyph-name="Ucircumflex" unicode="&#xdb;" horiz-adv-x="784" 
d="M103 0zM175 56.5q-72 73.5 -72 208.5v493h98v-493q0 -97 48 -147t143 -50t143 50t48 147v493h98v-493q0 -135 -72 -208.5t-217 -73.5t-217 73.5zM459 836l-67 109l-68 -109h-101l111 153h115l111 -153h-101z" />
    <glyph glyph-name="Udieresis" unicode="&#xdc;" horiz-adv-x="784" 
d="M103 0zM451 974h87v-124h-87v124zM247 974h88v-124h-88v124zM175 56.5q-72 73.5 -72 208.5v493h98v-493q0 -97 48 -147t143 -50t143 50t48 147v493h98v-493q0 -135 -72 -208.5t-217 -73.5t-217 73.5z" />
    <glyph glyph-name="Yacute" unicode="&#xdd;" horiz-adv-x="713" 
d="M30 0zM404 293v-293h-96v293l-278 465h100l226 -383l227 383h100zM411 989h111l-121 -153h-95z" />
    <glyph glyph-name="Thorn" unicode="&#xde;" horiz-adv-x="642" 
d="M620 384q0 -110 -62 -167.5t-186 -57.5h-168v-159h-97v758h97v-148h168q248 0 248 -226zM484 491.5q-37 33.5 -112 33.5h-168v-280h168q148 0 149 139q0 74 -37 107.5z" />
    <glyph glyph-name="germandbls" unicode="&#xdf;" horiz-adv-x="623" 
d="M331 -12q-29 5 -61 19v87q35 -16 61 -21.5t52 -5.5q103 0 106 85q-1 35 -23.5 54.5t-69.5 42.5q-41 20 -66.5 37t-43.5 47t-18 77q0 41 13 70t39 66q26 36 39 64t13 68q0 49 -22.5 71.5t-68.5 22.5q-51 0 -74 -24t-23 -83v-665h-94v665q0 103 48.5 148.5t147.5 45.5
q85 0 132.5 -46t47.5 -131q0 -60 -16.5 -99.5t-47.5 -83.5q-20 -30 -29 -48.5t-9 -39.5q0 -29 21 -47.5t66 -41.5q42 -21 68.5 -40t46 -50.5t19.5 -78.5q-3 -85 -54 -127.5t-138 -42.5q-33 0 -62 5z" />
    <glyph glyph-name="agrave" unicode="&#xe0;" horiz-adv-x="535" 
d="M33 0zM394 523.5q46 -29.5 61 -79t15 -124.5v-320h-94v55q-38 -36 -76 -52t-82 -16q-52 0 -94 22.5t-66.5 65t-24.5 100.5q0 90 56 139.5t151 49.5q75 0 135 -33q-1 49 -10 78t-37 44.5t-83 15.5h-74v84h89q88 0 134 -29.5zM302.5 84q37.5 16 73.5 48v126q-56 28 -122 28
q-53 0 -89 -25.5t-36 -85.5q0 -56 30.5 -81.5t71.5 -25.5q34 0 71.5 16zM110 809h112l104 -153h-95z" />
    <glyph glyph-name="aacute" unicode="&#xe1;" horiz-adv-x="535" 
d="M33 0zM394 523.5q46 -29.5 61 -79t15 -124.5v-320h-94v55q-38 -36 -76 -52t-82 -16q-52 0 -94 22.5t-66.5 65t-24.5 100.5q0 90 56 139.5t151 49.5q75 0 135 -33q-1 49 -10 78t-37 44.5t-83 15.5h-74v84h89q88 0 134 -29.5zM302.5 84q37.5 16 73.5 48v126q-56 28 -122 28
q-53 0 -89 -25.5t-36 -85.5q0 -56 30.5 -81.5t71.5 -25.5q34 0 71.5 16zM328 809h111l-121 -153h-95z" />
    <glyph glyph-name="acircumflex" unicode="&#xe2;" horiz-adv-x="535" 
d="M33 0zM394 523.5q46 -29.5 61 -79t15 -124.5v-320h-94v55q-38 -36 -76 -52t-82 -16q-52 0 -94 22.5t-66.5 65t-24.5 100.5q0 90 56 139.5t151 49.5q75 0 135 -33q-1 49 -10 78t-37 44.5t-83 15.5h-74v84h89q88 0 134 -29.5zM302.5 84q37.5 16 73.5 48v126q-56 28 -122 28
q-53 0 -89 -25.5t-36 -85.5q0 -56 30.5 -81.5t71.5 -25.5q34 0 71.5 16zM341 656l-67 109l-68 -109h-101l111 153h115l111 -153h-101z" />
    <glyph glyph-name="atilde" unicode="&#xe3;" horiz-adv-x="535" 
d="M33 0zM394 523.5q46 -29.5 61 -79t15 -124.5v-320h-94v55q-38 -36 -76 -52t-82 -16q-52 0 -94 22.5t-66.5 65t-24.5 100.5q0 90 56 139.5t151 49.5q75 0 135 -33q-1 49 -10 78t-37 44.5t-83 15.5h-74v84h89q88 0 134 -29.5zM302.5 84q37.5 16 73.5 48v126q-56 28 -122 28
q-53 0 -89 -25.5t-36 -85.5q0 -56 30.5 -81.5t71.5 -25.5q34 0 71.5 16zM140.5 760q23.5 26 60.5 26q26 0 58 -15l37 -17q23 -10 34 -10q27 0 27 42h74q-3 -113 -85 -113q-30 0 -58 15l-37 17q-10 4 -18.5 7t-15.5 3q-27 0 -27 -42h-74q1 61 24.5 87z" />
    <glyph glyph-name="adieresis" unicode="&#xe4;" horiz-adv-x="535" 
d="M33 0zM394 523.5q46 -29.5 61 -79t15 -124.5v-320h-94v55q-38 -36 -76 -52t-82 -16q-52 0 -94 22.5t-66.5 65t-24.5 100.5q0 90 56 139.5t151 49.5q75 0 135 -33q-1 49 -10 78t-37 44.5t-83 15.5h-74v84h89q88 0 134 -29.5zM302.5 84q37.5 16 73.5 48v126q-56 28 -122 28
q-53 0 -89 -25.5t-36 -85.5q0 -56 30.5 -81.5t71.5 -25.5q34 0 71.5 16zM333 794h87v-124h-87v124zM129 794h88v-124h-88v124z" />
    <glyph glyph-name="aring" unicode="&#xe5;" horiz-adv-x="535" 
d="M33 0zM394 523.5q46 -29.5 61 -79t15 -124.5v-320h-94v55q-38 -36 -76 -52t-82 -16q-52 0 -94 22.5t-66.5 65t-24.5 100.5q0 90 56 139.5t151 49.5q75 0 135 -33q-1 49 -10 78t-37 44.5t-83 15.5h-74v84h89q88 0 134 -29.5zM302.5 84q37.5 16 73.5 48v126q-56 28 -122 28
q-53 0 -89 -25.5t-36 -85.5q0 -56 30.5 -81.5t71.5 -25.5q34 0 71.5 16zM199 666q-28 26 -28 66t27.5 65.5t75.5 25.5q47 0 74.5 -25.5t27.5 -65.5t-27.5 -66t-74.5 -26t-75 26zM306 700q12 12 12 32t-12 32t-32 12t-32.5 -12t-12.5 -32t12.5 -32t32.5 -12t32 12z" />
    <glyph glyph-name="ae" unicode="&#xe6;" horiz-adv-x="904" 
d="M519 123q44 -55 140 -56q73 0 160 41l29 -78q-91 -47 -197 -47q-74 0 -130 26t-91 75q-52 -51 -103 -74t-109 -23q-52 0 -94 22.5t-66.5 65t-24.5 100.5q0 90 56 139.5t151 49.5q75 0 135 -33q-1 49 -10 78t-37 44.5t-83 15.5h-74v84h89q72 0 113.5 -22t61.5 -64
q33 50 84 76t112 26q106 0 167.5 -68t61.5 -195v-37h-387q2 -91 46 -146zM479 348h282q-5 70 -38 103.5t-96 33.5q-124 0 -148 -137zM312 88.5q42 20.5 83 61.5q-18 51 -19 108q-56 28 -122 28q-53 0 -89 -25.5t-36 -85.5q0 -56 30.5 -81.5t71.5 -25.5q39 0 81 20.5z" />
    <glyph glyph-name="ccedilla" unicode="&#xe7;" horiz-adv-x="546" 
d="M416 -89.5q28 -26.5 28 -69.5q0 -47 -33 -75.5t-95 -28.5q-55 0 -99 20v64q46 -21 92 -21q31 0 46 11.5t15 28.5q0 37 -54 37q-33 0 -82 -15l38 125q-105 16 -160.5 93t-55.5 197q0 135 69.5 213t198.5 79q45 0 77.5 -6.5t69.5 -21.5v-91q-36 17 -68.5 24t-71.5 7
q-93 -1 -135 -55.5t-42 -147.5q0 -95 42 -151t133 -57q71 0 155 43l30 -82q-84 -44 -173 -48l-14 -46h9q52 0 80 -26.5z" />
    <glyph glyph-name="egrave" unicode="&#xe8;" horiz-adv-x="585" 
d="M56 0zM200 122q44 -55 140 -55q73 0 160 41l29 -78q-91 -47 -197 -47q-88 0 -150 37t-94 103t-32 154q0 93 33.5 158.5t90.5 99.5t128 34q109 0 171 -68t62 -195v-37h-387q2 -92 46 -147zM160 348h282q-5 70 -38 103.5t-96 33.5q-124 0 -148 -137zM144 809h112l104 -153
h-95z" />
    <glyph glyph-name="eacute" unicode="&#xe9;" horiz-adv-x="585" 
d="M56 0zM200 122q44 -55 140 -55q73 0 160 41l29 -78q-91 -47 -197 -47q-88 0 -150 37t-94 103t-32 154q0 93 33.5 158.5t90.5 99.5t128 34q109 0 171 -68t62 -195v-37h-387q2 -92 46 -147zM160 348h282q-5 70 -38 103.5t-96 33.5q-124 0 -148 -137zM361 809h111l-121 -153
h-95z" />
    <glyph glyph-name="ecircumflex" unicode="&#xea;" horiz-adv-x="585" 
d="M56 0zM200 122q44 -55 140 -55q73 0 160 41l29 -78q-91 -47 -197 -47q-88 0 -150 37t-94 103t-32 154q0 93 33.5 158.5t90.5 99.5t128 34q109 0 171 -68t62 -195v-37h-387q2 -92 46 -147zM160 348h282q-5 70 -38 103.5t-96 33.5q-124 0 -148 -137zM375 656l-67 109
l-68 -109h-101l111 153h115l111 -153h-101z" />
    <glyph glyph-name="edieresis" unicode="&#xeb;" horiz-adv-x="585" 
d="M56 0zM200 122q44 -55 140 -55q73 0 160 41l29 -78q-91 -47 -197 -47q-88 0 -150 37t-94 103t-32 154q0 93 33.5 158.5t90.5 99.5t128 34q109 0 171 -68t62 -195v-37h-387q2 -92 46 -147zM160 348h282q-5 70 -38 103.5t-96 33.5q-124 0 -148 -137zM366 794h87v-124h-87
v124zM162 794h88v-124h-88v124z" />
    <glyph glyph-name="igrave" unicode="&#xec;" horiz-adv-x="274" 
d="M0 0zM90 553h94v-553h-94v553zM-28 809h112l104 -153h-95z" />
    <glyph glyph-name="iacute" unicode="&#xed;" horiz-adv-x="274" 
d="M85 0zM90 553h94v-553h-94v553zM190 809h111l-121 -153h-95z" />
    <glyph glyph-name="icircumflex" unicode="&#xee;" horiz-adv-x="274" 
d="M0 0zM90 553h94v-553h-94v553zM203 656l-67 109l-68 -109h-101l111 153h115l111 -153h-101z" />
    <glyph glyph-name="idieresis" unicode="&#xef;" horiz-adv-x="274" 
d="M0 0zM90 553h94v-553h-94v553zM195 794h87v-124h-87v124zM-9 794h88v-124h-88v124z" />
    <glyph glyph-name="eth" unicode="&#xf0;" horiz-adv-x="636" 
d="M532.5 564q46.5 -118 46.5 -247q0 -152 -67.5 -243t-193.5 -91q-122 0 -192 74t-70 216q0 151 69.5 221.5t176.5 70.5q74 0 149 -57q-41 116 -122 199l-83 -70l-46 45l80 70q-35 27 -67 44l68 66q32 -18 70 -49l70 61l48 -48l-68 -58q85 -86 131.5 -204zM476 405
q-79 73 -159 73q-71 0 -118 -45t-47 -160q0 -107 45 -155t121 -48q77 0 120.5 63t44.5 180q1 42 -7 92z" />
    <glyph glyph-name="ntilde" unicode="&#xf1;" horiz-adv-x="639" 
d="M90 0zM504.5 511q49.5 -54 49.5 -178v-333h-94v333q0 78 -26.5 111t-93.5 33q-78 0 -156 -68v-409h-94v553h94v-59q82 71 169 71q102 0 151.5 -54zM189.5 760q23.5 26 60.5 26q26 0 58 -15l37 -17q23 -10 34 -10q27 0 27 42h74q-3 -113 -85 -113q-30 0 -58 15l-37 17
q-10 4 -18.5 7t-15.5 3q-27 0 -27 -42h-74q1 61 24.5 87z" />
    <glyph glyph-name="ograve" unicode="&#xf2;" horiz-adv-x="657" 
d="M56 0zM179.5 21.5q-61.5 38.5 -92.5 105t-31 149.5t31 149.5t92.5 105t149.5 38.5t149.5 -38.5t92 -105t30.5 -149.5t-30.5 -149.5t-92 -105t-149.5 -38.5t-149.5 38.5zM457.5 126q45.5 58 45.5 150t-45.5 149.5t-128.5 57.5t-129 -57.5t-46 -149.5t46 -150t129 -58
t128.5 58zM164 809h112l104 -153h-95z" />
    <glyph glyph-name="oacute" unicode="&#xf3;" horiz-adv-x="657" 
d="M56 0zM179.5 21.5q-61.5 38.5 -92.5 105t-31 149.5t31 149.5t92.5 105t149.5 38.5t149.5 -38.5t92 -105t30.5 -149.5t-30.5 -149.5t-92 -105t-149.5 -38.5t-149.5 38.5zM457.5 126q45.5 58 45.5 150t-45.5 149.5t-128.5 57.5t-129 -57.5t-46 -149.5t46 -150t129 -58
t128.5 58zM382 809h111l-121 -153h-95z" />
    <glyph glyph-name="ocircumflex" unicode="&#xf4;" horiz-adv-x="657" 
d="M56 0zM179.5 21.5q-61.5 38.5 -92.5 105t-31 149.5t31 149.5t92.5 105t149.5 38.5t149.5 -38.5t92 -105t30.5 -149.5t-30.5 -149.5t-92 -105t-149.5 -38.5t-149.5 38.5zM457.5 126q45.5 58 45.5 150t-45.5 149.5t-128.5 57.5t-129 -57.5t-46 -149.5t46 -150t129 -58
t128.5 58zM395 656l-67 109l-68 -109h-101l111 153h115l111 -153h-101z" />
    <glyph glyph-name="otilde" unicode="&#xf5;" horiz-adv-x="657" 
d="M56 0zM179.5 21.5q-61.5 38.5 -92.5 105t-31 149.5t31 149.5t92.5 105t149.5 38.5t149.5 -38.5t92 -105t30.5 -149.5t-30.5 -149.5t-92 -105t-149.5 -38.5t-149.5 38.5zM457.5 126q45.5 58 45.5 150t-45.5 149.5t-128.5 57.5t-129 -57.5t-46 -149.5t46 -150t129 -58
t128.5 58zM194.5 760q23.5 26 60.5 26q26 0 58 -15l37 -17q23 -10 34 -10q27 0 27 42h74q-3 -113 -85 -113q-30 0 -58 15l-37 17q-10 4 -18.5 7t-15.5 3q-27 0 -27 -42h-74q1 61 24.5 87z" />
    <glyph glyph-name="odieresis" unicode="&#xf6;" horiz-adv-x="657" 
d="M56 0zM179.5 21.5q-61.5 38.5 -92.5 105t-31 149.5t31 149.5t92.5 105t149.5 38.5t149.5 -38.5t92 -105t30.5 -149.5t-30.5 -149.5t-92 -105t-149.5 -38.5t-149.5 38.5zM457.5 126q45.5 58 45.5 150t-45.5 149.5t-128.5 57.5t-129 -57.5t-46 -149.5t46 -150t129 -58
t128.5 58zM387 794h87v-124h-87v124zM183 794h88v-124h-88v124z" />
    <glyph glyph-name="divide" unicode="&#xf7;" horiz-adv-x="550" 
d="M67 39zM223 200h104v-161h-104v161zM67 381h416v-88h-416v88zM223 638h104v-161h-104v161z" />
    <glyph glyph-name="oslash" unicode="&#xf8;" horiz-adv-x="657" 
d="M562 442q39 -70 39 -166q0 -83 -30.5 -149.5t-92 -105t-149.5 -38.5q-114 0 -186 66l-58 -54l-55 53l66 62q-40 72 -40 166q0 83 31 149.5t92.5 105t149.5 38.5q114 0 186 -67l59 56l54 -54zM170 179l276 259q-43 45 -117 45q-83 0 -129 -57.5t-46 -149.5q0 -55 16 -97z
M487 373l-276 -259q46 -46 118 -46q83 0 128.5 58t45.5 150q0 55 -16 97z" />
    <glyph glyph-name="ugrave" unicode="&#xf9;" horiz-adv-x="639" 
d="M85 0zM549 553v-553h-94v59q-82 -71 -169 -71q-102 0 -151.5 54t-49.5 177v334h94v-334q0 -78 26.5 -111t93.5 -33q78 0 156 68v410h94zM152 809h112l104 -153h-95z" />
    <glyph glyph-name="uacute" unicode="&#xfa;" horiz-adv-x="639" 
d="M85 0zM549 553v-553h-94v59q-82 -71 -169 -71q-102 0 -151.5 54t-49.5 177v334h94v-334q0 -78 26.5 -111t93.5 -33q78 0 156 68v410h94zM370 809h111l-121 -153h-95z" />
    <glyph glyph-name="ucircumflex" unicode="&#xfb;" horiz-adv-x="639" 
d="M85 0zM549 553v-553h-94v59q-82 -71 -169 -71q-102 0 -151.5 54t-49.5 177v334h94v-334q0 -78 26.5 -111t93.5 -33q78 0 156 68v410h94zM383 656l-67 109l-68 -109h-101l111 153h115l111 -153h-101z" />
    <glyph glyph-name="udieresis" unicode="&#xfc;" horiz-adv-x="639" 
d="M85 0zM549 553v-553h-94v59q-82 -71 -169 -71q-102 0 -151.5 54t-49.5 177v334h94v-334q0 -78 26.5 -111t93.5 -33q78 0 156 68v410h94zM375 794h87v-124h-87v124zM171 794h88v-124h-88v124z" />
    <glyph glyph-name="yacute" unicode="&#xfd;" horiz-adv-x="555" 
d="M20 0zM535 553l-245 -642q-26 -68 -47 -101t-49.5 -47t-78.5 -14q-29 0 -59 8v85q26 -6 52 -6q34 0 53.5 20t42.5 79l26 67l-210 551h98l159 -428l163 428h95zM331 809h111l-121 -153h-95z" />
    <glyph glyph-name="thorn" unicode="&#xfe;" horiz-adv-x="623" 
d="M522.5 494q66.5 -75 66.5 -218t-66.5 -218t-178.5 -75q-81 0 -160 67v-284h-94v1080h94v-345q80 68 160 68q112 0 178.5 -75zM451 122.5q41 52.5 41 153.5t-41 153t-120 52q-75 0 -147 -62v-287q74 -62 147 -62q79 0 120 52.5z" />
    <glyph glyph-name="ydieresis" unicode="&#xff;" horiz-adv-x="555" 
d="M20 0zM535 553l-245 -642q-26 -68 -47 -101t-49.5 -47t-78.5 -14q-29 0 -59 8v85q26 -6 52 -6q34 0 53.5 20t42.5 79l26 67l-210 551h98l159 -428l163 428h95zM336 794h87v-124h-87v124zM132 794h88v-124h-88v124z" />
    <glyph glyph-name="Amacron" unicode="&#x100;" horiz-adv-x="732" 
d="M27 0zM524 221h-316l-81 -221h-100l285 767h108l286 -767h-100zM491 308l-125 338l-125 -338h250zM211 947h309v-68h-309v68z" />
    <glyph glyph-name="amacron" unicode="&#x101;" horiz-adv-x="535" 
d="M33 0zM394 523.5q46 -29.5 61 -79t15 -124.5v-320h-94v55q-38 -36 -76 -52t-82 -16q-52 0 -94 22.5t-66.5 65t-24.5 100.5q0 90 56 139.5t151 49.5q75 0 135 -33q-1 49 -10 78t-37 44.5t-83 15.5h-74v84h89q88 0 134 -29.5zM302.5 84q37.5 16 73.5 48v126q-56 28 -122 28
q-53 0 -89 -25.5t-36 -85.5q0 -56 30.5 -81.5t71.5 -25.5q34 0 71.5 16zM119 767h309v-68h-309v68z" />
    <glyph glyph-name="Abreve" unicode="&#x102;" horiz-adv-x="732" 
d="M27 0zM524 221h-316l-81 -221h-100l285 767h108l286 -767h-100zM491 308l-125 338l-125 -338h250zM251.5 870.5q-42.5 35.5 -42.5 105.5v11h77v-10q0 -40 19 -59t61 -19t61 19t19 59v10h77v-11q1 -70 -41 -105.5t-116 -35.5q-72 0 -114.5 35.5z" />
    <glyph glyph-name="abreve" unicode="&#x103;" horiz-adv-x="535" 
d="M33 0zM394 523.5q46 -29.5 61 -79t15 -124.5v-320h-94v55q-38 -36 -76 -52t-82 -16q-52 0 -94 22.5t-66.5 65t-24.5 100.5q0 90 56 139.5t151 49.5q75 0 135 -33q-1 49 -10 78t-37 44.5t-83 15.5h-74v84h89q88 0 134 -29.5zM302.5 84q37.5 16 73.5 48v126q-56 28 -122 28
q-53 0 -89 -25.5t-36 -85.5q0 -56 30.5 -81.5t71.5 -25.5q34 0 71.5 16zM161.5 690.5q-42.5 35.5 -42.5 105.5v11h77v-10q0 -40 19 -59t61 -19t61 19t19 59v10h76v-11q2 -70 -40 -105.5t-116 -35.5q-72 0 -114.5 35.5z" />
    <glyph glyph-name="Aogonek" unicode="&#x104;" horiz-adv-x="732" 
d="M27 0zM524 221h-316l-81 -221h-100l285 767h108l286 -767h-100zM491 308l-125 338l-125 -338h250zM557.5 -212q-29.5 24 -29.5 65q0 39 23 75t70 72h85q-48 -37 -74 -69t-26 -65q0 -18 12 -28.5t35 -10.5q28 0 53 12v-63q-28 -12 -62 -12q-57 0 -86.5 24z" />
    <glyph glyph-name="aogonek" unicode="&#x105;" horiz-adv-x="535" 
d="M394 523.5q46 -29.5 61 -79t15 -124.5v-320q-48 -37 -73.5 -69t-25.5 -65q0 -18 11.5 -28.5t34.5 -10.5q28 0 53 12v-63q-28 -12 -62 -12q-57 0 -85.5 24t-28.5 65q0 39 23.5 75t71.5 72h-13v55q-38 -36 -76 -52t-82 -16q-52 0 -94 22.5t-66.5 65t-24.5 100.5
q0 90 56 139.5t151 49.5q75 0 135 -33q-1 49 -10 78t-37 44.5t-83 15.5h-74v84h89q88 0 134 -29.5zM302.5 84q37.5 16 73.5 48v126q-56 28 -122 28q-53 0 -89 -25.5t-36 -85.5q0 -56 30.5 -81.5t71.5 -25.5q34 0 71.5 16z" />
    <glyph glyph-name="Cacute" unicode="&#x106;" horiz-adv-x="706" 
d="M56 0zM222 32q-83 49 -124.5 138t-41.5 208q0 112 41 201t124.5 141t205.5 52q53 0 94.5 -8.5t89.5 -28.5v-89q-85 41 -182 41q-84 0 -146 -39.5t-95 -110t-32 -159.5q0 -92 32 -162t93 -109t146 -39q53 0 104.5 15t108.5 43l31 -82q-58 -30 -122 -45.5t-122 -15.5
q-122 0 -205 49zM442 989h111l-121 -153h-95z" />
    <glyph glyph-name="cacute" unicode="&#x107;" horiz-adv-x="546" 
d="M56 0zM125.5 63q-69.5 79 -69.5 214t69.5 213t198.5 79q45 0 77.5 -6.5t69.5 -21.5v-91q-36 17 -68.5 24t-71.5 7q-93 -1 -135 -55.5t-42 -147.5q0 -95 42 -151t133 -57q71 0 155 43l30 -82q-91 -48 -190 -48q-129 1 -198.5 80zM361 809h111l-121 -153h-95z" />
    <glyph glyph-name="Cdotaccent" unicode="&#x10a;" horiz-adv-x="706" 
d="M56 0zM222 32q-83 49 -124.5 138t-41.5 208q0 112 41 201t124.5 141t205.5 52q53 0 94.5 -8.5t89.5 -28.5v-89q-85 41 -182 41q-84 0 -146 -39.5t-95 -110t-32 -159.5q0 -92 32 -162t93 -109t146 -39q53 0 104.5 15t108.5 43l31 -82q-58 -30 -122 -45.5t-122 -15.5
q-122 0 -205 49zM341 974h94v-124h-94v124z" />
    <glyph glyph-name="cdotaccent" unicode="&#x10b;" horiz-adv-x="546" 
d="M56 0zM125.5 63q-69.5 79 -69.5 214t69.5 213t198.5 79q45 0 77.5 -6.5t69.5 -21.5v-91q-36 17 -68.5 24t-71.5 7q-93 -1 -135 -55.5t-42 -147.5q0 -95 42 -151t133 -57q71 0 155 43l30 -82q-91 -48 -190 -48q-129 1 -198.5 80zM262 794h94v-124h-94v124z" />
    <glyph glyph-name="Ccaron" unicode="&#x10c;" horiz-adv-x="706" 
d="M56 0zM222 32q-83 49 -124.5 138t-41.5 208q0 112 41 201t124.5 141t205.5 52q53 0 94.5 -8.5t89.5 -28.5v-89q-85 41 -182 41q-84 0 -146 -39.5t-95 -110t-32 -159.5q0 -92 32 -162t93 -109t146 -39q53 0 104.5 15t108.5 43l31 -82q-58 -30 -122 -45.5t-122 -15.5
q-122 0 -205 49zM555 989l-111 -153h-115l-111 153h101l68 -109l67 109h101z" />
    <glyph glyph-name="ccaron" unicode="&#x10d;" horiz-adv-x="546" 
d="M56 0zM125.5 63q-69.5 79 -69.5 214t69.5 213t198.5 79q45 0 77.5 -6.5t69.5 -21.5v-91q-36 17 -68.5 24t-71.5 7q-93 -1 -135 -55.5t-42 -147.5q0 -95 42 -151t133 -57q71 0 155 43l30 -82q-91 -48 -190 -48q-129 1 -198.5 80zM475 809l-111 -153h-115l-111 153h101
l68 -109l67 109h101z" />
    <glyph glyph-name="Dcaron" unicode="&#x10e;" horiz-adv-x="796" 
d="M107 0zM641.5 661.5q95.5 -96.5 95.5 -283.5q0 -188 -95 -283t-283 -95h-252v758h252q187 0 282.5 -96.5zM567 602q-70 71 -208 71h-155v-588h155q139 0 208.5 71t69.5 225q0 150 -70 221zM545 989l-111 -153h-115l-111 153h101l68 -109l67 109h101z" />
    <glyph glyph-name="dcaron" unicode="&#x10f;" horiz-adv-x="646" 
d="M56 0zM556 846v-846h-94v50q-79 -67 -160 -67q-112 0 -179 75t-67 218t67 218t179 75q80 0 160 -68v345h94zM462 132v287q-74 62 -148 62q-79 0 -119.5 -52t-40.5 -153t40.5 -153.5t119.5 -52.5q72 0 148 62zM657 751h94l-63 -202h-81z" />
    <glyph glyph-name="Dcroat" unicode="&#x110;" horiz-adv-x="796" 
d="M20 0zM641.5 661.5q95.5 -96.5 95.5 -283.5q0 -188 -95 -283t-283 -95h-252v342h-87v78h87v338h252q187 0 282.5 -96.5zM567 602q-70 71 -208 71h-155v-253h187v-78h-187v-257h155q139 0 208.5 71t69.5 225q0 150 -70 221z" />
    <glyph glyph-name="dcroat" unicode="&#x111;" horiz-adv-x="646" 
d="M621 653h-65v-653h-94v50q-79 -67 -160 -67q-112 0 -179 75t-67 218t67 218t179 75q80 0 160 -68v152h-175v74h175v119h94v-119h65v-74zM462 132v287q-74 62 -148 62q-79 0 -119.5 -52t-40.5 -153t40.5 -153.5t119.5 -52.5q72 0 148 62z" />
    <glyph glyph-name="Emacron" unicode="&#x112;" horiz-adv-x="631" 
d="M107 0zM187 947h309v-68h-309v68zM571 84v-84h-464v758h459v-84h-362v-251h312v-84h-312v-255h367z" />
    <glyph glyph-name="emacron" unicode="&#x113;" horiz-adv-x="585" 
d="M56 0zM200 122q44 -55 140 -55q73 0 160 41l29 -78q-91 -47 -197 -47q-88 0 -150 37t-94 103t-32 154q0 93 33.5 158.5t90.5 99.5t128 34q109 0 171 -68t62 -195v-37h-387q2 -92 46 -147zM160 348h282q-5 70 -38 103.5t-96 33.5q-124 0 -148 -137zM153 767h309v-68h-309
v68z" />
    <glyph glyph-name="Edotaccent" unicode="&#x116;" horiz-adv-x="631" 
d="M107 0zM571 84v-84h-464v758h459v-84h-362v-251h312v-84h-312v-255h367zM289 974h94v-124h-94v124z" />
    <glyph glyph-name="edotaccent" unicode="&#x117;" horiz-adv-x="585" 
d="M56 0zM200 122q44 -55 140 -55q73 0 160 41l29 -78q-91 -47 -197 -47q-88 0 -150 37t-94 103t-32 154q0 93 33.5 158.5t90.5 99.5t128 34q109 0 171 -68t62 -195v-37h-387q2 -92 46 -147zM160 348h282q-5 70 -38 103.5t-96 33.5q-124 0 -148 -137zM262 794h94v-124h-94
v124z" />
    <glyph glyph-name="Eogonek" unicode="&#x118;" horiz-adv-x="631" 
d="M107 0zM571 84v-84h-464v758h459v-84h-362v-251h312v-84h-312v-255h367zM423.5 -212q-29.5 24 -29.5 65q0 39 23 75t70 72h85q-48 -37 -74 -69t-26 -65q0 -18 12 -28.5t35 -10.5q28 0 53 12v-63q-28 -12 -62 -12q-57 0 -86.5 24z" />
    <glyph glyph-name="eogonek" unicode="&#x119;" horiz-adv-x="585" 
d="M200 122q44 -55 140 -55q73 0 160 41l29 -78l-35 -16q-56 -41 -86 -76t-30 -72q0 -18 12 -28.5t35 -10.5q28 0 53 12v-63q-28 -12 -62 -12q-57 0 -86.5 24t-29.5 65q0 69 71 132q-26 -2 -39 -2q-88 0 -150 37t-94 103t-32 154q0 93 33.5 158.5t90.5 99.5t128 34
q109 0 171 -68t62 -195v-37h-387q2 -92 46 -147zM160 348h282q-5 70 -38 103.5t-96 33.5q-124 0 -148 -137z" />
    <glyph glyph-name="Ecaron" unicode="&#x11a;" horiz-adv-x="631" 
d="M107 0zM571 84v-84h-464v758h459v-84h-362v-251h312v-84h-312v-255h367zM504 989l-111 -153h-115l-111 153h101l68 -109l67 109h101z" />
    <glyph glyph-name="ecaron" unicode="&#x11b;" horiz-adv-x="585" 
d="M56 0zM200 122q44 -55 140 -55q73 0 160 41l29 -78q-91 -47 -197 -47q-88 0 -150 37t-94 103t-32 154q0 93 33.5 158.5t90.5 99.5t128 34q109 0 171 -68t62 -195v-37h-387q2 -92 46 -147zM160 348h282q-5 70 -38 103.5t-96 33.5q-124 0 -148 -137zM476 809l-111 -153
h-115l-111 153h101l68 -109l67 109h101z" />
    <glyph glyph-name="Gbreve" unicode="&#x11e;" horiz-adv-x="772" 
d="M56 0zM688 463v-410q-59 -34 -129.5 -52t-131.5 -18q-120 0 -203.5 49.5t-125.5 138.5t-42 207q0 112 40.5 201t124 141t206.5 52q66 0 111.5 -12.5t102.5 -37.5v-92q-51 28 -100.5 42.5t-113.5 14.5q-85 0 -146 -39t-93 -108.5t-32 -158.5q0 -93 31.5 -163.5t92.5 -110
t147 -39.5q43 0 82 10t83 28v270h-282v87h378zM297.5 870.5q-42.5 35.5 -42.5 105.5v11h77v-10q0 -40 19 -59t61 -19t61 19t19 59v10h77v-11q1 -70 -41 -105.5t-116 -35.5q-72 0 -114.5 35.5z" />
    <glyph glyph-name="gbreve" unicode="&#x11f;" horiz-adv-x="629" 
d="M55 0zM554 553v-564q0 -113 -52.5 -176.5t-183.5 -63.5q-64 0 -110.5 8t-95.5 28v93q46 -21 92 -31.5t85 -10.5q72 0 109 18.5t49.5 53t12.5 91.5v71q-79 -67 -160 -67q-112 0 -178.5 73t-66.5 210q0 138 67 210.5t178 72.5q80 0 160 -68v52h94zM460 152v267
q-72 62 -147 62q-78 0 -119.5 -51.5t-41.5 -143.5q0 -95 41 -145.5t120 -50.5q73 0 147 62zM203.5 690.5q-42.5 35.5 -42.5 105.5v11h77v-10q0 -40 19 -59t61 -19t61 19t19 59v10h76v-11q2 -70 -40 -105.5t-116 -35.5q-72 0 -114.5 35.5z" />
    <glyph glyph-name="Gdotaccent" unicode="&#x120;" horiz-adv-x="772" 
d="M56 0zM688 463v-410q-59 -34 -129.5 -52t-131.5 -18q-120 0 -203.5 49.5t-125.5 138.5t-42 207q0 112 40.5 201t124 141t206.5 52q66 0 111.5 -12.5t102.5 -37.5v-92q-51 28 -100.5 42.5t-113.5 14.5q-85 0 -146 -39t-93 -108.5t-32 -158.5q0 -93 31.5 -163.5t92.5 -110
t147 -39.5q43 0 82 10t83 28v270h-282v87h378zM366 974h94v-124h-94v124z" />
    <glyph glyph-name="gdotaccent" unicode="&#x121;" horiz-adv-x="629" 
d="M55 0zM554 553v-564q0 -113 -52.5 -176.5t-183.5 -63.5q-64 0 -110.5 8t-95.5 28v93q46 -21 92 -31.5t85 -10.5q72 0 109 18.5t49.5 53t12.5 91.5v71q-79 -67 -160 -67q-112 0 -178.5 73t-66.5 210q0 138 67 210.5t178 72.5q80 0 160 -68v52h94zM460 152v267
q-72 62 -147 62q-78 0 -119.5 -51.5t-41.5 -143.5q0 -95 41 -145.5t120 -50.5q73 0 147 62zM272 794h94v-124h-94v124z" />
    <glyph glyph-name="Gcommaaccent" unicode="&#x122;" horiz-adv-x="772" 
d="M56 0zM688 463v-410q-59 -34 -129.5 -52t-131.5 -18q-120 0 -203.5 49.5t-125.5 138.5t-42 207q0 112 40.5 201t124 141t206.5 52q66 0 111.5 -12.5t102.5 -37.5v-92q-51 28 -100.5 42.5t-113.5 14.5q-85 0 -146 -39t-93 -108.5t-32 -158.5q0 -93 31.5 -163.5t92.5 -110
t147 -39.5q43 0 82 10t83 28v270h-282v87h378zM369 -80h100l-41 -166h-91z" />
    <glyph glyph-name="gcommaaccent" unicode="&#x123;" horiz-adv-x="629" 
d="M55 0zM554 553v-564q0 -113 -52.5 -176.5t-183.5 -63.5q-64 0 -110.5 8t-95.5 28v93q46 -21 92 -31.5t85 -10.5q72 0 109 18.5t49.5 53t12.5 91.5v71q-79 -67 -160 -67q-112 0 -178.5 73t-66.5 210q0 138 67 210.5t178 72.5q80 0 160 -68v52h94zM460 152v267
q-72 62 -147 62q-78 0 -119.5 -51.5t-41.5 -143.5q0 -95 41 -145.5t120 -50.5q73 0 147 62zM309 843h91l-32 -166h-100z" />
    <glyph glyph-name="Hbar" unicode="&#x126;" horiz-adv-x="775" 
d="M683 758v-758h-97v337h-382v-337h-97v758h97v-127h382v127h97zM586 425v121h-382v-121h382z" />
    <glyph glyph-name="hbar" unicode="&#x127;" horiz-adv-x="639" 
d="M504.5 511q49.5 -54 49.5 -178v-333h-94v333q0 78 -26.5 111t-93.5 33q-78 0 -156 -68v-409h-94v653h-66v74h66v119h94v-119h174v-74h-174v-159q81 71 169 71q102 0 151.5 -54z" />
    <glyph glyph-name="Imacron" unicode="&#x12a;" horiz-adv-x="311" 
d="M0 0zM107 758h97v-758h-97v758zM0 947h309v-68h-309v68z" />
    <glyph glyph-name="imacron" unicode="&#x12b;" horiz-adv-x="274" 
d="M0 0zM90 553h94v-553h-94v553zM-19 767h309v-68h-309v68z" />
    <glyph glyph-name="Iogonek" unicode="&#x12e;" horiz-adv-x="311" 
d="M204 758v-758h-7q-48 -37 -74 -69t-26 -65q0 -18 12 -28.5t35 -10.5q28 0 53 12v-63q-28 -12 -62 -12q-57 0 -86.5 24t-29.5 65q0 39 24 75t71 72h-7v758h97z" />
    <glyph glyph-name="iogonek" unicode="&#x12f;" horiz-adv-x="274" 
d="M184 808v-151h-94v151h94zM90 553h94v-553h-6q-48 -37 -73.5 -69t-25.5 -65q0 -18 11.5 -28.5t34.5 -10.5q28 0 53 12v-63q-28 -12 -62 -12q-57 0 -85.5 24t-28.5 65q0 39 23.5 75t71.5 72h-7v553z" />
    <glyph glyph-name="Idotaccent" unicode="&#x130;" horiz-adv-x="311" 
d="M107 0zM107 758h97v-758h-97v758zM109 974h94v-124h-94v124z" />
    <glyph glyph-name="dotlessi" unicode="&#x131;" horiz-adv-x="274" 
d="M90 553h94v-553h-94v553z" />
    <glyph glyph-name="IJ" unicode="&#x132;" horiz-adv-x="631" 
d="M107 0zM107 758h97v-758h-97v758zM319 -109v86q20 -4 48 -4q25 0 37.5 8.5t18 31t5.5 66.5v679h97v-685q0 -76 -13 -115.5t-44 -55.5t-92 -16q-33 0 -57 5z" />
    <glyph glyph-name="ij" unicode="&#x133;" horiz-adv-x="548" 
d="M90 0zM90 808h94v-151h-94v151zM90 553h94v-553h-94v553zM364 808h94v-151h-94v151zM254 -243v85q19 -5 50 -5q24 0 37 8t18 28t5 59v622h94v-647q0 -87 -31.5 -122.5t-109.5 -35.5q-26 0 -63 8z" />
    <glyph glyph-name="Kcommaaccent" unicode="&#x136;" horiz-adv-x="687" 
d="M107 0zM256 342l-52 -55v-287h-97v758h97v-339l322 339h123l-327 -346l332 -412h-125zM285 -80h100l-41 -166h-91z" />
    <glyph glyph-name="kcommaaccent" unicode="&#x137;" horiz-adv-x="584" 
d="M90 0zM244 255l-60 -61v-194h-94v846h94v-533l226 233h118l-220 -226l252 -320h-114zM246 -80h100l-41 -166h-91z" />
    <glyph glyph-name="Lacute" unicode="&#x139;" horiz-adv-x="561" 
d="M103 0zM521 87v-87h-414v758h97v-671h317zM208 989h111l-121 -153h-95z" />
    <glyph glyph-name="lacute" unicode="&#x13a;" horiz-adv-x="319" 
d="M84 0zM123 17q-33 30 -33 101v728h94v-703q0 -40 12.5 -54.5t47.5 -14.5q28 0 50 6v-86q-40 -7 -63 -7q-75 0 -108 30zM189 1109h111l-121 -153h-95z" />
    <glyph glyph-name="Lcommaaccent" unicode="&#x13b;" horiz-adv-x="561" 
d="M107 0zM521 87v-87h-414v758h97v-671h317zM260 -80h100l-41 -166h-91z" />
    <glyph glyph-name="lcommaaccent" unicode="&#x13c;" horiz-adv-x="319" 
d="M90 0zM123 17q-33 30 -33 101v728h94v-703q0 -40 12.5 -54.5t47.5 -14.5q28 0 50 6v-86q-40 -7 -63 -7q-75 0 -108 30zM155 -80h100l-41 -166h-91z" />
    <glyph glyph-name="Lcaron" unicode="&#x13d;" horiz-adv-x="561" 
d="M107 0zM521 87v-87h-414v758h97v-671h317zM329 758h94l-63 -202h-81z" />
    <glyph glyph-name="lcaron" unicode="&#x13e;" horiz-adv-x="319" 
d="M90 0zM123 17q-33 30 -33 101v728h94v-703q0 -40 12.5 -54.5t47.5 -14.5q28 0 50 6v-86q-40 -7 -63 -7q-75 0 -108 30zM301 758h94l-63 -202h-81z" />
    <glyph glyph-name="Ldot" unicode="&#x13f;" horiz-adv-x="561" 
d="M521 87v-87h-414v758h97v-671h317zM454 306h-104v161h104v-161z" />
    <glyph glyph-name="ldot" unicode="&#x140;" horiz-adv-x="319" 
d="M90 0zM123 17q-33 30 -33 101v728h94v-703q0 -40 12.5 -54.5t47.5 -14.5q28 0 50 6v-86q-40 -7 -63 -7q-75 0 -108 30zM235 423h104v-161h-104v161z" />
    <glyph glyph-name="Lslash" unicode="&#x141;" horiz-adv-x="561" 
d="M521 87v-87h-414v272l-97 -39v86l97 39v400h97v-361l238 96v-86l-238 -96v-224h317z" />
    <glyph glyph-name="lslash" unicode="&#x142;" horiz-adv-x="319" 
d="M294 80v-86q-40 -7 -63 -7q-75 0 -108 30t-33 101v251l-82 -29v84l82 29v393h94v-360l108 38v-84l-108 -38v-259q0 -40 12.5 -54.5t47.5 -14.5q28 0 50 6z" />
    <glyph glyph-name="Nacute" unicode="&#x143;" horiz-adv-x="790" 
d="M107 0zM683 758v-758h-106l-373 595v-595h-97v758h105l374 -595v595h97zM460 989h111l-121 -153h-95z" />
    <glyph glyph-name="nacute" unicode="&#x144;" horiz-adv-x="639" 
d="M90 0zM504.5 511q49.5 -54 49.5 -178v-333h-94v333q0 78 -26.5 111t-93.5 33q-78 0 -156 -68v-409h-94v553h94v-59q82 71 169 71q102 0 151.5 -54zM377 809h111l-121 -153h-95z" />
    <glyph glyph-name="Ncommaaccent" unicode="&#x145;" horiz-adv-x="790" 
d="M107 0zM683 758v-758h-106l-373 595v-595h-97v758h105l374 -595v595h97zM314 -80h100l-41 -166h-91z" />
    <glyph glyph-name="ncommaaccent" unicode="&#x146;" horiz-adv-x="639" 
d="M90 0zM504.5 511q49.5 -54 49.5 -178v-333h-94v333q0 78 -26.5 111t-93.5 33q-78 0 -156 -68v-409h-94v553h94v-59q82 71 169 71q102 0 151.5 -54zM275 -80h100l-41 -166h-91z" />
    <glyph glyph-name="Ncaron" unicode="&#x147;" horiz-adv-x="790" 
d="M0 0zM683 758v-758h-106l-373 595v-595h-97v758h105l374 -595v595h97zM0 979h94l-63 -202h-81z" />
    <glyph glyph-name="ncaron" unicode="&#x148;" horiz-adv-x="639" 
d="M0 0zM504.5 511q49.5 -54 49.5 -178v-333h-94v333q0 78 -26.5 111t-93.5 33q-78 0 -156 -68v-409h-94v553h94v-59q82 71 169 71q102 0 151.5 -54zM-12 758h94l-63 -202h-81z" />
    <glyph glyph-name="Eng" unicode="&#x14a;" horiz-adv-x="775" 
d="M683 758v-765q0 -76 -13 -115.5t-44 -55.5t-92 -16q-33 0 -57 5v86q20 -4 48 -4q25 0 37.5 8.5t18 31t5.5 66.5v4l-382 593v-596h-97v758h105l374 -585v585h97z" />
    <glyph glyph-name="eng" unicode="&#x14b;" horiz-adv-x="631" 
d="M504.5 511q49.5 -54 49.5 -178v-426q0 -87 -31.5 -122.5t-109.5 -35.5q-28 0 -63 8v85q19 -5 50 -5q24 0 36.5 8t18 28t5.5 59v401q0 78 -26.5 111t-93.5 33q-78 0 -156 -68v-409h-94v553h94v-59q82 71 169 71q102 0 151.5 -54z" />
    <glyph glyph-name="Omacron" unicode="&#x14c;" horiz-adv-x="836" 
d="M56 0zM219.5 34.5q-81.5 51.5 -122.5 141t-41 202.5q0 111 41 200t122.5 141.5t198.5 52.5q116 0 197 -52.5t122.5 -142t41.5 -199.5q0 -113 -41 -202.5t-122.5 -141t-197.5 -51.5q-117 0 -198.5 51.5zM559 109q59 41 89.5 112t30.5 160q0 86 -31 155.5t-90 110
t-140 40.5q-84 0 -143 -41t-89 -111t-30 -157q0 -89 30 -159t89 -110.5t143 -40.5q82 0 141 41zM263 947h309v-68h-309v68z" />
    <glyph glyph-name="omacron" unicode="&#x14d;" horiz-adv-x="657" 
d="M56 0zM179.5 21.5q-61.5 38.5 -92.5 105t-31 149.5t31 149.5t92.5 105t149.5 38.5t149.5 -38.5t92 -105t30.5 -149.5t-30.5 -149.5t-92 -105t-149.5 -38.5t-149.5 38.5zM457.5 126q45.5 58 45.5 150t-45.5 149.5t-128.5 57.5t-129 -57.5t-46 -149.5t46 -150t129 -58
t128.5 58zM173 767h309v-68h-309v68z" />
    <glyph glyph-name="Ohungarumlaut" unicode="&#x150;" horiz-adv-x="836" 
d="M56 0zM219.5 34.5q-81.5 51.5 -122.5 141t-41 202.5q0 111 41 200t122.5 141.5t198.5 52.5q116 0 197 -52.5t122.5 -142t41.5 -199.5q0 -113 -41 -202.5t-122.5 -141t-197.5 -51.5q-117 0 -198.5 51.5zM559 109q59 41 89.5 112t30.5 160q0 86 -31 155.5t-90 110
t-140 40.5q-84 0 -143 -41t-89 -111t-30 -157q0 -89 30 -159t89 -110.5t143 -40.5q82 0 141 41zM569 989h104l-121 -153h-88zM380 989h105l-121 -153h-88z" />
    <glyph glyph-name="ohungarumlaut" unicode="&#x151;" horiz-adv-x="657" 
d="M56 0zM179.5 21.5q-61.5 38.5 -92.5 105t-31 149.5t31 149.5t92.5 105t149.5 38.5t149.5 -38.5t92 -105t30.5 -149.5t-30.5 -149.5t-92 -105t-149.5 -38.5t-149.5 38.5zM457.5 126q45.5 58 45.5 150t-45.5 149.5t-128.5 57.5t-129 -57.5t-46 -149.5t46 -150t129 -58
t128.5 58zM479 809h105l-121 -153h-88zM291 809h105l-121 -153h-89z" />
    <glyph glyph-name="OE" unicode="&#x152;" horiz-adv-x="1117" 
d="M1057 84v-84h-620q-187 0 -282 96.5t-95 283.5q0 188 94.5 283t282.5 95h615v-84h-362v-251h312v-84h-312v-255h367zM593 85v588h-156q-139 0 -208.5 -71t-69.5 -225q0 -150 70 -221t208 -71h156z" />
    <glyph glyph-name="oe" unicode="&#x153;" horiz-adv-x="1032" 
d="M647 122q44 -55 140 -55q73 0 160 41l29 -78q-91 -47 -197 -47q-80 0 -137.5 32.5t-89.5 92.5q-33 -59 -90 -92t-136 -33q-87 0 -148 38.5t-91.5 105t-30.5 149.5t30.5 149.5t91.5 105t148 38.5q78 0 135 -32.5t90 -90.5q32 60 86.5 91.5t120.5 31.5q107 0 168.5 -68
t61.5 -195v-37h-387q2 -92 46 -147zM607 348h282q-5 70 -38 103.5t-96 33.5q-124 0 -148 -137zM457.5 126q45.5 58 45.5 150t-45.5 149.5t-128.5 57.5t-129 -57.5t-46 -149.5t46 -150t129 -58t128.5 58z" />
    <glyph glyph-name="Racute" unicode="&#x154;" horiz-adv-x="706" 
d="M107 0zM351 321h-147v-321h-97v758h265q248 0 248 -220q0 -87 -41.5 -140.5t-124.5 -69.5l203 -328h-111zM204 406h168q148 0 149 132q0 70 -37 102.5t-112 32.5h-168v-267zM382 989h111l-121 -153h-95z" />
    <glyph glyph-name="racute" unicode="&#x155;" horiz-adv-x="404" 
d="M90 0zM374 565v-88h-23q-86 0 -167 -69v-408h-94v553h94v-62q82 74 167 74h23zM288 809h111l-121 -153h-95z" />
    <glyph glyph-name="Rcommaaccent" unicode="&#x156;" horiz-adv-x="706" 
d="M107 0zM351 321h-147v-321h-97v758h265q248 0 248 -220q0 -87 -41.5 -140.5t-124.5 -69.5l203 -328h-111zM204 406h168q148 0 149 132q0 70 -37 102.5t-112 32.5h-168v-267zM294 -80h100l-41 -166h-91z" />
    <glyph glyph-name="rcommaaccent" unicode="&#x157;" horiz-adv-x="404" 
d="M54 0zM374 565v-88h-23q-86 0 -167 -69v-408h-94v553h94v-62q82 74 167 74h23zM86 -80h100l-41 -166h-91z" />
    <glyph glyph-name="Rcaron" unicode="&#x158;" horiz-adv-x="706" 
d="M107 0zM351 321h-147v-321h-97v758h265q248 0 248 -220q0 -87 -41.5 -140.5t-124.5 -69.5l203 -328h-111zM204 406h168q148 0 149 132q0 70 -37 102.5t-112 32.5h-168v-267zM496 989l-111 -153h-115l-111 153h101l68 -109l67 109h101z" />
    <glyph glyph-name="rcaron" unicode="&#x159;" horiz-adv-x="404" 
d="M65 0zM374 565v-88h-23q-86 0 -167 -69v-408h-94v553h94v-62q82 74 167 74h23zM402 809l-111 -153h-115l-111 153h101l68 -109l67 109h101z" />
    <glyph glyph-name="Sacute" unicode="&#x15a;" horiz-adv-x="643" 
d="M63 0zM63 37v92q115 -61 259 -61q83 0 121.5 35t38.5 92q0 54 -35.5 81t-104.5 47l-68 19q-58 17 -99 39t-68.5 63.5t-27.5 108.5q0 107 62.5 163t177.5 56q67 0 118 -12.5t106 -37.5v-90q-102 55 -224 55q-74 0 -108 -34.5t-34 -94.5q1 -55 33.5 -81t101.5 -46l69 -19
q61 -17 103.5 -39.5t69 -65t26.5 -110.5q-1 -99 -69.5 -156.5t-188.5 -57.5q-145 0 -259 54zM381 989h111l-121 -153h-95z" />
    <glyph glyph-name="sacute" unicode="&#x15b;" horiz-adv-x="514" 
d="M52 0zM150 -7q-47 10 -98 34v93q95 -53 206 -53q56 0 80.5 22.5t24.5 59.5q0 36 -19.5 53t-63.5 29l-65 16q-70 17 -110 54t-40 109q0 75 49 117t144 42q49 0 91 -9.5t84 -26.5v-88q-41 19 -81 29.5t-91 10.5q-53 0 -76.5 -20.5t-23.5 -51.5q0 -34 20.5 -51.5t59.5 -27.5
l66 -15q50 -12 82.5 -30t51 -50.5t18.5 -86.5q0 -81 -54.5 -125t-146.5 -44q-61 0 -108 10zM312 809h111l-121 -153h-95z" />
    <glyph glyph-name="Scedilla" unicode="&#x15e;" horiz-adv-x="643" 
d="M519 48q-60 -56 -167 -64l-15 -47h9q53 0 81 -26.5t28 -69.5q0 -47 -33 -75.5t-96 -28.5q-55 0 -99 20v64q46 -21 92 -21q31 0 46 11.5t15 28.5q0 37 -54 37q-32 0 -81 -15l36 122q-120 6 -218 53v92q115 -61 259 -61q83 0 121.5 35t38.5 92q0 54 -35.5 81t-104.5 47
l-68 19q-58 17 -99 39t-68.5 63.5t-27.5 108.5q0 107 62.5 163t177.5 56q67 0 118 -12.5t106 -37.5v-90q-102 55 -224 55q-74 0 -108 -34.5t-34 -94.5q1 -55 33.5 -81t101.5 -46l69 -19q61 -17 103.5 -39.5t69 -65t26.5 -110.5q-1 -93 -61 -149z" />
    <glyph glyph-name="scedilla" unicode="&#x15f;" horiz-adv-x="514" 
d="M413.5 35q-45.5 -43 -123.5 -51l-15 -47h9q52 0 80 -26.5t28 -69.5q0 -47 -33 -75.5t-95 -28.5q-55 0 -99 20v64q46 -21 92 -21q31 0 46 11.5t15 28.5q0 37 -54 37q-33 0 -82 -15l37 122q-45 3 -84.5 13t-82.5 30v93q95 -53 206 -53q56 0 80.5 22.5t24.5 59.5
q0 36 -19.5 53t-63.5 29l-65 16q-70 17 -110 54t-40 109q0 75 49 117t144 42q49 0 91 -9.5t84 -26.5v-88q-41 19 -81 29.5t-91 10.5q-53 0 -76.5 -20.5t-23.5 -51.5q0 -34 20.5 -51.5t59.5 -27.5l66 -15q50 -12 82.5 -30t51 -50.5t18.5 -86.5q0 -74 -45.5 -117z" />
    <glyph glyph-name="Scaron" unicode="&#x160;" horiz-adv-x="643" 
d="M63 0zM63 37v92q115 -61 259 -61q83 0 121.5 35t38.5 92q0 54 -35.5 81t-104.5 47l-68 19q-58 17 -99 39t-68.5 63.5t-27.5 108.5q0 107 62.5 163t177.5 56q67 0 118 -12.5t106 -37.5v-90q-102 55 -224 55q-74 0 -108 -34.5t-34 -94.5q1 -55 33.5 -81t101.5 -46l69 -19
q61 -17 103.5 -39.5t69 -65t26.5 -110.5q-1 -99 -69.5 -156.5t-188.5 -57.5q-145 0 -259 54zM495 989l-111 -153h-115l-111 153h101l68 -109l67 109h101z" />
    <glyph glyph-name="scaron" unicode="&#x161;" horiz-adv-x="514" 
d="M52 0zM150 -7q-47 10 -98 34v93q95 -53 206 -53q56 0 80.5 22.5t24.5 59.5q0 36 -19.5 53t-63.5 29l-65 16q-70 17 -110 54t-40 109q0 75 49 117t144 42q49 0 91 -9.5t84 -26.5v-88q-41 19 -81 29.5t-91 10.5q-53 0 -76.5 -20.5t-23.5 -51.5q0 -34 20.5 -51.5t59.5 -27.5
l66 -15q50 -12 82.5 -30t51 -50.5t18.5 -86.5q0 -81 -54.5 -125t-146.5 -44q-61 0 -108 10zM426 809l-111 -153h-115l-111 153h101l68 -109l67 109h101z" />
    <glyph glyph-name="uni0162" unicode="&#x162;" horiz-adv-x="634" 
d="M352 0l-20 -63h9q53 0 81 -26.5t28 -69.5q0 -47 -33 -75.5t-96 -28.5q-55 0 -99 20v64q46 -21 92 -21q31 0 46 11.5t15 28.5q0 37 -54 37q-32 0 -81 -15l41 138h-13v671h-228v87h554v-87h-228v-671h-14z" />
    <glyph glyph-name="uni0163" unicode="&#x163;" horiz-adv-x="373" 
d="M319 -89.5q28 -26.5 28 -69.5q0 -47 -33 -75.5t-96 -28.5q-54 0 -98 20v64q46 -21 92 -21q31 0 46 11.5t15 28.5q0 37 -55 37q-32 0 -81 -15l40 134q-37 12 -52.5 42.5t-15.5 83.5v337h-72v87h72v190h94v-190h128v-87h-128v-316q0 -40 12.5 -54.5t46.5 -14.5q30 0 64 8
v-85q-45 -10 -81 -10l-16 -50h9q53 0 81 -26.5z" />
    <glyph glyph-name="Tcaron" unicode="&#x164;" horiz-adv-x="634" 
d="M40 0zM594 671h-228v-671h-98v671h-228v87h554v-87zM485 989l-111 -153h-115l-111 153h101l68 -109l67 109h101z" />
    <glyph glyph-name="tcaron" unicode="&#x165;" horiz-adv-x="373" 
d="M37 0zM203 459v-316q0 -40 12.5 -54.5t46.5 -14.5q30 0 64 8v-85q-45 -10 -80 -10q-76 0 -106.5 31t-30.5 104v337h-72v87h72v190h94v-190h128v-87h-128zM309 808h94l-63 -202h-81z" />
    <glyph glyph-name="Tbar" unicode="&#x166;" horiz-adv-x="614" 
d="M362 671v-158h165v-86h-165v-427h-97v427h-165v86h165v158h-228v87h554v-87h-229z" />
    <glyph glyph-name="tbar" unicode="&#x167;" horiz-adv-x="373" 
d="M203 236v-93q0 -40 12.5 -54.5t46.5 -14.5q30 0 64 8v-85q-45 -10 -80 -10q-76 0 -106.5 31t-30.5 104v114h-71v82h71v141h-72v87h72v190h94v-190h128v-87h-128v-141h128v-82h-128z" />
    <glyph glyph-name="Umacron" unicode="&#x16a;" horiz-adv-x="784" 
d="M103 0zM175 56.5q-72 73.5 -72 208.5v493h98v-493q0 -97 48 -147t143 -50t143 50t48 147v493h98v-493q0 -135 -72 -208.5t-217 -73.5t-217 73.5zM237 947h309v-68h-309v68z" />
    <glyph glyph-name="umacron" unicode="&#x16b;" horiz-adv-x="639" 
d="M85 0zM549 553v-553h-94v59q-82 -71 -169 -71q-102 0 -151.5 54t-49.5 177v334h94v-334q0 -78 26.5 -111t93.5 -33q78 0 156 68v410h94zM161 767h309v-68h-309v68z" />
    <glyph glyph-name="Uring" unicode="&#x16e;" horiz-adv-x="784" 
d="M103 0zM175 56.5q-72 73.5 -72 208.5v493h98v-493q0 -97 48 -147t143 -50t143 50t48 147v493h98v-493q0 -135 -72 -208.5t-217 -73.5t-217 73.5zM317 846q-28 26 -28 66t27.5 65.5t75.5 25.5q47 0 74.5 -25.5t27.5 -65.5t-27.5 -66t-74.5 -26t-75 26zM424 880
q12 12 12 32t-12 32t-32 12t-32.5 -12t-12.5 -32t12.5 -32t32.5 -12t32 12z" />
    <glyph glyph-name="uring" unicode="&#x16f;" horiz-adv-x="639" 
d="M85 0zM549 553v-553h-94v59q-82 -71 -169 -71q-102 0 -151.5 54t-49.5 177v334h94v-334q0 -78 26.5 -111t93.5 -33q78 0 156 68v410h94zM241 666q-28 26 -28 66t27.5 65.5t75.5 25.5q47 0 74.5 -25.5t27.5 -65.5t-27.5 -66t-74.5 -26t-75 26zM348 700q12 12 12 32t-12 32
t-32 12t-32.5 -12t-12.5 -32t12.5 -32t32.5 -12t32 12z" />
    <glyph glyph-name="Uhungarumlaut" unicode="&#x170;" horiz-adv-x="784" 
d="M103 0zM175 56.5q-72 73.5 -72 208.5v493h98v-493q0 -97 48 -147t143 -50t143 50t48 147v493h98v-493q0 -135 -72 -208.5t-217 -73.5t-217 73.5zM543 989h104l-121 -153h-88zM354 989h105l-121 -153h-88z" />
    <glyph glyph-name="uhungarumlaut" unicode="&#x171;" horiz-adv-x="639" 
d="M85 0zM549 553v-553h-94v59q-82 -71 -169 -71q-102 0 -151.5 54t-49.5 177v334h94v-334q0 -78 26.5 -111t93.5 -33q78 0 156 68v410h94zM467 809h105l-121 -153h-88zM279 809h105l-121 -153h-89z" />
    <glyph glyph-name="Uogonek" unicode="&#x172;" horiz-adv-x="784" 
d="M681 758v-493q0 -116 -53 -187t-161 -89q-42 -35 -64 -64t-22 -59q0 -18 12 -28.5t36 -10.5q27 0 52 12v-63q-28 -12 -62 -12q-57 0 -86 24t-29 65q0 67 72 130q-137 4 -205 77.5t-68 204.5v493h98v-493q0 -97 48 -147t143 -50t143 50t48 147v493h98z" />
    <glyph glyph-name="uogonek" unicode="&#x173;" horiz-adv-x="639" 
d="M549 553v-553q-48 -37 -73.5 -69t-25.5 -65q0 -18 11.5 -28.5t34.5 -10.5q28 0 53 12v-63q-28 -12 -62 -12q-57 0 -85.5 24t-28.5 65q0 39 23.5 75t71.5 72h-13v59q-82 -71 -169 -71q-102 0 -151.5 54t-49.5 177v334h94v-334q0 -78 26.5 -111t93.5 -33q78 0 156 68v410
h94z" />
    <glyph glyph-name="Wcircumflex" unicode="&#x174;" horiz-adv-x="1098" 
d="M40 0zM1058 758l-218 -767h-108l-183 623l-182 -623h-108l-219 767h98l176 -636l180 636h110l181 -637l175 637h98zM616 836l-67 109l-68 -109h-101l111 153h115l111 -153h-101z" />
    <glyph glyph-name="wcircumflex" unicode="&#x175;" horiz-adv-x="862" 
d="M23 0zM839 553l-170 -562h-101l-137 424l-136 -424h-101l-171 562h98l124 -439l132 439h108l133 -439l123 439h98zM497 656l-67 109l-68 -109h-101l111 153h115l111 -153h-101z" />
    <glyph glyph-name="Ycircumflex" unicode="&#x176;" horiz-adv-x="713" 
d="M30 0zM404 293v-293h-96v293l-278 465h100l226 -383l227 383h100zM423 836l-67 109l-68 -109h-101l111 153h115l111 -153h-101z" />
    <glyph glyph-name="ycircumflex" unicode="&#x177;" horiz-adv-x="555" 
d="M20 0zM535 553l-245 -642q-26 -68 -47 -101t-49.5 -47t-78.5 -14q-29 0 -59 8v85q26 -6 52 -6q34 0 53.5 20t42.5 79l26 67l-210 551h98l159 -428l163 428h95zM344 656l-67 109l-68 -109h-101l111 153h115l111 -153h-101z" />
    <glyph glyph-name="Ydieresis" unicode="&#x178;" horiz-adv-x="713" 
d="M30 0zM404 293v-293h-96v293l-278 465h100l226 -383l227 383h100zM415 974h87v-124h-87v124zM211 974h88v-124h-88v124z" />
    <glyph glyph-name="Zacute" unicode="&#x179;" horiz-adv-x="718" 
d="M80 0zM645 87v-87h-565v85l413 586h-400v87h519v-85l-413 -586h446zM411 989h111l-121 -153h-95z" />
    <glyph glyph-name="zacute" unicode="&#x17a;" horiz-adv-x="536" 
d="M66 0zM483 85v-85h-417v85l291 382h-273v86h377v-86l-290 -382h312zM316 809h111l-121 -153h-95z" />
    <glyph glyph-name="Zdotaccent" unicode="&#x17b;" horiz-adv-x="718" 
d="M80 0zM645 87v-87h-565v85l413 586h-400v87h519v-85l-413 -586h446zM310 974h94v-124h-94v124z" />
    <glyph glyph-name="zdotaccent" unicode="&#x17c;" horiz-adv-x="536" 
d="M66 0zM483 85v-85h-417v85l291 382h-273v86h377v-86l-290 -382h312zM217 794h94v-124h-94v124z" />
    <glyph glyph-name="Zcaron" unicode="&#x17d;" horiz-adv-x="718" 
d="M80 0zM645 87v-87h-565v85l413 586h-400v87h519v-85l-413 -586h446zM524 989l-111 -153h-115l-111 153h101l68 -109l67 109h101z" />
    <glyph glyph-name="zcaron" unicode="&#x17e;" horiz-adv-x="536" 
d="M66 0zM483 85v-85h-417v85l291 382h-273v86h377v-86l-290 -382h312zM431 809l-111 -153h-115l-111 153h101l68 -109l67 109h101z" />
    <glyph glyph-name="florin" unicode="&#x192;" horiz-adv-x="550" 
d="M344 758.5q-12 -13.5 -17 -52.5l-16 -160h113l-17 -87h-105l-72 -693h-94l72 693h-96v87h105l17 166q6 57 21.5 88.5t48 45t89.5 13.5q24 0 47 -4v-88q-21 5 -50 5q-34 0 -46 -13.5z" />
    <glyph glyph-name="Scommaaccent" unicode="&#x218;" horiz-adv-x="643" 
d="M63 0zM63 37v92q115 -61 259 -61q83 0 121.5 35t38.5 92q0 54 -35.5 81t-104.5 47l-68 19q-58 17 -99 39t-68.5 63.5t-27.5 108.5q0 107 62.5 163t177.5 56q67 0 118 -12.5t106 -37.5v-90q-102 55 -224 55q-74 0 -108 -34.5t-34 -94.5q1 -55 33.5 -81t101.5 -46l69 -19
q61 -17 103.5 -39.5t69 -65t26.5 -110.5q-1 -99 -69.5 -156.5t-188.5 -57.5q-145 0 -259 54zM268 -80h100l-41 -166h-91z" />
    <glyph glyph-name="scommaaccent" unicode="&#x219;" horiz-adv-x="514" 
d="M52 0zM150 -7q-47 10 -98 34v93q95 -53 206 -53q56 0 80.5 22.5t24.5 59.5q0 36 -19.5 53t-63.5 29l-65 16q-70 17 -110 54t-40 109q0 75 49 117t144 42q49 0 91 -9.5t84 -26.5v-88q-41 19 -81 29.5t-91 10.5q-53 0 -76.5 -20.5t-23.5 -51.5q0 -34 20.5 -51.5t59.5 -27.5
l66 -15q50 -12 82.5 -30t51 -50.5t18.5 -86.5q0 -81 -54.5 -125t-146.5 -44q-61 0 -108 10zM206 -80h100l-41 -166h-91z" />
    <glyph glyph-name="uni021A" unicode="&#x21a;" horiz-adv-x="634" 
d="M40 0zM594 671h-228v-671h-98v671h-228v87h554v-87zM263 -80h100l-41 -166h-91z" />
    <glyph glyph-name="uni021B" unicode="&#x21b;" horiz-adv-x="373" 
d="M37 0zM203 459v-316q0 -40 12.5 -54.5t46.5 -14.5q30 0 64 8v-85q-45 -10 -80 -10q-76 0 -106.5 31t-30.5 104v337h-72v87h72v190h94v-190h128v-87h-128zM160 -80h100l-41 -166h-91z" />
    <glyph glyph-name="uni0237" unicode="&#x237;" horiz-adv-x="274" 
d="M-20 -243v85q19 -5 50 -5q24 0 37 8t18 28t5 59v622h94v-647q0 -87 -31.5 -122.5t-109.5 -35.5q-26 0 -63 8z" />
    <glyph glyph-name="circumflex" unicode="&#x2c6;" horiz-adv-x="649" 
d="M392 656l-67 109l-68 -109h-101l111 153h115l111 -153h-101z" />
    <glyph glyph-name="caron" unicode="&#x2c7;" horiz-adv-x="649" 
d="M493 809l-111 -153h-115l-111 153h101l68 -109l67 109h101z" />
    <glyph glyph-name="breve" unicode="&#x2d8;" horiz-adv-x="649" 
d="M211.5 690.5q-42.5 35.5 -42.5 105.5v11h77v-10q0 -40 19 -59t61 -19t61 19t19 59v10h76v-11q2 -70 -40 -105.5t-116 -35.5q-72 0 -114.5 35.5z" />
    <glyph glyph-name="dotaccent" unicode="&#x2d9;" horiz-adv-x="649" 
d="M279 794h94v-124h-94v124z" />
    <glyph glyph-name="ring" unicode="&#x2da;" horiz-adv-x="649" 
d="M250 666q-28 26 -28 66t27.5 65.5t75.5 25.5q47 0 74.5 -25.5t27.5 -65.5t-27.5 -66t-74.5 -26t-75 26zM357 700q12 12 12 32t-12 32t-32 12t-32.5 -12t-12.5 -32t12.5 -32t32.5 -12t32 12z" />
    <glyph glyph-name="ogonek" unicode="&#x2db;" horiz-adv-x="649" 
d="M238.5 -212q-29.5 24 -29.5 65q0 39 23 75t70 72h85q-48 -37 -74 -69t-26 -65q0 -18 12 -28.5t35 -10.5q28 0 53 12v-63q-28 -12 -62 -12q-57 0 -86.5 24z" />
    <glyph glyph-name="tilde" unicode="&#x2dc;" horiz-adv-x="649" 
d="M191.5 760q23.5 26 60.5 26q26 0 58 -15l37 -17q23 -10 34 -10q27 0 27 42h74q-3 -113 -85 -113q-30 0 -58 15l-37 17q-10 4 -18.5 7t-15.5 3q-27 0 -27 -42h-74q1 61 24.5 87z" />
    <glyph glyph-name="hungarumlaut" unicode="&#x2dd;" horiz-adv-x="649" 
d="M456 809h105l-121 -153h-88zM268 809h105l-121 -153h-89z" />
    <glyph glyph-name="uni0326" unicode="&#x326;" horiz-adv-x="649" 
d="M-373 -80h100l-41 -166h-91z" />
    <glyph glyph-name="uni0901" unicode="&#x901;" horiz-adv-x="0" 
d="M0 710zM-284 751.5q-50 41.5 -50 120.5v14h78v-14q0 -91 118 -91t118 91v14h78v-14q0 -79 -50 -120.5t-146 -41.5t-146 41.5zM-206 932l68 69l68 -69l-68 -67z" />
    <glyph glyph-name="uni0902" unicode="&#x902;" horiz-adv-x="0" 
d="M-206 768l68 69l68 -69l-68 -67z" />
    <glyph glyph-name="uni0903" unicode="&#x903;" horiz-adv-x="302" 
d="M82 433l69 68l68 -68l-68 -67zM82 98l69 68l68 -68l-68 -68z" />
    <glyph glyph-name="uni0904" unicode="&#x904;" horiz-adv-x="725" 
d="M735 647v-70h-110v-577h-87v231h-182q1 -5 1 -16q0 -93 -71.5 -134t-182.5 -41h-58v71h58q72 0 119.5 23.5t47.5 87.5q0 46 -30.5 69t-97.5 23h-51v71h52q64 0 95.5 28t31.5 74q0 50 -34 70t-103 20h-57v70h57q114 0 169 -35t55 -117q0 -49 -22.5 -84.5t-68.5 -58.5
q43 -14 67 -50h205v275h-121v70h121v40q0 40 -9 62t-33.5 33t-72.5 11h-167q-82 0 -127 19t-63 57.5t-18 103.5v21h87v-21q0 -43 8 -65t34 -33t79 -11h167q86 0 129 -18.5t58 -55.5t15 -103v-40h110z" />
    <glyph glyph-name="uni0905" unicode="&#x905;" horiz-adv-x="725" 
d="M735 647v-70h-110v-577h-87v231h-182q1 -5 1 -16q0 -93 -71.5 -134t-182.5 -41h-58v71h58q72 0 119.5 23.5t47.5 87.5q0 46 -30.5 69t-97.5 23h-51v71h52q64 0 95.5 28t31.5 74q0 50 -34 70t-103 20h-57v70h57q114 0 169 -35t55 -117q0 -49 -22.5 -84.5t-68.5 -58.5
q43 -14 67 -50h205v275h-121v70h318z" />
    <glyph glyph-name="uni0906" unicode="&#x906;" horiz-adv-x="1013" 
d="M1023 577h-110v-577h-88v577h-90h-110v-577h-87v231h-182q1 -5 1 -16q0 -93 -71.5 -134t-182.5 -41h-58v71h58q72 0 119.5 23.5t47.5 87.5q0 46 -30.5 69t-97.5 23h-51v71h52q64 0 95.5 28t31.5 74q0 50 -34 70t-103 20h-57v70h57q114 0 169 -35t55 -117
q0 -49 -22.5 -84.5t-68.5 -58.5q43 -14 67 -50h205v275h-121v70h318h288v-70z" />
    <glyph glyph-name="uni0907" unicode="&#x907;" horiz-adv-x="519" 
d="M168 399q-18 -12 -18 -43q0 -19 7.5 -34t17.5 -22h119q180 0 180 -143q0 -75 -46.5 -113t-132.5 -38h-12q-76 0 -136 27v-95h-81v236h81v-67q60 -30 132 -30h13q95 0 95 75q0 41 -23.5 59t-69.5 18h-164q-24 19 -45.5 55t-21.5 77q0 66 39 93.5t122 27.5h93v95h-327v70
h539v-70h-125v-166h-180q-38 0 -56 -12z" />
    <glyph glyph-name="uni0908" unicode="&#x908;" horiz-adv-x="519" 
d="M168 399q-18 -12 -18 -43q0 -19 7.5 -34t17.5 -22h119q180 0 180 -143q0 -75 -46.5 -113t-132.5 -38h-12q-76 0 -136 27v-95h-81v236h81v-67q60 -30 132 -30h13q95 0 95 75q0 41 -23.5 59t-69.5 18h-164q-24 19 -45.5 55t-21.5 77q0 66 39 93.5t122 27.5h93v95h-327v70
h328q-40 85 -40 157q0 77 45.5 111t108.5 34q44 0 72 -13v-74q-30 16 -63 16q-34 0 -55 -19.5t-21 -63.5q0 -35 10 -68t31 -80h123v-70h-125v-166h-180q-38 0 -56 -12z" />
    <glyph glyph-name="uni0909" unicode="&#x909;" horiz-adv-x="567" 
d="M578 577h-119q34 -36 34 -99q0 -48 -22 -81.5t-70 -53.5q47 -16 69.5 -59t22.5 -100q0 -184 -221 -184t-221 188v50h88v-50q0 -67 35.5 -92t97.5 -25t97.5 25t35.5 92q0 60 -29.5 90t-94.5 30h-71v70h72q62 0 92.5 29.5t30.5 74.5q0 35 -15 55t-53 40h-347v70h588v-70z
" />
    <glyph glyph-name="uni090A" unicode="&#x90a;" horiz-adv-x="818" 
d="M824 577h-365q34 -36 34 -99q0 -48 -22 -81.5t-70 -53.5q42 -15 66 -54q33 21 65.5 32t71.5 11q90 0 132.5 -36.5t42.5 -129.5q0 -90 -43.5 -128t-132.5 -38h-12q-29 0 -57 5v71q27 -5 53 -5h12q46 0 69.5 21t23.5 74q0 50 -22 72.5t-74 22.5q-34 0 -59 -8t-48 -24
q4 -30 4 -45q0 -184 -221 -184t-221 188v50h88v-50q0 -67 35.5 -92t97.5 -25t97.5 25t35.5 92q0 60 -29.5 90t-94.5 30h-71v70h72q62 0 92.5 29.5t30.5 74.5q0 35 -15 55t-53 40h-347v70h834v-70z" />
    <glyph glyph-name="uni090B" unicode="&#x90b;" horiz-adv-x="836" 
d="M457 577v-223h136v123h88v-131q55 -46 85 -89t30 -93q0 -81 -57 -122.5t-147 -41.5h-30v71h30q52 0 84 23t32 70q0 35 -20.5 64t-61.5 56h-169v-284h-88v218l-260 -224l-52 58l309 265q-45 43 -82 59.5t-83 16.5q-24 0 -59 -7t-85 -20v77q97 26 147 26q48 0 85.5 -15.5
t79.5 -52.5v176h-379v70h856v-70h-389z" />
    <glyph glyph-name="uni090C" unicode="&#x90c;" horiz-adv-x="762" 
d="M586 577v-151q61 -10 94 -48.5t33 -92.5t-25.5 -93t-71.5 -84q-31 -30 -45.5 -49t-14.5 -40q0 -25 19 -40t59 -15q30 0 63.5 11.5t56.5 26.5v-76q-50 -33 -126 -33q-77 0 -118.5 34.5t-41.5 87.5q0 38 20.5 67t59.5 67q40 40 59 67.5t19 63.5q0 39 -22.5 59t-64.5 20
q-50 0 -75 -33t-26 -96v-32h-87v32q-3 129 -100 129q-99 0 -102 -129q2 -71 36.5 -115t124.5 -44h25v-71h-25q-132 0 -190 66.5t-58 163.5q0 91 46.5 145.5t135.5 54.5q107 0 150 -77q34 58 104 73v151h-508v70h796v-70h-200z" />
    <glyph glyph-name="uni090D" unicode="&#x90d;" horiz-adv-x="586" 
d="M0 27zM596 577h-96v-178q0 -89 -41 -124.5t-129 -35.5h-29v70h29q30 1 47 7.5t26.5 25.5t9.5 57v178h-222v-289q0 -88 29 -129.5t72.5 -51.5t116.5 -10h88v-70h-88q-99 0 -164 19t-103.5 76t-38.5 166v289h-113v70h606v-70zM153 751.5q-50 41.5 -50 120.5v14h78v-14
q0 -91 118 -91t118 91v14h78v-14q0 -79 -50 -120.5t-146 -41.5t-146 41.5z" />
    <glyph glyph-name="uni090E" unicode="&#x90e;" horiz-adv-x="586" 
d="M596 577h-96v-178q0 -89 -41 -124.5t-129 -35.5h-29v70h29q30 1 47 7.5t26.5 25.5t9.5 57v178h-222v-289q0 -88 29 -129.5t72.5 -51.5t116.5 -10h88v-70h-88q-99 0 -164 19t-103.5 76t-38.5 166v289h-113v70h426v40q0 40 -9 62t-33.5 33t-72.5 11h-167q-82 0 -127 19
t-63 57.5t-18 103.5v21h88v-21q0 -43 8 -65t33.5 -33t78.5 -11h167q86 0 129.5 -18.5t58.5 -55.5t15 -103v-40h92v-70z" />
    <glyph glyph-name="uni090F" unicode="&#x90f;" horiz-adv-x="586" 
d="M596 577h-96v-178q0 -89 -41 -124.5t-129 -35.5h-29v70h29q30 1 47 7.5t26.5 25.5t9.5 57v178h-222v-289q0 -88 29 -129.5t72.5 -51.5t116.5 -10h88v-70h-88q-99 0 -164 19t-103.5 76t-38.5 166v289h-113v70h606v-70z" />
    <glyph glyph-name="uni0910" unicode="&#x910;" horiz-adv-x="586" 
d="M596 577h-96v-178q0 -89 -41 -124.5t-129 -35.5h-29v70h29q30 1 47 7.5t26.5 25.5t9.5 57v178h-222v-289q0 -88 29 -129.5t72.5 -51.5t116.5 -10h88v-70h-88q-99 0 -164 19t-103.5 76t-38.5 166v289h-113v70h425l-29 128q-11 49 -34 66.5t-72 17.5h-82v71h82
q60 0 95.5 -11.5t59 -44.5t38.5 -99l30 -128h93v-70z" />
    <glyph glyph-name="uni0911" unicode="&#x911;" horiz-adv-x="1013" 
d="M45 0zM1023 577h-110v-577h-88v577h-90h-110v-577h-87v231h-182q1 -5 1 -16q0 -93 -71.5 -134t-182.5 -41h-58v71h58q72 0 119.5 23.5t47.5 87.5q0 46 -30.5 69t-97.5 23h-51v71h52q64 0 95.5 28t31.5 74q0 50 -34 70t-103 20h-57v70h57q114 0 169 -35t55 -117
q0 -49 -22.5 -84.5t-68.5 -58.5q43 -14 67 -50h205v275h-121v70h318h288v-70zM722 764.5q-50 41.5 -50 120.5v14h78v-14q0 -91 118 -91t118 91v14h78v-14q0 -79 -50 -120.5t-146 -41.5t-146 41.5z" />
    <glyph glyph-name="uni0912" unicode="&#x912;" horiz-adv-x="1013" 
d="M1023 577h-110v-577h-88v577h-90h-110v-577h-87v231h-182q1 -5 1 -16q0 -93 -71.5 -134t-182.5 -41h-58v71h58q72 0 119.5 23.5t47.5 87.5q0 46 -30.5 69t-97.5 23h-51v71h52q64 0 95.5 28t31.5 74q0 50 -34 70t-103 20h-57v70h57q114 0 169 -35t55 -117
q0 -49 -22.5 -84.5t-68.5 -58.5q43 -14 67 -50h205v275h-121v70h318h90v40q0 40 -9 62t-33.5 33t-72.5 11h-167q-82 0 -127 19t-63 57.5t-18 103.5v21h88v-21q0 -43 8 -65t33.5 -33t78.5 -11h167q86 0 129.5 -18.5t58.5 -55.5t15 -103v-40h110v-70z" />
    <glyph glyph-name="uni0913" unicode="&#x913;" horiz-adv-x="1013" 
d="M1023 577h-110v-577h-88v577h-90h-110v-577h-87v231h-182q1 -5 1 -16q0 -93 -71.5 -134t-182.5 -41h-58v71h58q72 0 119.5 23.5t47.5 87.5q0 46 -30.5 69t-97.5 23h-51v71h52q64 0 95.5 28t31.5 74q0 50 -34 70t-103 20h-57v70h57q114 0 169 -35t55 -117
q0 -49 -22.5 -84.5t-68.5 -58.5q43 -14 67 -50h205v275h-121v70h318h89l-29 128q-11 49 -34 66.5t-72 17.5h-82v71h82q60 0 95.5 -11.5t59 -44.5t38.5 -99l30 -128h111v-70z" />
    <glyph glyph-name="uni0914" unicode="&#x914;" horiz-adv-x="1013" 
d="M1023 577h-110v-577h-88v577h-90h-110v-577h-87v231h-182q1 -5 1 -16q0 -93 -71.5 -134t-182.5 -41h-58v71h58q72 0 119.5 23.5t47.5 87.5q0 46 -30.5 69t-97.5 23h-51v71h52q64 0 95.5 28t31.5 74q0 50 -34 70t-103 20h-57v70h57q114 0 169 -35t55 -117
q0 -49 -22.5 -84.5t-68.5 -58.5q43 -14 67 -50h205v275h-121v70h318h83l-52 65q-33 42 -68.5 58.5t-106.5 16.5h-92v70h92q61 0 98 -8.5t63 -28.5t56 -58l-23 101q-10 45 -35.5 61t-78.5 16h-82v71h82q59 0 95 -11t59.5 -43t37.5 -94l49 -216h111v-70z" />
    <glyph glyph-name="uni0915" unicode="&#x915;" horiz-adv-x="809" 
d="M448 577v-161q51 26 117 26h14q100 0 146.5 -35.5t46.5 -124.5q0 -87 -46 -123.5t-144 -36.5h-12q-15 0 -32 1.5t-28 3.5v70q28 -5 56 -5h12q54 0 80.5 19t26.5 71q0 37 -12.5 56.5t-36.5 26t-64 7.5h-14q-31 0 -57.5 -6t-52.5 -21v-345h-87v148q-50 -26 -117 -26h-13
q-100 0 -147 35.5t-47 124.5q0 87 46.5 123.5t144.5 36.5h12q15 0 32 -1.5t28 -3.5v-70q-28 5 -56 5h-12q-54 0 -80.5 -19t-26.5 -71q0 -37 12.5 -56.5t36.5 -26t64 -7.5h13q31 0 57.5 6t52.5 21v358h-371v70h829v-70h-371z" />
    <glyph glyph-name="uni0916" unicode="&#x916;" horiz-adv-x="860" 
d="M870 577h-110v-577h-87v178q-40 -16 -93 -16h-18q-161 0 -161 140q0 70 40.5 105t103.5 35h12q31 0 55 -4v-70q-34 4 -45 4h-12q-67 0 -67 -70q0 -42 20.5 -56t65.5 -14h16q44 0 83 16v329h-314v-182q0 -84 -47 -117t-147 -33h-6v-50q0 -70 31.5 -97t108.5 -27h165v-71
h-165q-110 0 -169 41.5t-59 153.5v234h88v-114h6q56 0 81 15.5t25 64.5v182h-281v70h880v-70z" />
    <glyph glyph-name="uni0917" unicode="&#x917;" horiz-adv-x="620" 
d="M630 577h-110v-577h-87v577h-173l1 -277q0 -57 -24.5 -87t-72.5 -30q-44 0 -75 24t-53 75l67 35q13 -31 25 -47t26 -16q12 0 16 10.5t4 35.5l-1 277h-183v70h640v-70z" />
    <glyph glyph-name="uni0918" unicode="&#x918;" horiz-adv-x="604" 
d="M614 647v-70h-110v-577h-87v143q-54 -24 -119 -24h-18q-96 0 -141.5 34.5t-45.5 117.5q0 86 54 120q-46 14 -68 43t-22 78q0 37 12 65h-79v70h624zM417 218v359h-257q-16 -20 -16 -59q1 -52 34.5 -68.5t108.5 -16.5h28v-14h8v-57h-36q-55 0 -81 -17.5t-26 -68.5
q0 -37 12.5 -55.5t34.5 -24.5t60 -7h18q65 0 112 29z" />
    <glyph glyph-name="uni0919" unicode="&#x919;" horiz-adv-x="604" 
d="M614 647v-70h-210v-147h-4v-34h-181q-37 0 -55 -12t-18 -43q0 -19 7 -34t18 -22h118q88 0 134.5 -35t46.5 -108q0 -75 -47 -113t-132 -38h-13q-78 0 -138 17.5t-115 52.5l34 67q54 -34 104 -50t111 -16h14q44 0 69 18t25 54q0 43 -23 61.5t-70 18.5h-163q-24 18 -46 54.5
t-22 77.5q0 65 39 92.5t122 27.5h98v111h-327v70h624zM521 394l68 -68l-68 -68l-69 68z" />
    <glyph glyph-name="uni091A" unicode="&#x91a;" horiz-adv-x="619" 
d="M629 647v-70h-110v-577h-87v133q-46 -21 -110 -21h-22q-98 0 -149 37t-51 123q0 71 38 111h-107v70h321v-70h-114q-25 -15 -38 -39.5t-13 -65.5q0 -57 30.5 -76.5t93.5 -19.5h18q56 0 103 24v371h-442v70h639z" />
    <glyph glyph-name="uni091B" unicode="&#x91b;" horiz-adv-x="728" 
d="M615 577v-72q40 -23 40 -87v-127q0 -148 -80.5 -211t-209.5 -63h-15q-115 0 -187.5 42.5t-72.5 138.5q0 109 72 144q-50 15 -72 46t-22 82q0 35 10.5 61t32.5 46h-121v70h748v-70h-123zM527 577h-289q-39 -15 -61 -38.5t-22 -64.5q1 -51 34.5 -70.5t109.5 -19.5h30v-70
h-21q-67 0 -98.5 -24.5t-31.5 -87.5q0 -64 49 -89.5t124 -25.5h14q202 2 202 204v124q0 19 -6.5 26.5t-24.5 7.5q-17 0 -24 -8t-7 -26v-102h-80v105q0 48 23.5 72.5t78.5 28.5v58z" />
    <glyph glyph-name="uni091C" unicode="&#x91c;" horiz-adv-x="674" 
d="M684 647v-70h-110v-577h-88v362h-99v-70q0 -97 -37 -141.5t-132 -44.5q-89 0 -128 45.5t-39 140.5v140h84v-145q0 -56 18.5 -83t64.5 -27q49 0 65.5 26t16.5 84v145h186v145h-496v70h694z" />
    <glyph glyph-name="uni091D" unicode="&#x91d;" horiz-adv-x="777" 
d="M787 577h-110v-577h-88v184h-135v-14q0 -74 -44 -112t-125 -38h-12q-69 0 -126 22v-90h-81v235h81v-72q55 -25 122 -25h13q40 0 62.5 18.5t22.5 56.5q0 41 -21 59.5t-62 18.5h-154q-24 18 -45.5 54t-21.5 78q0 65 39 92.5t122 27.5h73v82h-307v70h797v-70zM589 577h-205
v-153h-160q-38 0 -56 -11.5t-18 -42.5q0 -19 7 -34t18 -23h109q109 0 148 -59h157v323z" />
    <glyph glyph-name="uni091E" unicode="&#x91e;" horiz-adv-x="587" 
d="M597 647v-70h-110v-577h-87v253h-100q-8 -81 -58.5 -117t-147.5 -36h-56v70h56q61 0 90.5 25.5t29.5 90.5q0 68 -28.5 92t-91.5 24h-56v70h56q97 0 147 -34t59 -115h100v254h-410v70h607z" />
    <glyph glyph-name="uni091F" unicode="&#x91f;" horiz-adv-x="516" 
d="M192.5 386.5q-28.5 -12.5 -44 -46t-15.5 -95.5t14 -95.5t40.5 -46t69.5 -12.5h19q64 0 92 27t28 99v30h88v-30q0 -103 -50 -149.5t-158 -46.5h-19q-109 0 -160.5 51t-51.5 173q0 123 54 173.5t168 50.5h61v108h-338v70h536v-70h-110v-178h-149q-46 0 -74.5 -12.5z" />
    <glyph glyph-name="uni0920" unicode="&#x920;" horiz-adv-x="548" 
d="M405 443q43 -25 64 -73t21 -125q0 -123 -50.5 -173.5t-160.5 -50.5h-15q-109 0 -160.5 51t-51.5 173q0 123 54 174t168 51q47 0 67 15.5t20 55.5v36h-371v70h568v-70h-110v-36q0 -66 -43 -98zM349.5 103.5q26.5 12.5 40 46t13.5 95.5q0 89 -32 121.5t-97 32.5
q-46 0 -75 -12.5t-44.5 -46t-15.5 -95.5t14.5 -95.5t42.5 -46t74 -12.5h9q44 0 70.5 12.5z" />
    <glyph glyph-name="uni0921" unicode="&#x921;" horiz-adv-x="511" 
d="M164 384q-18 -12 -18 -43q0 -19 7 -34t18 -22h118q88 0 134.5 -35t46.5 -108q0 -75 -47 -113t-132 -38h-13q-78 0 -138 17.5t-115 52.5l34 67q54 -34 104 -50t111 -16h14q44 0 69 18t25 54q0 43 -23 61.5t-70 18.5h-163q-24 18 -46 54.5t-22 77.5q0 65 39 92.5t122 27.5
h98v111h-327v70h531v-70h-117v-147h-4v-34h-181q-37 0 -55 -12z" />
    <glyph glyph-name="uni0922" unicode="&#x922;" horiz-adv-x="516" 
d="M192.5 386.5q-28.5 -12.5 -44 -46t-15.5 -95.5t14 -95.5t40.5 -46t69.5 -12.5h19q62 0 91 19t29 64v32q0 21 -9.5 30t-29.5 9t-29.5 -9t-9.5 -31v-44h-81v51q0 51 29.5 75.5t95.5 24.5q64 0 93 -27.5t29 -79.5v-30q-1 -79 -51.5 -116.5t-156.5 -37.5h-19
q-109 0 -160.5 51t-51.5 173q0 123 54 173.5t168 50.5h61v108h-338v70h536v-70h-110v-178h-149q-46 0 -74.5 -12.5z" />
    <glyph glyph-name="uni0923" unicode="&#x923;" horiz-adv-x="719" 
d="M729 647v-70h-110v-577h-88v577h-122v-199q0 -93 -38 -130.5t-120 -37.5q-81 0 -119.5 37.5t-38.5 130.5v199h-103v70h739zM322 577h-141v-202q0 -53 17 -74t53 -21t53.5 21t17.5 74v202z" />
    <glyph glyph-name="uni0924" unicode="&#x924;" horiz-adv-x="573" 
d="M583 647v-70h-110v-577h-88v379h-152q-33 0 -52.5 -12.5t-30 -45.5t-11.5 -94q1 -90 26.5 -123t77.5 -33h16v-71h-16q-96 0 -143.5 53t-47.5 174t43.5 172t137.5 51h152v127h-395v70h593z" />
    <glyph glyph-name="uni0925" unicode="&#x925;" horiz-adv-x="616" 
d="M626 647v-70h-110v-577h-87v179q-64 -36 -142 -36q-86 0 -136 36t-84 130q60 24 89 42t44 48.5t15 85.5v38q0 39 -8.5 53t-32.5 14t-33 -14.5t-9 -52.5v-51h-81v51q0 66 29 100t94 34t93.5 -33t28.5 -101v-38q0 -61 -14.5 -99t-40.5 -62t-72 -49q20 -36 49.5 -49
t73.5 -13q70 0 137 42v322h-80v70h277z" />
    <glyph glyph-name="uni0926" unicode="&#x926;" horiz-adv-x="522" 
d="M207 402q-33 -11 -50.5 -41t-17.5 -86q0 -80 33 -108.5t103 -28.5h14q36 0 70 10v86h87v-249h-87v93q-36 -11 -79 -11h-14q-108 0 -161 47.5t-53 159.5q0 115 59 162t183 47h41v94h-345v70h542v-70h-110v-164h-128q-54 0 -87 -11z" />
    <glyph glyph-name="uni0927" unicode="&#x927;" horiz-adv-x="621" 
d="M631 647v-70h-110v-577h-87v121q-52 -22 -127 -22h-15q-101 0 -150 35.5t-49 121.5q0 44 14 74t44 49q-50 17 -73.5 49.5t-23.5 86.5q0 79 47.5 112t148.5 33h12q17 0 31 -2v-70l-31 2h-12q-57 0 -83 -17t-26 -66q1 -51 36.5 -67.5t116.5 -16.5h37v-74h-34
q-59 0 -87.5 -19.5t-28.5 -70.5q0 -53 27.5 -71t88.5 -19h18q73 0 119 26v382h-83v70h280z" />
    <glyph glyph-name="uni0928" unicode="&#x928;" horiz-adv-x="563" 
d="M573 647v-70h-110v-577h-87v335h-205q-22 0 -31 -5.5t-9 -21.5q0 -29 52 -52l-35 -63q-53 22 -77 51t-24 72q0 90 117 90h212v171h-386v70h583z" />
    <glyph glyph-name="uni0929" unicode="&#x929;" horiz-adv-x="563" 
d="M0 0zM573 647v-70h-110v-577h-87v335h-205q-22 0 -31 -5.5t-9 -21.5q0 -29 52 -52l-35 -63q-53 22 -77 51t-24 72q0 90 117 90h212v171h-386v70h583zM160 0l68 68l69 -68l-69 -67z" />
    <glyph glyph-name="uni092A" unicode="&#x92a;" horiz-adv-x="562" 
d="M572 647v-70h-110v-577h-88v232q-50 -31 -114 -31q-91 0 -135.5 40t-44.5 141v195h-90v70h582zM374 307v270h-207v-195q0 -61 23 -86t80 -25t104 36z" />
    <glyph glyph-name="uni092B" unicode="&#x92b;" horiz-adv-x="816" 
d="M455 577v-161q51 26 117 26h14q100 0 146.5 -35.5t46.5 -124.5q0 -87 -46 -123.5t-145 -36.5h-12q-15 0 -32 1.5t-28 3.5v70q28 -5 56 -5h12q55 0 81.5 19t26.5 71q0 37 -12.5 56.5t-36.5 26t-65 7.5h-13q-31 0 -57.5 -6t-52.5 -21v-345h-87v231q-51 -30 -115 -30
q-87 0 -130 40.5t-43 140.5v195h-90v70h836v-70h-371zM321.5 280.5q24.5 9.5 46.5 25.5v271h-201v-195q0 -61 21.5 -86t75.5 -25q33 0 57.5 9.5z" />
    <glyph glyph-name="uni092C" unicode="&#x92c;" horiz-adv-x="548" 
d="M558 647v-70h-110v-577h-87v148q-50 -26 -117 -26h-13q-100 0 -147 35.5t-47 124.5q0 87 46.5 123.5t144.5 36.5h12q15 0 32 -1.5t28 -3.5v-70q-28 5 -56 5h-12q-13 0 -35 -2l142 -162l22 11v358h-371v70h568zM251 192q11 0 29 2l-135 153q-20 -20 -20 -65
q0 -37 12.5 -56.5t36.5 -26t64 -7.5h13z" />
    <glyph glyph-name="uni092D" unicode="&#x92d;" horiz-adv-x="665" 
d="M675 647v-70h-110v-577h-87v251h-215v-90h-87v389q0 22 -6.5 31t-25.5 9q-18 0 -25.5 -9.5t-7.5 -30.5v-52h-80v52q0 53 27.5 80t88.5 27q62 0 89 -27t27 -80v-228h215v255h-103v70h300z" />
    <glyph glyph-name="uni092E" unicode="&#x92e;" horiz-adv-x="579" 
d="M589 647v-70h-110v-577h-87v266h-215v-91h-87v402h-100v70h599zM392 336v241h-215v-241h215z" />
    <glyph glyph-name="uni092F" unicode="&#x92f;" horiz-adv-x="597" 
d="M607 647v-70h-110v-577h-88v188q-32 -16 -66.5 -23.5t-61.5 -7.5q-61 0 -102 14t-72.5 50t-56.5 102q76 30 104.5 61t28.5 76q0 56 -38 117h-155v70h617zM409 265v312h-177q18 -32 28.5 -65t10.5 -57q0 -53 -28 -92t-90 -71q21 -38 52.5 -51t75.5 -13q64 0 128 37z" />
    <glyph glyph-name="uni0930" unicode="&#x930;" horiz-adv-x="458" 
d="M162 245v-50q0 -70 31.5 -97t108.5 -27h112v-71h-112q-110 0 -168.5 41.5t-58.5 153.5v234h87v-114h3q56 0 81 15.5t25 64.5v182h-281v70h478v-70h-109v-182q0 -84 -47 -117t-147 -33h-3z" />
    <glyph glyph-name="uni0931" unicode="&#x931;" horiz-adv-x="458" 
d="M0 0zM162 245v-50q0 -70 31.5 -97t108.5 -27h112v-71h-112q-110 0 -168.5 41.5t-58.5 153.5v234h87v-114h3q56 0 81 15.5t25 64.5v182h-281v70h478v-70h-109v-182q0 -84 -47 -117t-147 -33h-3zM-1 -77l68 68l69 -68l-69 -67z" />
    <glyph glyph-name="uni0932" unicode="&#x932;" horiz-adv-x="785" 
d="M795 647v-70h-110l-2 -577h-87l1 356q-23 13 -55 13q-51 0 -77 -34t-27 -98v-32h-17v-7h-70v32q-3 129 -100 129q-99 0 -102 -129q2 -71 36.5 -115t124.5 -44h25v-71h-25q-132 0 -190 66.5t-58 163.5q0 91 46.5 145.5t135.5 54.5q102 0 147 -71q42 81 148 81q31 0 58 -8
l1 145h-608v70h805z" />
    <glyph glyph-name="uni0933" unicode="&#x933;" horiz-adv-x="759" 
d="M574 577v-121q70 -12 107.5 -61.5t37.5 -118.5q0 -80 -47.5 -132t-135.5 -52q-55 0 -94 20t-62 56q-23 -36 -61.5 -56t-92.5 -20q-89 0 -137.5 52t-48.5 132t48.5 131.5t137.5 51.5q54 0 92.5 -20t61.5 -56q35 56 107 71v123h-497v70h779v-70h-195zM310.5 194
q25.5 31 25.5 82q0 50 -25.5 81t-77.5 31q-54 0 -79.5 -31t-25.5 -81q0 -51 25.5 -82t79.5 -31q52 0 77.5 31zM606.5 357q-25.5 31 -78.5 31q-54 0 -79.5 -31t-25.5 -81q0 -51 25.5 -82t79.5 -31q53 0 78.5 31t25.5 82q0 50 -25.5 81z" />
    <glyph glyph-name="uni0934" unicode="&#x934;" horiz-adv-x="759" 
d="M0 0zM574 577v-121q70 -12 107.5 -61.5t37.5 -118.5q0 -80 -47.5 -132t-135.5 -52q-55 0 -94 20t-62 56q-23 -36 -61.5 -56t-92.5 -20q-89 0 -137.5 52t-48.5 132t48.5 131.5t137.5 51.5q54 0 92.5 -20t61.5 -56q35 56 107 71v123h-497v70h779v-70h-195zM310.5 194
q25.5 31 25.5 82q0 50 -25.5 81t-77.5 31q-54 0 -79.5 -31t-25.5 -81q0 -51 25.5 -82t79.5 -31q52 0 77.5 31zM606.5 357q-25.5 31 -78.5 31q-54 0 -79.5 -31t-25.5 -81q0 -51 25.5 -82t79.5 -31q53 0 78.5 31t25.5 82q0 50 -25.5 81zM310 0l68 68l69 -68l-69 -67z" />
    <glyph glyph-name="uni0935" unicode="&#x935;" horiz-adv-x="548" 
d="M558 647v-70h-110v-577h-87v148q-50 -26 -117 -26h-13q-100 0 -147 35.5t-47 124.5q0 87 46.5 123.5t144.5 36.5h12q15 0 32 -1.5t28 -3.5v-70q-28 5 -56 5h-12q-54 0 -80.5 -19t-26.5 -71q0 -37 12.5 -56.5t36.5 -26t64 -7.5h13q31 0 57.5 6t52.5 21v358h-371v70h568z
" />
    <glyph glyph-name="uni0936" unicode="&#x936;" horiz-adv-x="712" 
d="M242.5 105q40.5 -34 117.5 -34h60v-71h-63q-112 0 -175 53.5t-69 176.5h-63v71h100q84 0 126 43t43 126q0 68 -17.5 94t-63.5 26q-40 0 -59.5 -25.5t-20.5 -87.5v-48h-88v55q1 86 41.5 129.5t126.5 43.5q90 0 129 -45.5t39 -141.5q-1 -97 -55.5 -160.5t-153.5 -76.5
q5 -94 45.5 -128zM722 577h-110v-577h-87v647h197v-70z" />
    <glyph glyph-name="uni0937" unicode="&#x937;" horiz-adv-x="581" 
d="M591 647v-70h-110v-577h-87v233q-53 -32 -125 -32q-95 0 -142.5 40.5t-47.5 140.5v195h-89v70h601zM394 577h-181l181 -229v229zM192 296q25 -25 88 -25q50 0 89 22l-202 256v-167q0 -61 25 -86z" />
    <glyph glyph-name="uni0938" unicode="&#x938;" horiz-adv-x="768" 
d="M778 647v-70h-110v-577h-88v268h-189v70h189v239h-221v-182q0 -84 -47 -117t-147 -33h-6v-50q0 -70 31.5 -97t108.5 -27h155v-71h-155q-110 0 -169 41.5t-59 153.5v234h88v-114h6q56 0 81 15.5t25 64.5v182h-281v70h788z" />
    <glyph glyph-name="uni0939" unicode="&#x939;" horiz-adv-x="535" 
d="M168 399q-18 -12 -18 -43q0 -21 11 -39t28 -30q42 19 93 19h30q79 0 121 -40t42 -107v-26h-74v26q0 34 -23.5 55t-65.5 21h-30q-37 0 -66.5 -23t-29.5 -77q0 -75 48 -102t126 -27h64v-71h-67q-116 0 -187.5 47.5t-71.5 155.5q0 60 29 100q-26 23 -45 55t-19 68
q0 66 38 93.5t119 27.5h126v95h-356v70h561v-70h-117v-166h-210q-38 0 -56 -12z" />
    <glyph glyph-name="uni093A" unicode="&#x93a;" horiz-adv-x="0" 
d="M-181 903h88v-290h-88v290z" />
    <glyph glyph-name="uni093B" unicode="&#x93b;" 
d="M297 577h-110v-577h-87v577h-110v70h110v256h87v-256h110v-70z" />
    <glyph glyph-name="uni093C" unicode="&#x93c;" horiz-adv-x="0" 
d="M-234 -117l68 68l69 -68l-69 -67z" />
    <glyph glyph-name="uni093D" unicode="&#x93d;" horiz-adv-x="485" 
d="M13 71h127q80 0 115.5 26t35.5 78q0 40 -23 71.5t-68 72.5q-35 33 -56 57t-36 56t-15 71q0 67 42.5 105.5t132.5 38.5h171v-70h-154q-56 0 -80 -18t-24 -56q0 -34 21 -62.5t64 -68.5q36 -33 58.5 -59t38.5 -61t16 -77q0 -83 -54 -129t-168 -46h-144v71z" />
    <glyph glyph-name="uni093E" unicode="&#x93e;" 
d="M297 577h-110v-577h-87v577h-110v70h307v-70z" />
    <glyph glyph-name="uni093F" unicode="&#x93f;" 
d="M606 913q66 -23 97.5 -75.5t32.5 -142.5v-87h-88v87q0 74 -25 111t-69.5 48.5t-120.5 11.5h-30q-76 0 -120.5 -11.5t-69.5 -48.5t-25 -111v-48h110v-70h-110v-577h-87v577h-111v70h111v48q0 90 31.5 142.5t97 75.5t173.5 23h30q107 0 173 -23z" />
    <glyph glyph-name="uni0940" unicode="&#x940;" 
d="M297 577h-110v-577h-87v577h-110v70h110v81q0 59 -10 89t-29 39.5t-51 9.5h-20q-32 0 -51 -9.5t-29 -39.5t-10 -89v-120h-87v124q0 77 18 121t56.5 63.5t102.5 19.5h20q64 0 102 -19.5t56.5 -64t18.5 -120.5v-85h110v-70z" />
    <glyph glyph-name="uni0941" unicode="&#x941;" horiz-adv-x="0" 
d="M-307.5 -256.5q-74.5 37.5 -141.5 96.5l47 52q59 -54 122.5 -84.5t139.5 -30.5q52 0 79.5 20.5t27.5 59.5q0 35 -22 54t-64 19h-82v71h90q73 0 118.5 -37.5t46.5 -104.5q0 -75 -51.5 -114t-139.5 -39q-96 0 -170.5 37.5z" />
    <glyph glyph-name="uni0942" unicode="&#x942;" horiz-adv-x="0" 
d="M-300.5 -250.5q-45.5 37.5 -46.5 104.5q0 76 51.5 114.5t139.5 38.5q77 0 135.5 -32.5t99 -80.5t85.5 -119l-62 -42q-47 71 -79.5 111t-76 66t-99.5 26q-52 0 -79.5 -20.5t-27.5 -58.5q0 -35 22.5 -54.5t63.5 -19.5h66v-71h-73q-74 0 -119.5 37.5z" />
    <glyph glyph-name="uni0943" unicode="&#x943;" horiz-adv-x="0" 
d="M-242.5 -197.5q-39.5 30.5 -39.5 96.5q0 127 152 127h37v-67h-34q-34 0 -52.5 -15t-18.5 -45q0 -32 20.5 -45.5t60.5 -13.5q54 0 104 34v-74q-50 -28 -107 -28q-83 0 -122.5 30.5z" />
    <glyph glyph-name="uni0944" unicode="&#x944;" horiz-adv-x="0" 
d="M11 -273v-74q-47 -24 -107 -24q-81 0 -120 28t-39 89q0 56 39 85q-35 14 -49.5 38t-14.5 57q0 54 33.5 82t110.5 28q37 0 57 -5v-67q-23 5 -54 5q-34 0 -48.5 -12.5t-14.5 -36.5q0 -25 18.5 -37.5t69.5 -12.5h49v-54h-14v-10h-30q-32 0 -50 -13t-18 -41q0 -30 19 -43
t59 -13q56 0 104 31z" />
    <glyph glyph-name="uni0945" unicode="&#x945;" horiz-adv-x="0" 
d="M-284 751.5q-50 41.5 -50 120.5v14h78v-14q0 -91 118 -91t118 91v14h78v-14q0 -79 -50 -120.5t-146 -41.5t-146 41.5z" />
    <glyph glyph-name="uni0946" unicode="&#x946;" horiz-adv-x="600" 
d="M-781 674q0 39 -9 61.5t-33.5 33.5t-72.5 11h-167q-82 0 -127 19t-63 57.5t-18 102.5v22h88v-22q0 -42 8 -64.5t33.5 -33.5t78.5 -11h167q86 0 129.5 -18.5t58.5 -55t15 -102.5v-50h-88v50z" />
    <glyph glyph-name="uni0947" unicode="&#x947;" horiz-adv-x="0" 
d="M-211 762q-11 49 -34 66.5t-72 17.5h-82v70h82q60 0 95.5 -11t59 -44t38.5 -99l32 -138h-88z" />
    <glyph glyph-name="uni0948" unicode="&#x948;" horiz-adv-x="0" 
d="M-92 624h-88l-60 75q-33 42 -68.5 58t-106.5 16h-92v71h92q61 0 98 -9t63 -29t56 -58l-23 102q-10 45 -35.5 61t-78.5 16h-82v70h82q60 0 95.5 -11t59 -42.5t37.5 -93.5z" />
    <glyph glyph-name="uni0949" unicode="&#x949;" 
d="M0 0zM297 577h-110v-577h-87v577h-110v70h307v-70zM-3 764.5q-50 41.5 -50 120.5v14h78v-14q0 -91 118 -91t118 91v14h78v-14q0 -79 -50 -120.5t-146 -41.5t-146 41.5z" />
    <glyph glyph-name="uni094A" unicode="&#x94a;" 
d="M297 577h-110v-577h-87v577h-110v70h110v40q0 40 -9 62t-33.5 33t-72.5 11h-167q-82 0 -127 19t-63 57.5t-18 103.5v21h87v-21q0 -43 8 -65t34 -33t79 -11h167q86 0 129 -18.5t58 -55.5t15 -103v-40h110v-70z" />
    <glyph glyph-name="uni094B" unicode="&#x94b;" 
d="M297 577h-110v-577h-87v577h-110v70h109l-29 128q-11 49 -34 66.5t-72 17.5h-82v71h82q59 0 95 -11.5t59.5 -44.5t38.5 -99l29 -128h111v-70z" />
    <glyph glyph-name="uni094C" unicode="&#x94c;" 
d="M297 577h-110v-577h-87v577h-110v70h103l-52 65q-34 42 -69.5 58.5t-105.5 16.5h-92v70h92q61 0 98 -9t62.5 -28.5t56.5 -58.5l-23 102q-10 45 -35.5 61t-78.5 16h-82v71h82q59 0 94.5 -11t59 -43t37.5 -94l49 -216h111v-70z" />
    <glyph glyph-name="uni094D" unicode="&#x94d;" horiz-adv-x="0" 
d="M-209 -118l51 58l202 -156l-51 -59z" />
    <glyph glyph-name="uni094E" unicode="&#x94e;" horiz-adv-x="269" 
d="M279 577h-110v-577h-87v647h197v-70z" />
    <glyph glyph-name="uni0950" unicode="&#x950;" horiz-adv-x="934" 
d="M585 700l-68 67l68 69l68 -69zM439 590.5q-50 41.5 -50 120.5v14h78v-14q0 -91 118 -91t118 91v14h78v-14q0 -79 -50 -120.5t-146 -41.5t-146 41.5zM839 433.5q45 -53.5 45 -172.5q0 -125 -46.5 -176t-145.5 -51h-15q-93 0 -139.5 44.5t-51.5 152.5h-130q1 -5 1 -16
q0 -93 -71.5 -134t-182.5 -41h-58v71h58q72 0 119.5 23.5t47.5 87.5q0 46 -30.5 69t-97.5 23h-51v71h52q64 0 95.5 28t31.5 74q0 50 -34 70t-103 20h-57v70h57q114 0 169 -35t55 -117q0 -49 -22.5 -84.5t-68.5 -58.5q43 -14 67 -50h154q7 100 54 142.5t146 42.5
q107 0 152 -53.5zM750.5 117.5q22.5 12.5 34 46.5t11.5 97q0 60 -11.5 94t-35 48t-62.5 14q-41 0 -65.5 -13.5t-36.5 -47.5t-12 -95q0 -64 12 -97.5t35 -46t63 -12.5h9q36 0 58.5 12.5z" />
    <glyph glyph-name="uni0951" unicode="&#x951;" horiz-adv-x="0" 
d="M-181 1002h88v-263h-88v263z" />
    <glyph glyph-name="uni0952" unicode="&#x952;" horiz-adv-x="0" 
d="M-385 -200h462v-77h-462v77z" />
    <glyph glyph-name="uni0953" unicode="&#x953;" horiz-adv-x="0" 
d="M-416 991h111l155 -225h-87z" />
    <glyph glyph-name="uni0954" unicode="&#x954;" horiz-adv-x="0" 
d="M-43 991h111l-179 -225h-87z" />
    <glyph glyph-name="uni0956" unicode="&#x956;" horiz-adv-x="0" 
d="M-273 -171q-59 32 -92 84l54 43q69 -88 173 -89q104 1 173 89l54 -43q-33 -52 -92 -84t-135 -32t-135 32z" />
    <glyph glyph-name="uni0957" unicode="&#x957;" horiz-adv-x="0" 
d="M-273 -171q-59 32 -92 84l54 43q69 -88 173 -89q104 1 173 89l54 -43q-33 -52 -92 -84t-135 -32t-135 32zM-273 -341q-59 32 -92 84l54 43q69 -88 173 -89q104 1 173 89l54 -43q-33 -52 -92 -84t-135 -32t-135 32z" />
    <glyph glyph-name="uni0958" unicode="&#x958;" horiz-adv-x="809" 
d="M0 0zM448 577v-161q51 26 117 26h14q100 0 146.5 -35.5t46.5 -124.5q0 -87 -46 -123.5t-144 -36.5h-12q-15 0 -32 1.5t-28 3.5v70q28 -5 56 -5h12q54 0 80.5 19t26.5 71q0 37 -12.5 56.5t-36.5 26t-64 7.5h-14q-31 0 -57.5 -6t-52.5 -21v-345h-87v148q-50 -26 -117 -26
h-13q-100 0 -147 35.5t-47 124.5q0 87 46.5 123.5t144.5 36.5h12q15 0 32 -1.5t28 -3.5v-70q-28 5 -56 5h-12q-54 0 -80.5 -19t-26.5 -71q0 -37 12.5 -56.5t36.5 -26t64 -7.5h13q31 0 57.5 6t52.5 21v358h-371v70h829v-70h-371zM149 -7l68 68l69 -68l-69 -67z" />
    <glyph glyph-name="uni0959" unicode="&#x959;" horiz-adv-x="860" 
d="M0 0zM870 577h-110v-577h-87v178q-40 -16 -93 -16h-18q-161 0 -161 140q0 70 40.5 105t103.5 35h12q31 0 55 -4v-70q-34 4 -45 4h-12q-67 0 -67 -70q0 -42 20.5 -56t65.5 -14h16q44 0 83 16v329h-314v-182q0 -84 -47 -117t-147 -33h-6v-50q0 -70 31.5 -97t108.5 -27h165
v-71h-165q-110 0 -169 41.5t-59 153.5v234h88v-114h6q56 0 81 15.5t25 64.5v182h-281v70h880v-70zM48 -101l68 68l69 -68l-69 -67z" />
    <glyph glyph-name="uni095A" unicode="&#x95a;" horiz-adv-x="620" 
d="M0 0zM630 577h-110v-577h-87v577h-173l1 -277q0 -57 -24.5 -87t-72.5 -30q-44 0 -75 24t-53 75l67 35q13 -31 25 -47t26 -16q12 0 16 10.5t4 35.5l-1 277h-183v70h640v-70zM148 0l68 68l69 -68l-69 -67z" />
    <glyph glyph-name="uni095B" unicode="&#x95b;" horiz-adv-x="674" 
d="M0 0zM684 647v-70h-110v-577h-88v362h-99v-70q0 -97 -37 -141.5t-132 -44.5q-89 0 -128 45.5t-39 140.5v140h84v-145q0 -56 18.5 -83t64.5 -27q49 0 65.5 26t16.5 84v145h186v145h-496v70h694zM150 -13l68 68l69 -68l-69 -67z" />
    <glyph glyph-name="uni095C" unicode="&#x95c;" horiz-adv-x="511" 
d="M0 0zM164 384q-18 -12 -18 -43q0 -19 7 -34t18 -22h118q88 0 134.5 -35t46.5 -108q0 -75 -47 -113t-132 -38h-13q-78 0 -138 17.5t-115 52.5l34 67q54 -34 104 -50t111 -16h14q44 0 69 18t25 54q0 43 -23 61.5t-70 18.5h-163q-24 18 -46 54.5t-22 77.5q0 65 39 92.5
t122 27.5h98v111h-327v70h531v-70h-117v-147h-4v-34h-181q-37 0 -55 -12zM203 -115l68 68l69 -68l-69 -67z" />
    <glyph glyph-name="uni095D" unicode="&#x95d;" horiz-adv-x="516" 
d="M0 0zM192.5 386.5q-28.5 -12.5 -44 -46t-15.5 -95.5t14 -95.5t40.5 -46t69.5 -12.5h19q62 0 91 19t29 64v32q0 21 -9.5 30t-29.5 9t-29.5 -9t-9.5 -31v-44h-81v51q0 51 29.5 75.5t95.5 24.5q64 0 93 -27.5t29 -79.5v-30q-1 -79 -51.5 -116.5t-156.5 -37.5h-19
q-109 0 -160.5 51t-51.5 173q0 123 54 173.5t168 50.5h61v108h-338v70h536v-70h-110v-178h-149q-46 0 -74.5 -12.5zM200 -95l68 68l69 -68l-69 -67z" />
    <glyph glyph-name="uni095E" unicode="&#x95e;" horiz-adv-x="816" 
d="M0 0zM455 577v-161q51 26 117 26h14q100 0 146.5 -35.5t46.5 -124.5q0 -87 -46 -123.5t-145 -36.5h-12q-15 0 -32 1.5t-28 3.5v70q28 -5 56 -5h12q55 0 81.5 19t26.5 71q0 37 -12.5 56.5t-36.5 26t-65 7.5h-13q-31 0 -57.5 -6t-52.5 -21v-345h-87v231q-51 -30 -115 -30
q-87 0 -130 40.5t-43 140.5v195h-90v70h836v-70h-371zM321.5 280.5q24.5 9.5 46.5 25.5v271h-201v-195q0 -61 21.5 -86t75.5 -25q33 0 57.5 9.5zM73 87l68 68l69 -68l-69 -67z" />
    <glyph glyph-name="uni095F" unicode="&#x95f;" horiz-adv-x="597" 
d="M0 0zM607 647v-70h-110v-577h-88v188q-32 -16 -66.5 -23.5t-61.5 -7.5q-61 0 -102 14t-72.5 50t-56.5 102q76 30 104.5 61t28.5 76q0 56 -38 117h-155v70h617zM409 265v312h-177q18 -32 28.5 -65t10.5 -57q0 -53 -28 -92t-90 -71q21 -38 52.5 -51t75.5 -13q64 0 128 37z
M67 50l68 68l69 -68l-69 -67z" />
    <glyph glyph-name="uni0960" unicode="&#x960;" horiz-adv-x="823" 
d="M861 -107v-74q-45 -23 -112 -23q-81 0 -120.5 28t-39.5 88q0 54 38 83q-63 25 -63 93q0 38 17 62.5t56 36.5l-50 97h-130v-284h-88v218l-260 -224l-52 58l309 265q-45 43 -82 59.5t-83 16.5q-24 0 -59 -7t-85 -20v77q97 26 147 26q48 0 85.5 -15.5t79.5 -52.5v176h-379
v70h843v-70h-376v-223h116v123h88v-165l59 -116q28 0 51 -5v-67q-23 5 -56 5q-35 0 -49 -12t-14 -35q0 -24 17 -35.5t64 -11.5h58v-56h-13v-12h-40q-61 0 -61 -51q0 -29 19.5 -41t58.5 -12q57 0 106 30z" />
    <glyph glyph-name="uni0961" unicode="&#x961;" horiz-adv-x="776" 
d="M586 577v-151q61 -10 94 -48.5t33 -92.5t-25.5 -93t-71.5 -84q-31 -30 -45.5 -49t-14.5 -40q0 -25 19 -40t59 -15q25 0 59 9v-73q-26 -7 -61 -7q-17 0 -25 1q-24 -20 -24 -54q0 -29 19 -41t57 -12q29 0 53 7t49 23v-74q-47 -23 -112 -23q-78 0 -116 28t-38 86q0 52 34 82
q-31 17 -46 43.5t-15 57.5q1 37 21 66t59 67t58.5 66t19.5 64q0 39 -22.5 59t-64.5 20q-50 0 -75 -33t-26 -96v-32h-87v32q-3 129 -100 129q-99 0 -102 -129q2 -71 36.5 -115t124.5 -44h25v-71h-25q-132 0 -190 66.5t-58 163.5q0 91 46.5 145.5t135.5 54.5q107 0 150 -77
q34 58 104 73v151h-508v70h796v-70h-200z" />
    <glyph glyph-name="uni0962" unicode="&#x962;" horiz-adv-x="0" 
d="M3 -367v-68q-32 -24 -91 -24q-54 0 -85 26t-31 65q0 26 13.5 47t39.5 47q26 28 38 46.5t12 42.5q0 48 -53 48q-31 0 -47 -21t-16 -58v-34h-68v34q-1 37 -17.5 58t-47.5 21q-32 0 -48 -22t-17 -61q2 -49 27 -79.5t90 -30.5h8v-65h-8q-104 0 -149.5 51.5t-45.5 125.5
q0 70 34.5 111t100.5 41q70 0 106 -52q24 35 65 46v142h87v-142q37 -12 57 -40.5t20 -66.5q0 -39 -16.5 -67t-47.5 -62q-18 -18 -27 -30.5t-9 -25.5q0 -31 47 -31q38 0 79 28z" />
    <glyph glyph-name="uni0963" unicode="&#x963;" horiz-adv-x="0" 
d="M15 -504v-69q-31 -19 -84 -19q-56 0 -85.5 22.5t-29.5 67.5q0 36 22 61q-43 27 -43 73q0 26 13.5 46.5t39.5 47.5t38.5 46t12.5 43t-14 35.5t-39 11.5q-31 0 -47 -20.5t-16 -57.5v-30h-10v-4h-58v34q-1 37 -17.5 58t-47.5 21q-32 0 -48 -22t-17 -61q2 -49 27 -79.5
t90 -30.5h8v-65h-8q-104 0 -149.5 51.5t-45.5 125.5q0 70 34.5 111t100.5 41q70 0 106 -52q24 35 65 46v142h87v-143q37 -11 57 -40t20 -66q0 -40 -17 -68t-48 -61q-18 -18 -27 -30.5t-9 -25.5q0 -31 47 -31q25 0 51 13v-67q-17 -8 -48 -11l-15 1q-13 -16 -13 -36
q0 -17 11.5 -25t33.5 -8q38 0 72 24z" />
    <glyph glyph-name="uni0964" unicode="&#x964;" horiz-adv-x="461" 
d="M269 634h88v-634h-88v634z" />
    <glyph glyph-name="uni0965" unicode="&#x965;" horiz-adv-x="710" 
d="M269 0zM269 634h88v-634h-88v634zM529 634h88v-634h-88v634z" />
    <glyph glyph-name="uni0966" unicode="&#x966;" horiz-adv-x="638" 
d="M194 143.5q-53 29.5 -81 80t-28 111.5t28 111.5t81 80t125 29.5t125 -29.5t81 -80t28 -111.5t-28 -111.5t-81 -80t-125 -29.5t-125 29.5zM427 227.5q39 42.5 39 107.5t-39 107.5t-108 42.5t-108 -42.5t-39 -107.5t39 -107.5t108 -42.5t108 42.5z" />
    <glyph glyph-name="uni0967" unicode="&#x967;" horiz-adv-x="480" 
d="M376 307q-58 -70 -150 -98l153 -177l-58 -49l-181 211h-18h-60v70h60q60 0 111.5 24.5t82.5 72t31 113.5t-20.5 92.5t-74.5 26.5q-50 0 -74 -27.5t-25 -91.5v-38h-88v38q1 94 46 142t141 48t139.5 -48t43.5 -142q-1 -97 -59 -167z" />
    <glyph glyph-name="uni0968" unicode="&#x968;" horiz-adv-x="494" 
d="M457 71v-71h-60q-262 0 -262 265v14h-56v70h94q78 0 115 24.5t38 89.5q-1 65 -38 89.5t-115 24.5h-94v70h94q123 0 181.5 -42.5t59.5 -141.5q-1 -89 -47.5 -132t-143.5 -51v-15q1 -111 47 -152.5t127 -41.5h60z" />
    <glyph glyph-name="uni0969" unicode="&#x969;" horiz-adv-x="484" 
d="M410.5 301.5q36.5 -40.5 36.5 -99.5q0 -89 -57.5 -134t-151.5 -45q-47 0 -92 12v-80h-84v243h84v-89q42 -15 92 -15q56 0 90.5 25.5t34.5 84.5q0 110 -187 110h-58v71h59q63 0 94.5 29t31.5 75q0 49 -32.5 68.5t-100.5 19.5h-97v70h97q111 0 164 -35.5t53 -116.5
q0 -48 -19.5 -81t-60.5 -54q67 -18 103.5 -58.5z" />
    <glyph glyph-name="uni096A" unicode="&#x96a;" horiz-adv-x="574" 
d="M499.5 485q-14.5 -43 -40 -69t-71.5 -57l-34 -23q55 -37 85 -78t30 -104q0 -49 -22.5 -88t-64 -61t-95.5 -22t-95.5 22t-64 61t-22.5 88q0 58 31.5 101.5t84.5 80.5l-35 23q-47 30 -73 58.5t-39.5 71t-13.5 109.5v49h88v-49q0 -63 10 -96t32.5 -54t76.5 -55l20 -13l20 13
q51 33 74 55t34 55.5t11 94.5v49h88v-49q0 -70 -14.5 -113zM355 78.5q26 24.5 26 75.5q0 46 -23 76.5t-70 62.5q-46 -32 -70.5 -64t-24.5 -75q0 -51 26 -75.5t68 -24.5t68 24.5z" />
    <glyph glyph-name="uni096B" unicode="&#x96b;" horiz-adv-x="572" 
d="M479 528v-371q0 -87 -57 -130.5t-153 -43.5q-80 0 -145 27l-16 84q35 -19 71 -29.5t83 -10.5q129 0 129 113v101q-52 -33 -117 -33q-92 0 -136.5 40t-44.5 141v231h88v-231q0 -61 21 -86t75 -25q37 0 63.5 10.5t50.5 28.5v183z" />
    <glyph glyph-name="uni096C" unicode="&#x96c;" horiz-adv-x="507" 
d="M464 235v-249h-88v92q-39 -9 -78 -9h-18q-99 0 -150 44t-51 124q0 97 72 140q-51 15 -76 47.5t-25 89.5q0 80 53.5 113t167.5 33h18q43 0 75 -8v-72q-33 10 -75 10h-18q-70 0 -101.5 -17.5t-31.5 -67.5q1 -52 36 -69t113 -17h25v-13h14v-57h-46q-54 0 -83.5 -27.5
t-29.5 -82.5q0 -98 113 -100h18q43 0 78 13v83h88z" />
    <glyph glyph-name="uni096D" unicode="&#x96d;" horiz-adv-x="590" 
d="M171.5 49q-47.5 24 -71 81.5t-23.5 158.5v358h87v-354q0 -81 14 -124t42 -58t75 -15q45 0 73 15.5t43 58t15 123.5v267q0 18 -6 25.5t-22 7.5q-15 0 -21.5 -7.5t-6.5 -25.5v-102h-87v105q0 47 27 72t88 25t88 -25t27 -72v-274q0 -100 -25 -158t-72.5 -82t-120.5 -24
q-76 0 -123.5 24z" />
    <glyph glyph-name="uni096E" unicode="&#x96e;" horiz-adv-x="471" 
d="M111 63.5q-81 63.5 -81 171.5q0 56 22.5 104t62 92t104.5 100l152 132l55 -61l-152 -132q-56 -49 -88.5 -83.5t-50 -71.5t-17.5 -80q0 -78 58.5 -121t178.5 -43h57v-71h-57q-163 0 -244 63.5z" />
    <glyph glyph-name="uni096F" unicode="&#x96f;" horiz-adv-x="521" 
d="M288 134q-23 20 -22 19q-78 70 -123.5 116.5t-76.5 100.5t-31 111q0 90 54 134.5t153 44.5q84 0 130.5 -44.5t46.5 -134.5v-63h-88v63q0 58 -24.5 83.5t-68.5 25.5q-55 0 -84.5 -25t-29.5 -84q0 -43 22.5 -83t58 -76t100.5 -93l39 -35l155 -139l-56 -60z" />
    <glyph glyph-name="uni0970" unicode="&#x970;" horiz-adv-x="461" 
d="M146.5 133q-38.5 21 -61 58.5t-22.5 85.5t22.5 85.5t61 58t84.5 20.5t84 -20.5t60.5 -58t22.5 -85.5t-22.5 -85.5t-60.5 -58.5t-84 -21t-84.5 21zM293.5 207q24.5 28 24.5 70t-24 69.5t-63 27.5t-63.5 -27.5t-24.5 -69.5t24.5 -70t63.5 -28q38 0 62.5 28z" />
    <glyph glyph-name="uni0971" unicode="&#x971;" horiz-adv-x="274" 
d="M69 612l68 68l68 -68l-68 -67z" />
    <glyph glyph-name="uni0972" unicode="&#x972;" horiz-adv-x="725" 
d="M45 0zM735 647v-70h-110v-577h-87v231h-182q1 -5 1 -16q0 -93 -71.5 -134t-182.5 -41h-58v71h58q72 0 119.5 23.5t47.5 87.5q0 46 -30.5 69t-97.5 23h-51v71h52q64 0 95.5 28t31.5 74q0 50 -34 70t-103 20h-57v70h57q114 0 169 -35t55 -117q0 -49 -22.5 -84.5
t-68.5 -58.5q43 -14 67 -50h205v275h-121v70h318zM435 764.5q-50 41.5 -50 120.5v14h78v-14q0 -91 118 -91t118 91v14h78v-14q0 -79 -50 -120.5t-146 -41.5t-146 41.5z" />
    <glyph glyph-name="uni0973" unicode="&#x973;" horiz-adv-x="725" 
d="M735 647v-70h-110v-577h-87v231h-182q1 -5 1 -16q0 -93 -71.5 -134t-182.5 -41h-58v71h58q72 0 119.5 23.5t47.5 87.5q0 46 -30.5 69t-97.5 23h-51v71h52q64 0 95.5 28t31.5 74q0 50 -34 70t-103 20h-57v70h57q114 0 169 -35t55 -117q0 -49 -22.5 -84.5t-68.5 -58.5
q43 -14 67 -50h205v275h-121v70h122v256h85v-256h111z" />
    <glyph glyph-name="uni0974" unicode="&#x974;" horiz-adv-x="1013" 
d="M1023 577h-110v-577h-88v577h-90h-110v-577h-87v231h-182q1 -5 1 -16q0 -93 -71.5 -134t-182.5 -41h-58v71h58q72 0 119.5 23.5t47.5 87.5q0 46 -30.5 69t-97.5 23h-51v71h52q64 0 95.5 28t31.5 74q0 50 -34 70t-103 20h-57v70h57q114 0 169 -35t55 -117
q0 -49 -22.5 -84.5t-68.5 -58.5q43 -14 67 -50h205v275h-121v70h318h90v256h88v-256h110v-70z" />
    <glyph glyph-name="uni0976" unicode="&#x976;" horiz-adv-x="725" 
d="M45 0zM735 647v-70h-110v-577h-87v231h-182q1 -5 1 -16q0 -93 -71.5 -134t-182.5 -41h-58v71h58q72 0 119.5 23.5t47.5 87.5q0 46 -30.5 69t-97.5 23h-51v71h52q64 0 95.5 28t31.5 74q0 50 -34 70t-103 20h-57v70h57q114 0 169 -35t55 -117q0 -49 -22.5 -84.5
t-68.5 -58.5q43 -14 67 -50h205v275h-121v70h318zM299 -171q-59 32 -92 84l54 43q69 -88 173 -89q104 1 173 89l54 -43q-33 -52 -92 -84t-135 -32t-135 32z" />
    <glyph glyph-name="uni0977" unicode="&#x977;" horiz-adv-x="725" 
d="M45 0zM735 647v-70h-110v-577h-87v231h-182q1 -5 1 -16q0 -93 -71.5 -134t-182.5 -41h-58v71h58q72 0 119.5 23.5t47.5 87.5q0 46 -30.5 69t-97.5 23h-51v71h52q64 0 95.5 28t31.5 74q0 50 -34 70t-103 20h-57v70h57q114 0 169 -35t55 -117q0 -49 -22.5 -84.5
t-68.5 -58.5q43 -14 67 -50h205v275h-121v70h318zM299 -171q-59 32 -92 84l54 43q69 -88 173 -89q104 1 173 89l54 -43q-33 -52 -92 -84t-135 -32t-135 32zM299 -341q-59 32 -92 84l54 43q69 -88 173 -89q104 1 173 89l54 -43q-33 -52 -92 -84t-135 -32t-135 32z" />
    <glyph glyph-name="uni0979" unicode="&#x979;" horiz-adv-x="674" 
d="M0 0zM684 647v-70h-110v-577h-88v362h-99v-70q0 -97 -37 -141.5t-132 -44.5q-89 0 -128 45.5t-39 140.5v140h84v-145q0 -56 18.5 -83t64.5 -27q49 0 65.5 26t16.5 84v145h186v145h-496v70h694zM47 8l68 68l69 -68l-69 -67zM152 -95l68 68l69 -68l-69 -67zM256 8l68 68
l69 -68l-69 -67z" />
    <glyph glyph-name="uni097A" unicode="&#x97a;" horiz-adv-x="580" 
d="M607 647v-70h-110v-577h-88v188q-32 -16 -66.5 -23.5t-61.5 -7.5q-61 0 -102 14t-72.5 50t-56.5 102q76 30 104.5 61t28.5 76q0 56 -38 117h-155v70h617zM409 577h-166l166 -221v221zM205.5 241q31.5 -13 75.5 -13q60 0 121 33l-132 175q-5 -45 -33 -80t-84 -64
q21 -38 52.5 -51z" />
    <glyph glyph-name="uni097B" unicode="&#x97b;" horiz-adv-x="620" 
d="M630 577h-110v-577h-13v-27h-457v71h383v533h-173l1 -277q0 -57 -24.5 -87t-72.5 -30q-44 0 -75 24t-53 75l67 35q13 -31 25 -47t26 -16q12 0 16 10.5t4 35.5l-1 277h-183v70h640v-70z" />
    <glyph glyph-name="uni097C" unicode="&#x97c;" horiz-adv-x="647" 
d="M684 647v-70h-110v-577h-18v-27h-506v71h436v318h-99v-70q0 -97 -37 -141.5t-132 -44.5q-89 0 -128 45.5t-39 140.5v140h84v-145q0 -56 18.5 -83t64.5 -27q49 0 65.5 26t16.5 84v145h186v145h-496v70h694z" />
    <glyph glyph-name="uni097D" unicode="&#x97d;" horiz-adv-x="462" 
d="M364 319.5q-50 -46.5 -156 -51.5v-268h-88v338h63q74 0 108.5 28t34.5 92q0 63 -38 91t-115 28h-94v70h94q120 0 180.5 -46.5t60.5 -142.5q0 -92 -50 -138.5z" />
    <glyph glyph-name="uni097E" unicode="&#x97e;" horiz-adv-x="511" 
d="M164 384q-18 -12 -18 -43q0 -19 7 -34t18 -22h118q88 0 134.5 -35t46.5 -108q0 -75 -47 -113t-132 -38h-13q-78 0 -138 17.5t-115 52.5l34 67q54 -34 104 -50t111 -16h14q44 0 69 18t25 54q0 43 -23 61.5t-70 18.5h-163q-24 18 -46 54.5t-22 77.5q0 65 39 92.5t122 27.5
h98v111h-327v70h531v-70h-117v-147h-4v-34h-181q-37 0 -55 -12zM50 -76h410v-71h-410v71z" />
    <glyph glyph-name="uni097F" unicode="&#x97f;" horiz-adv-x="548" 
d="M558 647v-70h-110v-577h-16v-41h-382v70h311v119q-50 -26 -117 -26h-13q-100 0 -147 35.5t-47 124.5q0 87 46.5 123.5t144.5 36.5h12q15 0 32 -1.5t28 -3.5v-70q-28 5 -56 5h-12q-13 0 -35 -2l142 -162l22 11v358h-371v70h568zM251 192q11 0 29 2l-135 153
q-20 -20 -20 -65q0 -37 12.5 -56.5t36.5 -26t64 -7.5h13z" />
    <glyph glyph-name="Wgrave" unicode="&#x1e80;" horiz-adv-x="1098" 
d="M40 0zM1058 758l-218 -767h-108l-183 623l-182 -623h-108l-219 767h98l176 -636l180 636h110l181 -637l175 637h98zM393 989h111l105 -153h-95z" />
    <glyph glyph-name="wgrave" unicode="&#x1e81;" horiz-adv-x="862" 
d="M23 0zM839 553l-170 -562h-101l-137 424l-136 -424h-101l-171 562h98l124 -439l132 439h108l133 -439l123 439h98zM266 809h112l104 -153h-95z" />
    <glyph glyph-name="Wacute" unicode="&#x1e82;" horiz-adv-x="1098" 
d="M40 0zM1058 758l-218 -767h-108l-183 623l-182 -623h-108l-219 767h98l176 -636l180 636h110l181 -637l175 637h98zM604 989h111l-121 -153h-95z" />
    <glyph glyph-name="wacute" unicode="&#x1e83;" horiz-adv-x="862" 
d="M23 0zM839 553l-170 -562h-101l-137 424l-136 -424h-101l-171 562h98l124 -439l132 439h108l133 -439l123 439h98zM484 809h111l-121 -153h-95z" />
    <glyph glyph-name="Wdieresis" unicode="&#x1e84;" horiz-adv-x="1098" 
d="M40 0zM1058 758l-218 -767h-108l-183 623l-182 -623h-108l-219 767h98l176 -636l180 636h110l181 -637l175 637h98zM608 974h87v-124h-87v124zM404 974h88v-124h-88v124z" />
    <glyph glyph-name="wdieresis" unicode="&#x1e85;" horiz-adv-x="862" 
d="M23 0zM839 553l-170 -562h-101l-137 424l-136 -424h-101l-171 562h98l124 -439l132 439h108l133 -439l123 439h98zM489 794h87v-124h-87v124zM285 794h88v-124h-88v124z" />
    <glyph glyph-name="Ygrave" unicode="&#x1ef2;" horiz-adv-x="713" 
d="M30 0zM404 293v-293h-96v293l-278 465h100l226 -383l227 383h100zM200 989h111l105 -153h-95z" />
    <glyph glyph-name="ygrave" unicode="&#x1ef3;" horiz-adv-x="555" 
d="M20 0zM535 553l-245 -642q-26 -68 -47 -101t-49.5 -47t-78.5 -14q-29 0 -59 8v85q26 -6 52 -6q34 0 53.5 20t42.5 79l26 67l-210 551h98l159 -428l163 428h95zM113 809h112l104 -153h-95z" />
    <glyph glyph-name="uni200D" unicode="&#x200d;" horiz-adv-x="0" 
 />
    <glyph glyph-name="endash" unicode="&#x2013;" horiz-adv-x="500" 
d="M0 339h500v-86h-500v86z" />
    <glyph glyph-name="emdash" unicode="&#x2014;" horiz-adv-x="1000" 
d="M125 339h750v-86h-750v86z" />
    <glyph glyph-name="quoteleft" unicode="&#x2018;" horiz-adv-x="284" 
d="M67 446zM127 446h100l-73 312h-87z" />
    <glyph glyph-name="quoteright" unicode="&#x2019;" horiz-adv-x="284" 
d="M57 446zM117 758h100l-73 -312h-87z" />
    <glyph glyph-name="quotesinglbase" unicode="&#x201a;" horiz-adv-x="284" 
d="M57 0zM117 161h100l-73 -312h-87z" />
    <glyph glyph-name="quotedblleft" unicode="&#x201c;" horiz-adv-x="471" 
d="M154 758l73 -312h-100l-60 312h87zM414 446h-100l-60 312h87z" />
    <glyph glyph-name="quotedblright" unicode="&#x201d;" horiz-adv-x="471" 
d="M57 446zM117 758h100l-73 -312h-87zM304 758h100l-73 -312h-87z" />
    <glyph glyph-name="quotedblbase" unicode="&#x201e;" horiz-adv-x="471" 
d="M117 161h100l-73 -312h-87zM404 161l-73 -312h-87l60 312h100z" />
    <glyph glyph-name="dagger" unicode="&#x2020;" horiz-adv-x="464" 
d="M426 541h-146v-494h-96v494h-146v91h146v173h96v-173h146v-91z" />
    <glyph glyph-name="daggerdbl" unicode="&#x2021;" horiz-adv-x="464" 
d="M280 541v-209h146v-91h-146v-420h-96v420h-146v91h146v209h-146v91h146v173h96v-173h146v-91h-146z" />
    <glyph glyph-name="bullet" unicode="&#x2022;" horiz-adv-x="347" 
d="M110.5 271q-29.5 17 -46.5 46.5t-17 63.5q0 53 37 89.5t90 36.5t89.5 -36.5t36.5 -89.5t-36.5 -90t-89.5 -37q-34 0 -63.5 17z" />
    <glyph glyph-name="ellipsis" unicode="&#x2026;" horiz-adv-x="852" 
d="M90 161h104v-161h-104v161zM374 161h104v-161h-104v161zM762 161v-161h-104v161h104z" />
    <glyph glyph-name="perthousand" unicode="&#x2030;" horiz-adv-x="1477" 
d="M683 773h84l-417 -806h-84zM134 334.5q-46 26.5 -71.5 72.5t-25.5 101t25.5 101t71.5 72.5t104 26.5q57 0 102.5 -26.5t71 -72.5t25.5 -101t-25.5 -101t-71 -72.5t-102.5 -26.5q-58 0 -104 26.5zM324 417q33 37 33 91t-32.5 90.5t-86.5 36.5t-87 -36.5t-33 -90.5
t33.5 -91t86.5 -37t86 37zM680.5 10q-45.5 27 -71.5 73t-26 101t25.5 100.5t71.5 72t104 26.5q57 0 102.5 -26.5t71 -72t25.5 -100.5t-25.5 -101t-71 -73t-102.5 -27q-58 0 -103.5 27zM1137 10q-46 27 -71.5 73t-25.5 101t25.5 100.5t71.5 72t103 26.5q58 0 103.5 -26.5
t71 -72t25.5 -100.5t-25.5 -101t-71 -73t-103.5 -27q-57 0 -103 27zM870 93q33 37 33 91t-33 90.5t-86 36.5q-54 0 -87 -36.5t-33 -90.5t33.5 -91t86.5 -37t86 37zM1326.5 93q32.5 37 32.5 91t-32.5 90.5t-86.5 36.5q-53 0 -86.5 -36.5t-33.5 -90.5t33.5 -91t86.5 -37
q54 0 86.5 37z" />
    <glyph glyph-name="guilsinglleft" unicode="&#x2039;" horiz-adv-x="490" 
d="M195 270l181 -179l-60 -58l-206 203v68l206 203l60 -58z" />
    <glyph glyph-name="guilsinglright" unicode="&#x203a;" horiz-adv-x="490" 
d="M114 33zM295 270l-181 -179l60 -58l206 203v68l-206 203l-60 -58z" />
    <glyph glyph-name="fraction" unicode="&#x2044;" horiz-adv-x="395" 
d="M364 773h84l-417 -806h-84z" />
    <glyph glyph-name="Euro" unicode="&#x20ac;" horiz-adv-x="550" 
d="M495 38q-40 -30 -78.5 -42.5t-89.5 -12.5q-182 0 -215 237h-68l29 77h32l-1 39l1 39h-62l29 78h40q33 235 220 235q43 0 77.5 -11t66.5 -32l-35 -78q-22 15 -49.5 25.5t-54.5 10.5q-51 0 -82.5 -37t-44.5 -113h204l-29 -78h-182l-1 -39l1 -39h153l-29 -77h-117
q25 -152 127 -152q36 0 63 11.5t61 36.5z" />
    <glyph glyph-name="uni20B9" unicode="&#x20b9;" horiz-adv-x="550" 
d="M379 577v-83h114v-71h-114v-41q0 -83 -48.5 -117.5t-152.5 -36.5v-33q0 -78 31.5 -108t108.5 -30h117v-70h-117q-72 0 -121.5 17t-78 63t-28.5 128v157h88v-53q61 1 87.5 17.5t26.5 65.5v41h-234v71h234v83h-234v70h435v-70h-114z" />
    <glyph glyph-name="trademark" unicode="&#x2122;" horiz-adv-x="1140" 
d="M422 677h-148v-461h-86v461h-148v81h382v-81zM1033 758v-542h-86v403l-152 -209h-42l-152 209v-403h-86v542h74l185 -253l185 253h74z" />
    <glyph glyph-name="partialdiff" unicode="&#x2202;" horiz-adv-x="617" 
d="M485 565.5q78 -126.5 78 -275.5q0 -140 -67 -223.5t-192 -83.5q-75 0 -133 34t-89.5 93.5t-31.5 134.5q0 82 32.5 142t87.5 91t119 31q79 0 144 -50q-33 75 -92 138.5t-141 108.5l68 66q139 -80 217 -206.5zM463 348q-32 35 -72 54t-86 19q-41 0 -77 -19t-59 -58.5
t-23 -98.5q0 -53 21 -92.5t57.5 -61t81.5 -21.5q75 0 117.5 56t43.5 160q0 35 -4 62z" />
    <glyph glyph-name="uni2206" unicode="&#x2206;" horiz-adv-x="732" 
d="M706 0h-679l285 767h108zM573 87l-207 559l-207 -559h414z" />
    <glyph glyph-name="product" unicode="&#x220f;" horiz-adv-x="790" 
d="M683 -237h-97v908h-382v-908h-97v995h576v-995z" />
    <glyph glyph-name="summation" unicode="&#x2211;" horiz-adv-x="692" 
d="M632 -150v-87h-552v85l292 413l-292 412v85h545v-87h-423l273 -386v-48l-273 -387h430z" />
    <glyph glyph-name="minus" unicode="&#x2212;" horiz-adv-x="550" 
d="M67 381h416v-88h-416v88z" />
    <glyph glyph-name="radical" unicode="&#x221a;" horiz-adv-x="700" 
d="M759 938l-335 -1111h-79l-180 438l-72 -53l-47 74l156 114l179 -435l286 973h92z" />
    <glyph glyph-name="infinity" unicode="&#x221e;" horiz-adv-x="550" 
d="M492 450.5q41 -44.5 41 -114.5q0 -71 -41 -115.5t-108 -44.5q-39 0 -70 19.5t-49 52.5q-19 -26 -46.5 -41.5t-60.5 -15.5q-61 0 -101 41t-40 104t40 104t101 41q33 0 61 -15.5t46 -42.5q19 33 49.5 52.5t69.5 19.5q67 0 108 -44.5zM435.5 275q20.5 23 20.5 61t-20.5 60.5
t-54.5 22.5q-35 0 -55.5 -22.5t-20.5 -60.5t20.5 -61t55.5 -23q34 0 54.5 23zM209.5 285q18.5 18 18.5 51t-18.5 51t-48.5 18t-48.5 -18t-18.5 -51t18.5 -51t48.5 -18t48.5 18z" />
    <glyph glyph-name="integral" unicode="&#x222b;" horiz-adv-x="550" 
d="M432 852v-86q-22 6 -50 6q-35 0 -47.5 -14.5t-12.5 -54.5v-796q0 -87 -31.5 -122.5t-109.5 -35.5q-26 0 -63 8v85q19 -5 50 -5q24 0 37 8t18 28t5 59v796q0 71 33 101t108 30q23 0 63 -7z" />
    <glyph glyph-name="approxequal" unicode="&#x2248;" horiz-adv-x="550" 
d="M305.5 364.5q-20.5 9.5 -46.5 27.5q-3 2 -16.5 10.5t-25.5 13t-23 4.5q-26 0 -47 -13.5t-54 -41.5l-42 57q38 39 70.5 60t69.5 21q28 0 49 -9.5t47 -27.5q20 -14 34 -21t29 -7q28 0 49 13t54 42l42 -57q-40 -40 -71.5 -60.5t-70.5 -20.5q-27 0 -47.5 9.5zM309.5 164.5
q-20.5 9.5 -46.5 27.5q-24 15 -37 21.5t-29 6.5q-26 0 -48 -14t-52 -41l-42 57q37 38 69.5 59.5t69.5 21.5q28 0 49 -9.5t47 -27.5q19 -14 33.5 -21t30.5 -7q28 0 48 13t54 42l42 -57q-41 -41 -71.5 -61t-69.5 -20q-27 0 -47.5 9.5z" />
    <glyph glyph-name="notequal" unicode="&#x2260;" horiz-adv-x="600" 
d="M346 393l-32 -112h169v-88h-194l-29 -103h-96l29 103h-126v88h151l32 112h-183v88h207l27 93h96l-27 -93h113v-88h-137z" />
    <glyph glyph-name="lessequal" unicode="&#x2264;" horiz-adv-x="550" 
d="M174 343l313 -151l-25 -77l-395 194v68l395 198l25 -78zM67 87h416v-87h-416v87z" />
    <glyph glyph-name="greaterequal" unicode="&#x2265;" horiz-adv-x="550" 
d="M63 0zM376 343l-313 -151l25 -77l395 194v68l-395 198l-25 -78zM483 87h-416v-87h416v87z" />
    <glyph glyph-name="lozenge" unicode="&#x25ca;" horiz-adv-x="550" 
d="M514 337l-199 -337h-76l-200 337l200 337h75zM413 337l-136 232l-137 -232l137 -232z" />
    <glyph glyph-name="uni25CC" unicode="&#x25cc;" horiz-adv-x="770" 
d="M357 546q-12 12 -12 29q0 16 12 28.5t29 12.5q16 0 28.5 -12.5t12.5 -28.5q0 -17 -12.5 -29t-28.5 -12q-17 0 -29 12zM230 514q-12 12 -12 29t12 29t28 12q17 0 29 -12t12 -29q0 -16 -12 -28.5t-29 -12.5q-16 0 -28 12zM481.5 514.5q-12.5 12.5 -12.5 28.5q0 17 12.5 29
t28.5 12q17 0 29 -12t12 -29t-12 -29t-29 -12q-16 0 -28.5 12.5zM136 421q-12 12 -12 29t12 29t29 12t29 -12t12 -29t-12 -29t-29 -12t-29 12zM576 421q-12 12 -12 29t12.5 29t28.5 12q17 0 29 -12t12 -29t-12 -29t-29 -12t-29 12zM105 294q-12 12 -12 29t12 29t29 12
t29 -12t12 -29q0 -16 -12 -28.5t-29 -12.5t-29 12zM608 294.5q-12 12.5 -12 28.5q0 17 12 29t28 12q17 0 29 -12t12 -29t-12 -29t-29 -12q-16 0 -28 12.5zM136 168q-12 12 -12 29t12 28.5t29 11.5t29 -12t12 -28t-12 -28.5t-29 -12.5t-29 12zM576.5 168.5
q-12.5 12.5 -12.5 28.5t12 28t29 12t29 -11.5t12 -28.5t-12 -29t-29 -12q-16 0 -28.5 12.5zM230 73q-12 12 -12 29t12 28.5t28 11.5q17 0 29 -12t12 -28t-12 -28.5t-29 -12.5q-16 0 -28 12zM481.5 73.5q-12.5 12.5 -12.5 28.5t12 28t29 12t29 -11.5t12 -28.5t-12 -29
t-29 -12q-16 0 -28.5 12.5zM357 42q-12 12 -12 29t12 29t29 12q16 0 28.5 -12t12.5 -29q0 -16 -12.5 -28.5t-28.5 -12.5q-17 0 -29 12z" />
    <glyph glyph-name="i.loclTRK" horiz-adv-x="274" 
d="M90 0zM90 553h94v-553h-94v553zM91 794h94v-124h-94v124z" />
    <glyph glyph-name="uni09080902" horiz-adv-x="519" 
d="M381.5 727.5q9.5 -36.5 26.5 -80.5h121v-70h-125v-166h-180q-38 0 -56 -12t-18 -43q0 -19 7.5 -34t17.5 -22h119q180 0 180 -143q0 -75 -46.5 -113t-132.5 -38h-12q-76 0 -136 27v-95h-81v236h81v-67q60 -30 132 -30h13q95 0 95 75q0 41 -23.5 59t-69.5 18h-164
q-24 19 -45.5 55t-21.5 77q0 66 39 93.5t122 27.5h93v95h-327v70h335q-40 85 -40 158q0 87 49 125.5t122 38.5q47 0 78 -11v-74q-32 14 -68 14q-45 0 -69.5 -23t-24.5 -77q0 -34 9.5 -70.5zM480 844l68 -69l-68 -67l-68 67z" />
    <glyph glyph-name="uni093F0902" 
d="M0 0zM606 913q66 -23 97.5 -75.5t32.5 -142.5v-87h-88v87q0 74 -25 111t-69.5 48.5t-120.5 11.5h-30q-76 0 -120.5 -11.5t-69.5 -48.5t-25 -111v-48h110v-70h-110v-577h-87v577h-111v70h111v48q0 90 31.5 142.5t97 75.5t173.5 23h30q107 0 173 -23zM772 752l68 69l68 -69
l-68 -67z" />
    <glyph glyph-name="uni093F0930094D" 
d="M887 924v-73q-32 15 -69 15q-84 0 -84 -86v-161h-16v-11h-71v87q0 74 -25.5 111t-70 48.5t-119.5 11.5h-29q-76 0 -120.5 -11.5t-69.5 -48.5t-25 -111v-48h110v-70h-110v-577h-87v577h-111v70h111v48q0 90 31.5 142.5t97 75.5t173.5 23h29q94 0 153.5 -19.5t91.5 -64.5
q29 85 136 85q42 0 74 -13z" />
    <glyph glyph-name="uni093F0930094D0902" 
d="M825 896q-91 0 -91 -99v-178h-16v-11h-71v87q0 74 -25.5 111t-70 48.5t-119.5 11.5h-29q-76 0 -120.5 -11.5t-69.5 -48.5t-25 -111v-48h110v-70h-110v-577h-87v577h-111v70h111v48q0 90 31.5 142.5t97 75.5t173.5 23h29q89 0 147.5 -17.5t91.5 -57.5q14 58 55.5 82
t96.5 24q45 0 74 -12v-74q-32 15 -72 15zM904 766l-68 -68l-69 68l69 68z" />
    <glyph glyph-name="uni09400902" 
d="M0 0zM219 752l68 69l68 -69l-68 -67zM297 577h-110v-577h-87v577h-110v70h110v81q0 59 -10 89t-29 39.5t-51 9.5h-20q-32 0 -51 -9.5t-29 -39.5t-10 -89v-120h-87v124q0 77 18 121t56.5 63.5t102.5 19.5h20q64 0 102 -19.5t56.5 -64t18.5 -120.5v-85h110v-70z" />
    <glyph glyph-name="uni09400930094D" 
d="M188 780v-133h109v-70h-110v-577h-87v577h-110v70h110v81q0 59 -10 89t-29 39.5t-51 9.5h-20q-32 0 -51 -9.5t-29 -39.5t-10 -89v-120h-87v124q0 77 18 121t56.5 63.5t102.5 19.5h20q49 0 81.5 -13.5t50.5 -44.5q36 59 125 59q43 0 73 -13v-73q-30 15 -68 15
q-84 0 -84 -86z" />
    <glyph glyph-name="uni09400930094D0902" 
d="M187 647h110v-70h-110v-577h-87v577h-110v70h110v81q0 59 -10 89t-29 39.5t-51 9.5h-20q-32 0 -51 -9.5t-29 -39.5t-10 -89v-120h-87v124q0 77 18 121t56.5 63.5t102.5 19.5h20q44 0 74.5 -11t49.5 -35q35 77 142 77q45 0 74 -12v-74q-32 15 -72 15q-91 0 -91 -99v-150z
M287 834l69 -68l-69 -68l-68 68z" />
    <glyph glyph-name="uni094B0902" 
d="M187 647h110v-70h-110v-577h-87v577h-110v70h109l-29 128q-11 49 -34 66.5t-72 17.5h-82v70h82q60 0 95.5 -11t59 -44t38.5 -99zM259 714l-68 67l68 69l68 -69z" />
    <glyph glyph-name="uni094B0930094D" 
d="M158 795q0 -32 6.5 -63t21.5 -85h111v-70h-110v-577h-87v577h-110v70h109l-29 128q-11 49 -34 66.5t-72 17.5h-82v71h82q54 0 86 -11t54 -42q23 40 63.5 56t84.5 16q40 0 69 -11v-74q-28 14 -62 14q-96 0 -101 -83z" />
    <glyph glyph-name="uni094B0930094D0902" 
d="M165.5 729q7.5 -35 20.5 -82h111v-70h-110v-577h-87v577h-110v70h109l-29 128q-11 49 -34 66.5t-72 17.5h-82v71h82q52 0 84 -10t53 -38q22 47 67.5 67t100.5 20q43 0 72 -11v-74q-28 14 -69 14q-109 0 -114 -100q0 -34 7.5 -69zM286 844l68 -69l-68 -67l-68 67z" />
    <glyph glyph-name="uni094C0902" 
d="M187 647h110v-70h-110v-577h-87v577h-110v70h103l-52 65q-33 42 -68.5 58t-106.5 16h-92v71h92q61 0 98 -9t63 -29t56 -58l-23 102q-10 45 -35.5 61t-78.5 16h-82v70h82q60 0 95.5 -11t59 -42.5t37.5 -93.5zM259 714l-68 67l68 69l68 -69z" />
    <glyph glyph-name="uni094C0930094D" 
d="M158 795q0 -32 6.5 -63t21.5 -85h111v-70h-110v-577h-87v577h-110v70h90l-52 65q-24 30 -43.5 45.5t-46.5 22.5t-72 7h-92v70h92q58 0 94.5 -10t64 -32.5t61.5 -66.5l-25 110q-11 48 -36.5 65t-78.5 17h-82v71h82q51 0 83.5 -8.5t54.5 -32t37 -69.5q24 26 59.5 37
t71.5 11q40 0 69 -11v-74q-28 14 -62 14q-96 0 -101 -83z" />
    <glyph glyph-name="uni094C0930094D0902" 
d="M165.5 729q7.5 -35 20.5 -82h111v-70h-110v-577h-87v577h-110v70h90l-52 65q-24 30 -43.5 45.5t-46.5 22.5t-72 7h-92v70h92q58 0 94.5 -10t64 -32.5t61.5 -66.5l-25 110q-11 48 -36.5 65t-78.5 17h-82v71h82q50 0 81 -8t53.5 -30t37.5 -64q26 32 65.5 46t85.5 14
q43 0 72 -11v-74q-28 14 -69 14q-109 0 -114 -100q0 -34 7.5 -69zM286 844l68 -69l-68 -67l-68 67z" />
    <glyph glyph-name="uni093F.0" 
d="M544 913q54 -23 78.5 -75t23.5 -143v-94h-87v94q0 76 -17.5 112.5t-50.5 47.5t-93 11h-50q-57 0 -90 -11.5t-52 -48.5t-19 -111v-48h110v-70h-110v-577h-87v577h-110v70h110v48q0 90 26 142.5t79.5 75.5t142.5 23h50q92 0 146 -23z" />
    <glyph glyph-name="uni093F0902.0" 
d="M0 0zM683 752l68 69l68 -69l-68 -67zM544 913q54 -23 78.5 -75t23.5 -143v-94h-87v94q0 76 -17.5 112.5t-50.5 47.5t-93 11h-50q-57 0 -90 -11.5t-52 -48.5t-19 -111v-48h110v-70h-110v-577h-87v577h-110v70h110v48q0 90 26 142.5t79.5 75.5t142.5 23h50q92 0 146 -23z
" />
    <glyph glyph-name="uni093F0930094D.0" 
d="M808 955v-74q-32 15 -72 15q-90 0 -90 -99v-178h-17v-18h-70v94q0 76 -17.5 112.5t-50.5 47.5t-93 11h-50q-57 0 -90 -11.5t-52 -48.5t-19 -111v-48h110v-70h-110v-577h-87v577h-110v70h110v48q0 90 26 142.5t79.5 75.5t142.5 23h50q70 0 115.5 -15t72.5 -48
q31 94 149 94q46 0 73 -12z" />
    <glyph glyph-name="uni093F0930094D0902.0" 
d="M736 896q-90 0 -90 -99v-178h-17v-18h-70v94q0 76 -17.5 112.5t-50.5 47.5t-93 11h-50q-57 0 -90 -11.5t-52 -48.5t-19 -111v-48h110v-70h-110v-577h-87v577h-110v70h110v48q0 90 26 142.5t79.5 75.5t142.5 23h50q70 0 115.5 -15t72.5 -48q31 94 149 94q46 0 73 -12v-74
q-32 15 -72 15zM816 766l-69 -68l-68 68l68 68z" />
    <glyph glyph-name="uni093F.015" 
d="M584 913q60 -23 89 -75.5t30 -142.5v-87h-87v87q0 74 -22.5 111t-62.5 48.5t-106 11.5h-36q-71 0 -112.5 -11.5t-65 -48.5t-23.5 -111v-48h110v-70h-110v-577h-87v577h-111v70h111v48q0 90 30 142.5t92.5 75.5t165.5 23h36q99 0 159 -23z" />
    <glyph glyph-name="uni093F0902.015" horiz-adv-x="600" 
 />
    <glyph glyph-name="uni093F0930094D.015" 
d="M865 955v-74q-32 15 -72 15q-90 0 -90 -99v-178h-17v-11h-70v87q0 74 -22.5 111t-62.5 48.5t-106 11.5h-36q-71 0 -112.5 -11.5t-65 -48.5t-23.5 -111v-48h110v-70h-110v-577h-87v577h-111v70h111v48q0 90 30 142.5t92.5 75.5t165.5 23h36q80 0 132.5 -17t82.5 -55
q29 103 152 103q46 0 73 -12z" />
    <glyph glyph-name="uni093F0930094D0902.015" 
d="M793 896q-90 0 -90 -99v-178h-17v-11h-70v87q0 74 -22.5 111t-62.5 48.5t-106 11.5h-36q-71 0 -112.5 -11.5t-65 -48.5t-23.5 -111v-48h110v-70h-110v-577h-87v577h-111v70h111v48q0 90 30 142.5t92.5 75.5t165.5 23h36q80 0 132.5 -17t82.5 -55q29 103 152 103
q46 0 73 -12v-74q-32 15 -72 15zM873 766l-69 -67l-68 67l68 68z" />
    <glyph glyph-name="uni093F.045" 
d="M659 913q68 -23 100.5 -75.5t32.5 -142.5v-87h-88v87q0 74 -26 111t-72.5 48.5t-125.5 11.5h-49q-86 0 -136.5 -11.5t-78.5 -48.5t-28 -111v-48h110v-70h-110v-577h-87v577h-111v70h111v48q0 90 34 142.5t106 75.5t190 23h49q111 0 179 -23z" />
    <glyph glyph-name="uni093F0902.045" horiz-adv-x="600" 
 />
    <glyph glyph-name="uni093F0930094D.045" 
d="M954 955v-74q-32 15 -72 15q-90 0 -90 -99v-178h-17v-11h-71v87q0 74 -26 111t-72.5 48.5t-125.5 11.5h-49q-86 0 -136.5 -11.5t-78.5 -48.5t-28 -111v-48h110v-70h-110v-577h-87v577h-111v70h111v48q0 90 34 142.5t106 75.5t190 23h49q93 0 153.5 -18t94.5 -58
q26 107 152 107q45 0 74 -12z" />
    <glyph glyph-name="uni093F0930094D0902.045" 
d="M882 896q-90 0 -90 -99v-178h-17v-11h-71v87q0 74 -26 111t-72.5 48.5t-125.5 11.5h-49q-86 0 -136.5 -11.5t-78.5 -48.5t-28 -111v-48h110v-70h-110v-577h-87v577h-111v70h111v48q0 90 34 142.5t106 75.5t190 23h49q93 0 153.5 -18t94.5 -58q26 107 152 107q45 0 74 -12
v-74q-32 15 -72 15zM962 766l-69 -68l-68 68l68 68z" />
    <glyph glyph-name="uni093F.055" 
d="M726 913q68 -23 101 -75.5t34 -142.5v-94h-87v94q0 74 -26.5 111t-74 48.5t-127.5 11.5h-121q-84 0 -133 -11.5t-77 -48.5t-28 -111v-48h110v-70h-110v-577h-87v577h-110v70h110v48q0 90 33.5 142.5t104.5 75.5t187 23h121q112 0 180 -23z" />
    <glyph glyph-name="uni093F0902.055" horiz-adv-x="600" 
 />
    <glyph glyph-name="uni093F0930094D.055" 
d="M1023 955v-74q-32 15 -72 15q-90 0 -90 -99v-178h-17v-18h-70v94q0 74 -26.5 111t-74 48.5t-127.5 11.5h-121q-84 0 -133 -11.5t-77 -48.5t-28 -111v-48h110v-70h-110v-577h-87v577h-110v70h110v48q0 90 33.5 142.5t104.5 75.5t187 23h121q94 0 155.5 -18.5t95.5 -58.5
q26 108 153 108q46 0 73 -12z" />
    <glyph glyph-name="uni093F0930094D0902.055" 
d="M951 896q-90 0 -90 -99v-178h-17v-18h-70v94q0 74 -26.5 111t-74 48.5t-127.5 11.5h-121q-84 0 -133 -11.5t-77 -48.5t-28 -111v-48h110v-70h-110v-577h-87v577h-110v70h110v48q0 90 33.5 142.5t104.5 75.5t187 23h121q94 0 155.5 -18.5t95.5 -58.5q26 108 153 108
q46 0 73 -12v-74q-32 15 -72 15zM1032 766l-69 -68l-68 68l68 68z" />
    <glyph glyph-name="uni093F.057" 
d="M726.5 913q68.5 -23 101.5 -75.5t34 -142.5v-94h-88v94q0 74 -26.5 111t-74 48.5t-127.5 11.5h-121q-84 0 -133 -11.5t-77 -48.5t-28 -111v-48h110v-70h-110v-577h-87v577h-110v70h110v48q0 90 33.5 142.5t104.5 75.5t187 23h121q112 0 180.5 -23z" />
    <glyph glyph-name="uni093F0902.057" horiz-adv-x="600" 
 />
    <glyph glyph-name="uni093F0930094D.057" 
d="M1024 955v-74q-32 15 -72 15q-90 0 -90 -99v-178h-17v-18h-71v94q0 74 -26.5 111t-74 48.5t-127.5 11.5h-121q-84 0 -133 -11.5t-77 -48.5t-28 -111v-48h110v-70h-110v-577h-87v577h-110v70h110v48q0 90 33.5 142.5t104.5 75.5t187 23h121q95 0 156 -18t96 -59
q26 108 152 108q45 0 74 -12z" />
    <glyph glyph-name="uni093F0930094D0902.057" 
d="M952 896q-90 0 -90 -99v-178h-17v-18h-71v94q0 74 -26.5 111t-74 48.5t-127.5 11.5h-121q-84 0 -133 -11.5t-77 -48.5t-28 -111v-48h110v-70h-110v-577h-87v577h-110v70h110v48q0 90 33.5 142.5t104.5 75.5t187 23h121q95 0 156 -18t96 -59q26 108 152 108q45 0 74 -12
v-74q-32 15 -72 15zM1032 766l-68 -68l-68 68l68 68z" />
    <glyph glyph-name="uni093F.059" 
d="M837.5 913q68.5 -23 101.5 -75.5t34 -142.5v-94h-88v94q0 74 -26.5 111t-74 48.5t-127.5 11.5h-232q-84 0 -133 -11.5t-77 -48.5t-28 -111v-48h110v-70h-110v-577h-87v577h-110v70h110v48q0 90 33.5 142.5t104.5 75.5t187 23h232q112 0 180.5 -23z" />
    <glyph glyph-name="uni093F0902.059" horiz-adv-x="600" 
 />
    <glyph glyph-name="uni093F0930094D.059" 
d="M1135 955v-74q-32 15 -72 15q-90 0 -90 -99v-178h-17v-18h-71v94q0 74 -26.5 111t-74 48.5t-127.5 11.5h-232q-84 0 -133 -11.5t-77 -48.5t-28 -111v-48h110v-70h-110v-577h-87v577h-110v70h110v48q0 90 33.5 142.5t104.5 75.5t187 23h232q95 0 156 -18t96 -59
q26 108 152 108q45 0 74 -12z" />
    <glyph glyph-name="uni093F0930094D0902.059" 
d="M1063 896q-90 0 -90 -99v-178h-17v-18h-71v94q0 74 -26.5 111t-74 48.5t-127.5 11.5h-232q-84 0 -133 -11.5t-77 -48.5t-28 -111v-48h110v-70h-110v-577h-87v577h-110v70h110v48q0 90 33.5 142.5t104.5 75.5t187 23h232q95 0 156 -18t96 -59q26 108 152 108q45 0 74 -12
v-74q-32 15 -72 15zM1143 766l-68 -68l-68 68l68 68z" />
    <glyph glyph-name="uni093F.073" 
d="M817.5 913q69.5 -23 103.5 -75.5t35 -142.5v-94h-88v94q0 74 -27.5 111t-76 48.5t-131.5 11.5h-200q-86 0 -137.5 -11.5t-80 -48.5t-28.5 -111v-48h110v-70h-110v-577h-87v577h-110v70h110v48q0 90 34.5 142.5t107 75.5t191.5 23h200q115 0 184.5 -23z" />
    <glyph glyph-name="uni093F0902.073" horiz-adv-x="600" 
 />
    <glyph glyph-name="uni093F0930094D.073" 
d="M1118 955v-74q-32 15 -72 15q-90 0 -90 -99v-178h-17v-18h-71v94q0 74 -27.5 111t-76 48.5t-131.5 11.5h-200q-86 0 -137.5 -11.5t-80 -48.5t-28.5 -111v-48h110v-70h-110v-577h-87v577h-110v70h110v48q0 90 34.5 142.5t107 75.5t191.5 23h200q97 0 160 -18.5t98 -59.5
q14 60 56 84.5t97 24.5q45 0 74 -12z" />
    <glyph glyph-name="uni093F0930094D0902.073" 
d="M1046 896q-90 0 -90 -99v-178h-17v-18h-71v94q0 74 -27.5 111t-76 48.5t-131.5 11.5h-200q-86 0 -137.5 -11.5t-80 -48.5t-28.5 -111v-48h110v-70h-110v-577h-87v577h-110v70h110v48q0 90 34.5 142.5t107 75.5t191.5 23h200q97 0 160 -18.5t98 -59.5q14 60 56 84.5
t97 24.5q45 0 74 -12v-74q-32 15 -72 15zM1126 766l-68 -68l-68 68l68 68z" />
    <glyph glyph-name="uni093F.075" 
d="M887 913q70 -23 103.5 -75.5t34.5 -142.5v-94h-87v94q0 74 -27.5 111t-76.5 48.5t-132 11.5h-269q-86 0 -137.5 -11.5t-80 -48.5t-28.5 -111v-48h110v-70h-110v-577h-87v577h-110v70h110v48q0 90 34.5 142.5t107 75.5t191.5 23h269q115 0 185 -23z" />
    <glyph glyph-name="uni093F0902.075" horiz-adv-x="600" 
 />
    <glyph glyph-name="uni093F0930094D.075" 
d="M1187 955v-74q-32 15 -72 15q-90 0 -90 -99v-178h-17v-18h-70v94q0 74 -27.5 111t-76.5 48.5t-132 11.5h-269q-86 0 -137.5 -11.5t-80 -48.5t-28.5 -111v-48h110v-70h-110v-577h-87v577h-110v70h110v48q0 90 34.5 142.5t107 75.5t191.5 23h269q98 0 161 -18.5t98 -59.5
q14 60 55.5 84.5t97.5 24.5q46 0 73 -12z" />
    <glyph glyph-name="uni093F0930094D0902.075" 
d="M1115 896q-90 0 -90 -99v-178h-17v-18h-70v94q0 74 -27.5 111t-76.5 48.5t-132 11.5h-269q-86 0 -137.5 -11.5t-80 -48.5t-28.5 -111v-48h110v-70h-110v-577h-87v577h-110v70h110v48q0 90 34.5 142.5t107 75.5t191.5 23h269q98 0 161 -18.5t98 -59.5q14 60 55.5 84.5
t97.5 24.5q46 0 73 -12v-74q-32 15 -72 15zM1196 766l-69 -68l-68 68l68 68z" />
    <glyph glyph-name="uni093F.101" 
d="M944.5 913q69.5 -23 103 -75.5t34.5 -142.5v-94h-87v94q0 74 -27.5 111t-76.5 48.5t-131 11.5h-327q-86 0 -137.5 -11.5t-80 -48.5t-28.5 -111v-48h110v-70h-110v-577h-87v577h-110v70h110v48q0 90 34.5 142.5t107 75.5t191.5 23h327q115 0 184.5 -23z" />
    <glyph glyph-name="uni093F0902.101" horiz-adv-x="600" 
 />
    <glyph glyph-name="uni093F0930094D.101" 
d="M1244 955v-74q-32 15 -72 15q-90 0 -90 -99v-178h-17v-18h-70v94q0 74 -27.5 111t-76.5 48.5t-132 11.5h-326q-86 0 -137.5 -11.5t-80 -48.5t-28.5 -111v-48h110v-70h-110v-577h-87v577h-110v70h110v48q0 90 34.5 142.5t107 75.5t191.5 23h326q98 0 161 -18.5t98 -59.5
q14 60 55.5 84.5t97.5 24.5q46 0 73 -12z" />
    <glyph glyph-name="uni093F0930094D0902.101" 
d="M1173 896q-90 0 -90 -99v-178h-17v-18h-70v94q0 74 -27.5 111t-76.5 48.5t-132 11.5h-327q-86 0 -137.5 -11.5t-80 -48.5t-28.5 -111v-48h110v-70h-110v-577h-87v577h-110v70h110v48q0 90 34.5 142.5t107 75.5t191.5 23h327q98 0 161 -18.5t98 -59.5q14 60 55.5 84.5
t97.5 24.5q46 0 73 -12v-74q-32 15 -72 15zM1253 766l-69 -68l-68 68l68 68z" />
    <glyph glyph-name="uni093F.102" 
d="M978.5 913q69.5 -23 103 -75.5t34.5 -142.5v-94h-87v94q0 74 -27.5 111t-76.5 48.5t-131 11.5h-361q-86 0 -137.5 -11.5t-80 -48.5t-28.5 -111v-48h110v-70h-110v-577h-87v577h-110v70h110v48q0 90 34.5 142.5t107 75.5t191.5 23h361q115 0 184.5 -23z" />
    <glyph glyph-name="uni093F0902.102" horiz-adv-x="600" 
 />
    <glyph glyph-name="uni093F0930094D.102" 
d="M1279 955v-74q-32 15 -72 15q-91 0 -91 -99v-178h-16v-18h-71v94q0 74 -27.5 111t-76.5 48.5t-131 11.5h-361q-86 0 -137.5 -11.5t-80 -48.5t-28.5 -111v-48h110v-70h-110v-577h-87v577h-110v70h110v48q0 90 34.5 142.5t107 75.5t191.5 23h361q97 0 160 -18.5t98 -59.5
q14 60 55.5 84.5t97.5 24.5q45 0 74 -12z" />
    <glyph glyph-name="uni093F0930094D0902.102" 
d="M1207 896q-91 0 -91 -99v-178h-16v-18h-71v94q0 74 -27.5 111t-76.5 48.5t-131 11.5h-361q-86 0 -137.5 -11.5t-80 -48.5t-28.5 -111v-48h110v-70h-110v-577h-87v577h-110v70h110v48q0 90 34.5 142.5t107 75.5t191.5 23h361q97 0 160 -18.5t98 -59.5q14 60 55.5 84.5
t97.5 24.5q45 0 74 -12v-74q-32 15 -72 15zM1287 766l-68 -68l-69 68l69 68z" />
    <glyph glyph-name="uni093F.103" 
d="M1028.5 913q69.5 -23 103 -75.5t34.5 -142.5v-94h-87v94q0 74 -27.5 111t-76.5 48.5t-131 11.5h-411q-86 0 -137.5 -11.5t-80 -48.5t-28.5 -111v-48h110v-70h-110v-577h-87v577h-110v70h110v48q0 90 34.5 142.5t107 75.5t191.5 23h411q115 0 184.5 -23z" />
    <glyph glyph-name="uni093F0902.103" horiz-adv-x="600" 
 />
    <glyph glyph-name="uni093F0930094D.103" 
d="M1329 955v-74q-32 15 -72 15q-91 0 -91 -99v-178h-16v-18h-71v94q0 74 -27.5 111t-76.5 48.5t-131 11.5h-411q-86 0 -137.5 -11.5t-80 -48.5t-28.5 -111v-48h110v-70h-110v-577h-87v577h-110v70h110v48q0 90 34.5 142.5t107 75.5t191.5 23h411q97 0 160 -18.5t98 -59.5
q14 60 55.5 84.5t97.5 24.5q45 0 74 -12z" />
    <glyph glyph-name="uni093F0930094D0902.103" 
d="M1257 896q-91 0 -91 -99v-178h-16v-18h-71v94q0 74 -27.5 111t-76.5 48.5t-131 11.5h-411q-86 0 -137.5 -11.5t-80 -48.5t-28.5 -111v-48h110v-70h-110v-577h-87v577h-110v70h110v48q0 90 34.5 142.5t107 75.5t191.5 23h411q97 0 160 -18.5t98 -59.5q14 60 55.5 84.5
t97.5 24.5q45 0 74 -12v-74q-32 15 -72 15zM1337 766l-68 -68l-69 68l69 68z" />
    <glyph glyph-name="uni093F.104" 
d="M1104 913q70 -23 103.5 -75.5t34.5 -142.5v-94h-87v94q0 74 -27.5 111t-76.5 48.5t-132 11.5h-486q-86 0 -137.5 -11.5t-80 -48.5t-28.5 -111v-48h110v-70h-110v-577h-87v577h-110v70h110v48q0 90 34.5 142.5t107 75.5t191.5 23h486q115 0 185 -23z" />
    <glyph glyph-name="uni093F0902.104" horiz-adv-x="600" 
 />
    <glyph glyph-name="uni093F0930094D.104" 
d="M1404 955v-74q-32 15 -72 15q-90 0 -90 -99v-178h-17v-18h-70v94q0 74 -27.5 111t-76.5 48.5t-132 11.5h-486q-86 0 -137.5 -11.5t-80 -48.5t-28.5 -111v-48h110v-70h-110v-577h-87v577h-110v70h110v48q0 90 34.5 142.5t107 75.5t191.5 23h486q98 0 161 -18.5t98 -59.5
q14 60 55.5 84.5t97.5 24.5q46 0 73 -12z" />
    <glyph glyph-name="uni093F0930094D0902.104" 
d="M1332 896q-90 0 -90 -99v-178h-17v-18h-70v94q0 74 -27.5 111t-76.5 48.5t-132 11.5h-486q-86 0 -137.5 -11.5t-80 -48.5t-28.5 -111v-48h110v-70h-110v-577h-87v577h-110v70h110v48q0 90 34.5 142.5t107 75.5t191.5 23h486q98 0 161 -18.5t98 -59.5q14 60 55.5 84.5
t97.5 24.5q46 0 73 -12v-74q-32 15 -72 15zM1413 766l-69 -68l-68 68l68 68z" />
    <glyph glyph-name="uni093F.105" 
d="M1121.5 913q69.5 -23 103.5 -75.5t35 -142.5v-94h-88v94q0 74 -27.5 111t-76 48.5t-131.5 11.5h-504q-86 0 -137.5 -11.5t-80 -48.5t-28.5 -111v-48h110v-70h-110v-577h-87v577h-110v70h110v48q0 90 34.5 142.5t107 75.5t191.5 23h504q115 0 184.5 -23z" />
    <glyph glyph-name="uni093F0902.105" horiz-adv-x="600" 
 />
    <glyph glyph-name="uni093F0930094D.105" 
d="M1422 955v-74q-32 15 -72 15q-90 0 -90 -99v-178h-17v-18h-71v94q0 74 -27.5 111t-76 48.5t-131.5 11.5h-504q-86 0 -137.5 -11.5t-80 -48.5t-28.5 -111v-48h110v-70h-110v-577h-87v577h-110v70h110v48q0 90 34.5 142.5t107 75.5t191.5 23h504q97 0 160 -18.5t98 -59.5
q14 60 56 84.5t97 24.5q45 0 74 -12z" />
    <glyph glyph-name="uni093F0930094D0902.105" 
d="M1350 896q-90 0 -90 -99v-178h-17v-18h-71v94q0 74 -27.5 111t-76 48.5t-131.5 11.5h-504q-86 0 -137.5 -11.5t-80 -48.5t-28.5 -111v-48h110v-70h-110v-577h-87v577h-110v70h110v48q0 90 34.5 142.5t107 75.5t191.5 23h504q97 0 160 -18.5t98 -59.5q14 60 56 84.5
t97 24.5q45 0 74 -12v-74q-32 15 -72 15zM1434 766l-69 -68l-68 68l68 68z" />
    <glyph glyph-name="uni093F.106" 
d="M1180 913q70 -23 103.5 -75.5t34.5 -142.5v-94h-87v94q0 74 -27.5 111t-76.5 48.5t-132 11.5h-562q-86 0 -137.5 -11.5t-80 -48.5t-28.5 -111v-48h110v-70h-110v-577h-87v577h-110v70h110v48q0 90 34.5 142.5t107 75.5t191.5 23h562q115 0 185 -23z" />
    <glyph glyph-name="uni093F0902.106" horiz-adv-x="600" 
 />
    <glyph glyph-name="uni093F0930094D.106" 
d="M1480 955v-74q-32 15 -72 15q-90 0 -90 -99v-178h-17v-18h-70v94q0 74 -27.5 111t-76.5 48.5t-132 11.5h-562q-86 0 -137.5 -11.5t-80 -48.5t-28.5 -111v-48h110v-70h-110v-577h-87v577h-110v70h110v48q0 90 34.5 142.5t107 75.5t191.5 23h562q98 0 161 -18.5t98 -59.5
q14 60 55.5 84.5t97.5 24.5q46 0 73 -12z" />
    <glyph glyph-name="uni093F0930094D0902.106" 
d="M1408 896q-90 0 -90 -99v-178h-17v-18h-70v94q0 74 -27.5 111t-76.5 48.5t-132 11.5h-562q-86 0 -137.5 -11.5t-80 -48.5t-28.5 -111v-48h110v-70h-110v-577h-87v577h-110v70h110v48q0 90 34.5 142.5t107 75.5t191.5 23h562q98 0 161 -18.5t98 -59.5q14 60 55.5 84.5
t97.5 24.5q46 0 73 -12v-74q-32 15 -72 15zM1492 766l-68 -68l-69 68l69 68z" />
    <glyph glyph-name="uni093F.107" 
d="M1238.5 913q69.5 -23 103 -75.5t34.5 -142.5v-94h-87v94q0 74 -27.5 111t-76.5 48.5t-131 11.5h-621q-86 0 -137.5 -11.5t-80 -48.5t-28.5 -111v-48h110v-70h-110v-577h-87v577h-110v70h110v48q0 90 34.5 142.5t107 75.5t191.5 23h621q115 0 184.5 -23z" />
    <glyph glyph-name="uni093F0902.107" horiz-adv-x="600" 
 />
    <glyph glyph-name="uni093F0930094D.107" 
d="M1539 955v-74q-32 15 -72 15q-91 0 -91 -99v-178h-16v-18h-71v94q0 74 -27.5 111t-76.5 48.5t-131 11.5h-621q-86 0 -137.5 -11.5t-80 -48.5t-28.5 -111v-48h110v-70h-110v-577h-87v577h-110v70h110v48q0 90 34.5 142.5t107 75.5t191.5 23h621q97 0 160 -18.5t98 -59.5
q14 60 55.5 84.5t97.5 24.5q45 0 74 -12z" />
    <glyph glyph-name="uni093F0930094D0902.107" 
d="M1467 896q-91 0 -91 -99v-178h-16v-18h-71v94q0 74 -27.5 111t-76.5 48.5t-131 11.5h-621q-86 0 -137.5 -11.5t-80 -48.5t-28.5 -111v-48h110v-70h-110v-577h-87v577h-110v70h110v48q0 90 34.5 142.5t107 75.5t191.5 23h621q97 0 160 -18.5t98 -59.5q14 60 55.5 84.5
t97.5 24.5q45 0 74 -12v-74q-32 15 -72 15zM1550 766l-68 -68l-68 68l68 68z" />
    <glyph glyph-name="uni093F.108" 
d="M1296.5 913q69.5 -23 103.5 -75.5t35 -142.5v-94h-88v94q0 74 -27.5 111t-76 48.5t-131.5 11.5h-679q-86 0 -137.5 -11.5t-80 -48.5t-28.5 -111v-48h110v-70h-110v-577h-87v577h-110v70h110v48q0 90 34.5 142.5t107 75.5t191.5 23h679q115 0 184.5 -23z" />
    <glyph glyph-name="uni093F0902.108" horiz-adv-x="600" 
 />
    <glyph glyph-name="uni093F0930094D.108" 
d="M1597 955v-74q-32 15 -72 15q-90 0 -90 -99v-178h-17v-18h-71v94q0 74 -27.5 111t-76 48.5t-131.5 11.5h-679q-86 0 -137.5 -11.5t-80 -48.5t-28.5 -111v-48h110v-70h-110v-577h-87v577h-110v70h110v48q0 90 34.5 142.5t107 75.5t191.5 23h679q97 0 160 -18.5t98 -59.5
q14 60 56 84.5t97 24.5q45 0 74 -12z" />
    <glyph glyph-name="uni093F0930094D0902.108" 
d="M1525 896q-90 0 -90 -99v-178h-17v-18h-71v94q0 74 -27.5 111t-76 48.5t-131.5 11.5h-679q-86 0 -137.5 -11.5t-80 -48.5t-28.5 -111v-48h110v-70h-110v-577h-87v577h-110v70h110v48q0 90 34.5 142.5t107 75.5t191.5 23h679q97 0 160 -18.5t98 -59.5q14 60 56 84.5
t97 24.5q45 0 74 -12v-74q-32 15 -72 15zM1605 766l-68 -68l-68 68l68 68z" />
    <glyph glyph-name="uni093F.109" 
d="M1357.5 913q69.5 -23 103 -75.5t34.5 -142.5v-94h-87v94q0 74 -27.5 111t-76.5 48.5t-131 11.5h-740q-86 0 -137.5 -11.5t-80 -48.5t-28.5 -111v-48h110v-70h-110v-577h-87v577h-110v70h110v48q0 90 34.5 142.5t107 75.5t191.5 23h740q115 0 184.5 -23z" />
    <glyph glyph-name="uni093F0902.109" horiz-adv-x="600" 
 />
    <glyph glyph-name="uni093F0930094D.109" 
d="M1658 955v-74q-32 15 -72 15q-91 0 -91 -99v-178h-16v-18h-71v94q0 74 -27.5 111t-76.5 48.5t-131 11.5h-740q-86 0 -137.5 -11.5t-80 -48.5t-28.5 -111v-48h110v-70h-110v-577h-87v577h-110v70h110v48q0 90 34.5 142.5t107 75.5t191.5 23h740q97 0 160 -18.5t98 -59.5
q14 60 55.5 84.5t97.5 24.5q45 0 74 -12z" />
    <glyph glyph-name="uni093F0930094D0902.109" 
d="M1586 896q-91 0 -91 -99v-178h-16v-18h-71v94q0 74 -27.5 111t-76.5 48.5t-131 11.5h-740q-86 0 -137.5 -11.5t-80 -48.5t-28.5 -111v-48h110v-70h-110v-577h-87v577h-110v70h110v48q0 90 34.5 142.5t107 75.5t191.5 23h740q97 0 160 -18.5t98 -59.5q14 60 55.5 84.5
t97.5 24.5q45 0 74 -12v-74q-32 15 -72 15zM1666 766l-68 -68l-69 68l69 68z" />
    <glyph glyph-name="uni093F.110" 
d="M1371.5 913q69.5 -23 103.5 -75.5t35 -142.5v-94h-88v94q0 74 -27.5 111t-76 48.5t-131.5 11.5h-754q-86 0 -137.5 -11.5t-80 -48.5t-28.5 -111v-48h110v-70h-110v-577h-87v577h-110v70h110v48q0 90 34.5 142.5t107 75.5t191.5 23h754q115 0 184.5 -23z" />
    <glyph glyph-name="uni093F0902.110" horiz-adv-x="600" 
 />
    <glyph glyph-name="uni093F0930094D.110" 
d="M1672 955v-74q-32 15 -72 15q-90 0 -90 -99v-178h-17v-18h-71v94q0 74 -27.5 111t-76 48.5t-131.5 11.5h-754q-86 0 -137.5 -11.5t-80 -48.5t-28.5 -111v-48h110v-70h-110v-577h-87v577h-110v70h110v48q0 90 34.5 142.5t107 75.5t191.5 23h754q97 0 160 -18.5t98 -59.5
q14 60 56 84.5t97 24.5q45 0 74 -12z" />
    <glyph glyph-name="uni093F0930094D0902.110" 
d="M1600 896q-90 0 -90 -99v-178h-17v-18h-71v94q0 74 -27.5 111t-76 48.5t-131.5 11.5h-754q-86 0 -137.5 -11.5t-80 -48.5t-28.5 -111v-48h110v-70h-110v-577h-87v577h-110v70h110v48q0 90 34.5 142.5t107 75.5t191.5 23h754q97 0 160 -18.5t98 -59.5q14 60 56 84.5
t97 24.5q45 0 74 -12v-74q-32 15 -72 15zM1680 766l-68 -68l-68 68l68 68z" />
    <glyph glyph-name="uni093F.111" 
d="M1421.5 913q69.5 -23 103.5 -75.5t35 -142.5v-94h-88v94q0 74 -27.5 111t-76 48.5t-131.5 11.5h-804q-86 0 -137.5 -11.5t-80 -48.5t-28.5 -111v-48h110v-70h-110v-577h-87v577h-110v70h110v48q0 90 34.5 142.5t107 75.5t191.5 23h804q115 0 184.5 -23z" />
    <glyph glyph-name="uni093F0902.111" horiz-adv-x="600" 
 />
    <glyph glyph-name="uni093F0930094D.111" 
d="M1722 955v-74q-32 15 -72 15q-90 0 -90 -99v-178h-17v-18h-71v94q0 74 -27.5 111t-76 48.5t-131.5 11.5h-804q-86 0 -137.5 -11.5t-80 -48.5t-28.5 -111v-48h110v-70h-110v-577h-87v577h-110v70h110v48q0 90 34.5 142.5t107 75.5t191.5 23h804q97 0 160 -18.5t98 -59.5
q14 60 56 84.5t97 24.5q45 0 74 -12z" />
    <glyph glyph-name="uni093F0930094D0902.111" 
d="M1650 896q-90 0 -90 -99v-178h-17v-18h-71v94q0 74 -27.5 111t-76 48.5t-131.5 11.5h-804q-86 0 -137.5 -11.5t-80 -48.5t-28.5 -111v-48h110v-70h-110v-577h-87v577h-110v70h110v48q0 90 34.5 142.5t107 75.5t191.5 23h804q97 0 160 -18.5t98 -59.5q14 60 56 84.5
t97 24.5q45 0 74 -12v-74q-32 15 -72 15zM1730 766l-68 -68l-68 68l68 68z" />
    <glyph glyph-name="uni093F.112" 
d="M1471.5 913q69.5 -23 103.5 -75.5t35 -142.5v-94h-88v94q0 74 -27.5 111t-76 48.5t-131.5 11.5h-854q-86 0 -137.5 -11.5t-80 -48.5t-28.5 -111v-48h110v-70h-110v-577h-87v577h-110v70h110v48q0 90 34.5 142.5t107 75.5t191.5 23h854q115 0 184.5 -23z" />
    <glyph glyph-name="uni093F0902.112" horiz-adv-x="600" 
 />
    <glyph glyph-name="uni093F0930094D.112" 
d="M1772 955v-74q-32 15 -72 15q-90 0 -90 -99v-178h-17v-18h-71v94q0 74 -27.5 111t-76 48.5t-131.5 11.5h-854q-86 0 -137.5 -11.5t-80 -48.5t-28.5 -111v-48h110v-70h-110v-577h-87v577h-110v70h110v48q0 90 34.5 142.5t107 75.5t191.5 23h854q97 0 160 -18.5t98 -59.5
q14 60 56 84.5t97 24.5q45 0 74 -12z" />
    <glyph glyph-name="uni093F0930094D0902.112" 
d="M1700 896q-90 0 -90 -99v-178h-17v-18h-71v94q0 74 -27.5 111t-76 48.5t-131.5 11.5h-854q-86 0 -137.5 -11.5t-80 -48.5t-28.5 -111v-48h110v-70h-110v-577h-87v577h-110v70h110v48q0 90 34.5 142.5t107 75.5t191.5 23h854q97 0 160 -18.5t98 -59.5q14 60 56 84.5
t97 24.5q45 0 74 -12v-74q-32 15 -72 15zM1780 766l-68 -68l-68 68l68 68z" />
    <glyph glyph-name="uni093F.113" 
d="M1521.5 913q69.5 -23 103.5 -75.5t35 -142.5v-94h-88v94q0 74 -27.5 111t-76 48.5t-131.5 11.5h-904q-86 0 -137.5 -11.5t-80 -48.5t-28.5 -111v-48h110v-70h-110v-577h-87v577h-110v70h110v48q0 90 34.5 142.5t107 75.5t191.5 23h904q115 0 184.5 -23z" />
    <glyph glyph-name="uni093F0902.113" horiz-adv-x="600" 
 />
    <glyph glyph-name="uni093F0930094D.113" 
d="M1822 955v-74q-32 15 -72 15q-90 0 -90 -99v-178h-17v-18h-71v94q0 74 -27.5 111t-76 48.5t-131.5 11.5h-904q-86 0 -137.5 -11.5t-80 -48.5t-28.5 -111v-48h110v-70h-110v-577h-87v577h-110v70h110v48q0 90 34.5 142.5t107 75.5t191.5 23h904q97 0 160 -18.5t98 -59.5
q14 60 56 84.5t97 24.5q45 0 74 -12z" />
    <glyph glyph-name="uni093F0930094D0902.113" 
d="M1750 896q-90 0 -90 -99v-178h-17v-18h-71v94q0 74 -27.5 111t-76 48.5t-131.5 11.5h-904q-86 0 -137.5 -11.5t-80 -48.5t-28.5 -111v-48h110v-70h-110v-577h-87v577h-110v70h110v48q0 90 34.5 142.5t107 75.5t191.5 23h904q97 0 160 -18.5t98 -59.5q14 60 56 84.5
t97 24.5q45 0 74 -12v-74q-32 15 -72 15zM1830 766l-68 -68l-68 68l68 68z" />
    <glyph glyph-name="uni093F.114" 
d="M1571.5 913q69.5 -23 103.5 -75.5t35 -142.5v-94h-88v94q0 74 -27.5 111t-76 48.5t-131.5 11.5h-954q-86 0 -137.5 -11.5t-80 -48.5t-28.5 -111v-48h110v-70h-110v-577h-87v577h-110v70h110v48q0 90 34.5 142.5t107 75.5t191.5 23h954q115 0 184.5 -23z" />
    <glyph glyph-name="uni093F0902.114" horiz-adv-x="600" 
 />
    <glyph glyph-name="uni093F0930094D.114" 
d="M1872 955v-74q-32 15 -72 15q-90 0 -90 -99v-178h-17v-18h-71v94q0 74 -27.5 111t-76 48.5t-131.5 11.5h-954q-86 0 -137.5 -11.5t-80 -48.5t-28.5 -111v-48h110v-70h-110v-577h-87v577h-110v70h110v48q0 90 34.5 142.5t107 75.5t191.5 23h954q97 0 160 -18.5t98 -59.5
q14 60 56 84.5t97 24.5q45 0 74 -12z" />
    <glyph glyph-name="uni093F0930094D0902.114" 
d="M1800 896q-90 0 -90 -99v-178h-17v-18h-71v94q0 74 -27.5 111t-76 48.5t-131.5 11.5h-954q-86 0 -137.5 -11.5t-80 -48.5t-28.5 -111v-48h110v-70h-110v-577h-87v577h-110v70h110v48q0 90 34.5 142.5t107 75.5t191.5 23h954q97 0 160 -18.5t98 -59.5q14 60 56 84.5
t97 24.5q45 0 74 -12v-74q-32 15 -72 15zM1880 766l-68 -68l-68 68l68 68z" />
    <glyph glyph-name="uni093F.115" 
d="M1621.5 913q69.5 -23 103.5 -75.5t35 -142.5v-94h-88v94q0 74 -27.5 111t-76 48.5t-131.5 11.5h-1004q-86 0 -137.5 -11.5t-80 -48.5t-28.5 -111v-48h110v-70h-110v-577h-87v577h-110v70h110v48q0 90 34.5 142.5t107 75.5t191.5 23h1004q115 0 184.5 -23z" />
    <glyph glyph-name="uni093F0902.115" horiz-adv-x="600" 
 />
    <glyph glyph-name="uni093F0930094D.115" 
d="M1922 955v-74q-32 15 -72 15q-90 0 -90 -99v-178h-17v-18h-71v94q0 74 -27.5 111t-76 48.5t-131.5 11.5h-1004q-86 0 -137.5 -11.5t-80 -48.5t-28.5 -111v-48h110v-70h-110v-577h-87v577h-110v70h110v48q0 90 34.5 142.5t107 75.5t191.5 23h1004q97 0 160 -18.5t98 -59.5
q14 60 56 84.5t97 24.5q45 0 74 -12z" />
    <glyph glyph-name="uni093F0930094D0902.115" 
d="M1850 896q-90 0 -90 -99v-178h-17v-18h-71v94q0 74 -27.5 111t-76 48.5t-131.5 11.5h-1004q-86 0 -137.5 -11.5t-80 -48.5t-28.5 -111v-48h110v-70h-110v-577h-87v577h-110v70h110v48q0 90 34.5 142.5t107 75.5t191.5 23h1004q97 0 160 -18.5t98 -59.5q14 60 56 84.5
t97 24.5q45 0 74 -12v-74q-32 15 -72 15zM1930 766l-68 -68l-68 68l68 68z" />
    <glyph glyph-name="uni093F.116" 
d="M1671.5 913q69.5 -23 103.5 -75.5t35 -142.5v-94h-88v94q0 74 -27.5 111t-76 48.5t-131.5 11.5h-1054q-86 0 -137.5 -11.5t-80 -48.5t-28.5 -111v-48h110v-70h-110v-577h-87v577h-110v70h110v48q0 90 34.5 142.5t107 75.5t191.5 23h1054q115 0 184.5 -23z" />
    <glyph glyph-name="uni093F0902.116" horiz-adv-x="600" 
 />
    <glyph glyph-name="uni093F0930094D.116" 
d="M1972 955v-74q-32 15 -72 15q-90 0 -90 -99v-178h-17v-18h-71v94q0 74 -27.5 111t-76 48.5t-131.5 11.5h-1054q-86 0 -137.5 -11.5t-80 -48.5t-28.5 -111v-48h110v-70h-110v-577h-87v577h-110v70h110v48q0 90 34.5 142.5t107 75.5t191.5 23h1054q97 0 160 -18.5t98 -59.5
q14 60 56 84.5t97 24.5q45 0 74 -12z" />
    <glyph glyph-name="uni093F0930094D0902.116" 
d="M1900 896q-90 0 -90 -99v-178h-17v-18h-71v94q0 74 -27.5 111t-76 48.5t-131.5 11.5h-1054q-86 0 -137.5 -11.5t-80 -48.5t-28.5 -111v-48h110v-70h-110v-577h-87v577h-110v70h110v48q0 90 34.5 142.5t107 75.5t191.5 23h1054q97 0 160 -18.5t98 -59.5q14 60 56 84.5
t97 24.5q45 0 74 -12v-74q-32 15 -72 15zM1980 766l-68 -68l-68 68l68 68z" />
    <glyph glyph-name="uni093F.117" 
d="M1721.5 913q69.5 -23 103.5 -75.5t35 -142.5v-94h-88v94q0 74 -27.5 111t-76 48.5t-131.5 11.5h-1104q-86 0 -137.5 -11.5t-80 -48.5t-28.5 -111v-48h110v-70h-110v-577h-87v577h-110v70h110v48q0 90 34.5 142.5t107 75.5t191.5 23h1104q115 0 184.5 -23z" />
    <glyph glyph-name="uni093F0902.117" horiz-adv-x="600" 
 />
    <glyph glyph-name="uni093F0930094D.117" 
d="M2022 955v-74q-32 15 -72 15q-90 0 -90 -99v-178h-17v-18h-71v94q0 74 -27.5 111t-76 48.5t-131.5 11.5h-1104q-86 0 -137.5 -11.5t-80 -48.5t-28.5 -111v-48h110v-70h-110v-577h-87v577h-110v70h110v48q0 90 34.5 142.5t107 75.5t191.5 23h1104q97 0 160 -18.5t98 -59.5
q14 60 56 84.5t97 24.5q45 0 74 -12z" />
    <glyph glyph-name="uni093F0930094D0902.117" 
d="M1950 896q-90 0 -90 -99v-178h-17v-18h-71v94q0 74 -27.5 111t-76 48.5t-131.5 11.5h-1104q-86 0 -137.5 -11.5t-80 -48.5t-28.5 -111v-48h110v-70h-110v-577h-87v577h-110v70h110v48q0 90 34.5 142.5t107 75.5t191.5 23h1104q97 0 160 -18.5t98 -59.5q14 60 56 84.5
t97 24.5q45 0 74 -12v-74q-32 15 -72 15zM2030 766l-68 -68l-68 68l68 68z" />
    <glyph glyph-name="uni093F.118" 
d="M1771.5 913q69.5 -23 103.5 -75.5t35 -142.5v-94h-88v94q0 74 -27.5 111t-76 48.5t-131.5 11.5h-1154q-86 0 -137.5 -11.5t-80 -48.5t-28.5 -111v-48h110v-70h-110v-577h-87v577h-110v70h110v48q0 90 34.5 142.5t107 75.5t191.5 23h1154q115 0 184.5 -23z" />
    <glyph glyph-name="uni093F0902.118" horiz-adv-x="600" 
 />
    <glyph glyph-name="uni093F0930094D.118" 
d="M2072 955v-74q-32 15 -72 15q-90 0 -90 -99v-178h-17v-18h-71v94q0 74 -27.5 111t-76 48.5t-131.5 11.5h-1154q-86 0 -137.5 -11.5t-80 -48.5t-28.5 -111v-48h110v-70h-110v-577h-87v577h-110v70h110v48q0 90 34.5 142.5t107 75.5t191.5 23h1154q97 0 160 -18.5t98 -59.5
q14 60 56 84.5t97 24.5q45 0 74 -12z" />
    <glyph glyph-name="uni093F0930094D0902.118" 
d="M2000 896q-90 0 -90 -99v-178h-17v-18h-71v94q0 74 -27.5 111t-76 48.5t-131.5 11.5h-1154q-86 0 -137.5 -11.5t-80 -48.5t-28.5 -111v-48h110v-70h-110v-577h-87v577h-110v70h110v48q0 90 34.5 142.5t107 75.5t191.5 23h1154q97 0 160 -18.5t98 -59.5q14 60 56 84.5
t97 24.5q45 0 74 -12v-74q-32 15 -72 15zM2080 766l-68 -68l-68 68l68 68z" />
    <glyph glyph-name="uni093F.119" 
d="M1821.5 913q69.5 -23 103.5 -75.5t35 -142.5v-94h-88v94q0 74 -27.5 111t-76 48.5t-131.5 11.5h-1204q-86 0 -137.5 -11.5t-80 -48.5t-28.5 -111v-48h110v-70h-110v-577h-87v577h-110v70h110v48q0 90 34.5 142.5t107 75.5t191.5 23h1204q115 0 184.5 -23z" />
    <glyph glyph-name="uni093F0902.119" horiz-adv-x="600" 
 />
    <glyph glyph-name="uni093F0930094D.119" 
d="M2122 955v-74q-32 15 -72 15q-90 0 -90 -99v-178h-17v-18h-71v94q0 74 -27.5 111t-76 48.5t-131.5 11.5h-1204q-86 0 -137.5 -11.5t-80 -48.5t-28.5 -111v-48h110v-70h-110v-577h-87v577h-110v70h110v48q0 90 34.5 142.5t107 75.5t191.5 23h1204q97 0 160 -18.5t98 -59.5
q14 60 56 84.5t97 24.5q45 0 74 -12z" />
    <glyph glyph-name="uni093F0930094D0902.119" 
d="M2050 896q-90 0 -90 -99v-178h-17v-18h-71v94q0 74 -27.5 111t-76 48.5t-131.5 11.5h-1204q-86 0 -137.5 -11.5t-80 -48.5t-28.5 -111v-48h110v-70h-110v-577h-87v577h-110v70h110v48q0 90 34.5 142.5t107 75.5t191.5 23h1204q97 0 160 -18.5t98 -59.5q14 60 56 84.5
t97 24.5q45 0 74 -12v-74q-32 15 -72 15zM2130 766l-68 -68l-68 68l68 68z" />
    <glyph glyph-name="uni093F.120" 
d="M1871.5 913q69.5 -23 103.5 -75.5t35 -142.5v-94h-88v94q0 74 -27.5 111t-76 48.5t-131.5 11.5h-1254q-86 0 -137.5 -11.5t-80 -48.5t-28.5 -111v-48h110v-70h-110v-577h-87v577h-110v70h110v48q0 90 34.5 142.5t107 75.5t191.5 23h1254q115 0 184.5 -23z" />
    <glyph glyph-name="uni093F0902.120" horiz-adv-x="600" 
 />
    <glyph glyph-name="uni093F0930094D.120" 
d="M2172 955v-74q-32 15 -72 15q-90 0 -90 -99v-178h-17v-18h-71v94q0 74 -27.5 111t-76 48.5t-131.5 11.5h-1254q-86 0 -137.5 -11.5t-80 -48.5t-28.5 -111v-48h110v-70h-110v-577h-87v577h-110v70h110v48q0 90 34.5 142.5t107 75.5t191.5 23h1254q97 0 160 -18.5t98 -59.5
q14 60 56 84.5t97 24.5q45 0 74 -12z" />
    <glyph glyph-name="uni093F0930094D0902.120" 
d="M2100 896q-90 0 -90 -99v-178h-17v-18h-71v94q0 74 -27.5 111t-76 48.5t-131.5 11.5h-1254q-86 0 -137.5 -11.5t-80 -48.5t-28.5 -111v-48h110v-70h-110v-577h-87v577h-110v70h110v48q0 90 34.5 142.5t107 75.5t191.5 23h1254q97 0 160 -18.5t98 -59.5q14 60 56 84.5
t97 24.5q45 0 74 -12v-74q-32 15 -72 15zM2180 766l-68 -68l-68 68l68 68z" />
    <glyph glyph-name="uni093F.121" 
d="M1921.5 913q69.5 -23 103.5 -75.5t35 -142.5v-94h-88v94q0 74 -27.5 111t-76 48.5t-131.5 11.5h-1304q-86 0 -137.5 -11.5t-80 -48.5t-28.5 -111v-48h110v-70h-110v-577h-87v577h-110v70h110v48q0 90 34.5 142.5t107 75.5t191.5 23h1304q115 0 184.5 -23z" />
    <glyph glyph-name="uni093F0902.121" horiz-adv-x="600" 
 />
    <glyph glyph-name="uni093F0930094D.121" 
d="M2222 955v-74q-32 15 -72 15q-90 0 -90 -99v-178h-17v-18h-71v94q0 74 -27.5 111t-76 48.5t-131.5 11.5h-1304q-86 0 -137.5 -11.5t-80 -48.5t-28.5 -111v-48h110v-70h-110v-577h-87v577h-110v70h110v48q0 90 34.5 142.5t107 75.5t191.5 23h1304q97 0 160 -18.5t98 -59.5
q14 60 56 84.5t97 24.5q45 0 74 -12z" />
    <glyph glyph-name="uni093F0930094D0902.121" 
d="M2150 896q-90 0 -90 -99v-178h-17v-18h-71v94q0 74 -27.5 111t-76 48.5t-131.5 11.5h-1304q-86 0 -137.5 -11.5t-80 -48.5t-28.5 -111v-48h110v-70h-110v-577h-87v577h-110v70h110v48q0 90 34.5 142.5t107 75.5t191.5 23h1304q97 0 160 -18.5t98 -59.5q14 60 56 84.5
t97 24.5q45 0 74 -12v-74q-32 15 -72 15zM2230 766l-68 -68l-68 68l68 68z" />
    <glyph glyph-name="uni093F.01" 
d="M558.5 913q60.5 -23 90 -75.5t30.5 -142.5v-87h-87v87q0 74 -23 111t-63 48.5t-108 11.5h-16q-69 0 -109 -11.5t-62.5 -48.5t-22.5 -111v-48h110v-70h-110v-577h-87v577h-111v70h111v48q0 90 29 142.5t90.5 75.5t161.5 23h16q100 0 160.5 -23z" />
    <glyph glyph-name="uni093F.02" 
d="M622 913q65 -23 96.5 -75.5t32.5 -142.5v-87h-88v87q0 74 -25 111t-69 48.5t-119 11.5h-34q-80 0 -127.5 -11.5t-74 -48.5t-26.5 -111v-48h110v-70h-110v-577h-87v577h-111v70h111v48q0 90 32.5 142.5t101 75.5t181.5 23h34q107 0 172 -23z" />
    <glyph glyph-name="uni093F.03" 
d="M636.5 913q65.5 -23 97 -75.5t32.5 -142.5v-87h-87v87q0 74 -25.5 111t-70 48.5t-119.5 11.5h-41q-83 0 -131.5 -11.5t-76 -48.5t-27.5 -111v-48h110v-70h-110v-577h-87v577h-111v70h111v48q0 90 33.5 142.5t103.5 75.5t185 23h41q107 0 172.5 -23z" />
    <glyph glyph-name="uni093F.04" 
d="M674.5 913q67.5 -23 100 -75.5t32.5 -142.5v-87h-87v87q0 74 -26 111t-72.5 48.5t-125.5 11.5h-65q-86 0 -136.5 -11.5t-78.5 -48.5t-28 -111v-48h110v-70h-110v-577h-87v577h-111v70h111v48q0 90 34 142.5t106 75.5t190 23h65q111 0 178.5 -23z" />
    <glyph glyph-name="uni093F.05" 
d="M666.5 913q68.5 -23 101.5 -75.5t34 -142.5v-94h-88v94q0 74 -26.5 111t-74 48.5t-127.5 11.5h-61q-84 0 -133 -11.5t-77 -48.5t-28 -111v-48h110v-70h-110v-577h-87v577h-110v70h110v48q0 90 33.5 142.5t104.5 75.5t187 23h61q112 0 180.5 -23z" />
    <glyph glyph-name="uni093F.06" 
d="M764 913q70 -23 103.5 -75.5t34.5 -142.5v-94h-87v94q0 74 -27.5 111t-76.5 48.5t-132 11.5h-146q-86 0 -137.5 -11.5t-80 -48.5t-28.5 -111v-48h110v-70h-110v-577h-87v577h-110v70h110v48q0 90 34.5 142.5t107 75.5t191.5 23h146q115 0 185 -23z" />
    <glyph glyph-name="uni093F.07" 
d="M817 913q70 -23 103.5 -75.5t34.5 -142.5v-94h-87v94q0 74 -27.5 111t-76.5 48.5t-132 11.5h-199q-86 0 -137.5 -11.5t-80 -48.5t-28.5 -111v-48h110v-70h-110v-577h-87v577h-110v70h110v48q0 90 34.5 142.5t107 75.5t191.5 23h199q115 0 185 -23z" />
    <glyph glyph-name="uni093F.10" 
d="M909.5 913q69.5 -23 103 -75.5t34.5 -142.5v-94h-87v94q0 74 -27.5 111t-76.5 48.5t-131 11.5h-292q-86 0 -137.5 -11.5t-80 -48.5t-28.5 -111v-48h110v-70h-110v-577h-87v577h-110v70h110v48q0 90 34.5 142.5t107 75.5t191.5 23h292q115 0 184.5 -23z" />
    <glyph glyph-name="uni093F0902.01" 
d="M558.5 913q60.5 -23 90 -75.5t30.5 -142.5v-87h-87v87q0 74 -23 111t-63 48.5t-108 11.5h-16q-69 0 -109 -11.5t-62.5 -48.5t-22.5 -111v-48h110v-70h-110v-577h-87v577h-111v70h111v48q0 90 29 142.5t90.5 75.5t161.5 23h16q100 0 160.5 -23zM852 752l-68 -67l-68 67
l68 69z" />
    <glyph glyph-name="uni093F0902.02" 
d="M610 913q65 -23 96.5 -75.5t32.5 -142.5v-87h-88v87q0 74 -25 111t-69 48.5t-119 11.5h-22q-80 0 -127.5 -11.5t-74 -48.5t-26.5 -111v-48h110v-70h-110v-577h-87v577h-111v70h111v48q0 90 32.5 142.5t101 75.5t181.5 23h22q107 0 172 -23zM913 752l-69 -67l-68 67l68 69
z" />
    <glyph glyph-name="uni093F0902.03" 
d="M621.5 913q65.5 -23 97 -75.5t32.5 -142.5v-87h-87v87q0 74 -25.5 111t-70 48.5t-119.5 11.5h-26q-83 0 -131.5 -11.5t-76 -48.5t-27.5 -111v-48h110v-70h-110v-577h-87v577h-111v70h111v48q0 90 33.5 142.5t103.5 75.5t185 23h26q107 0 172.5 -23zM929 752l-69 -67
l-68 67l68 69z" />
    <glyph glyph-name="uni093F0902.04" 
d="M636 913q68 -23 100.5 -75.5t32.5 -142.5v-87h-88v87q0 74 -26 111t-72.5 48.5t-125.5 11.5h-26q-86 0 -136.5 -11.5t-78.5 -48.5t-28 -111v-48h110v-70h-110v-577h-87v577h-111v70h111v48q0 90 34 142.5t106 75.5t190 23h26q111 0 179 -23zM943 752l-69 -67l-68 67
l68 69z" />
    <glyph glyph-name="uni093F0902.05" 
d="M657.5 913q68.5 -23 101.5 -75.5t34 -142.5v-94h-88v94q0 74 -26.5 111t-74 48.5t-127.5 11.5h-52q-84 0 -133 -11.5t-77 -48.5t-28 -111v-48h110v-70h-110v-577h-87v577h-110v70h110v48q0 90 33.5 142.5t104.5 75.5t187 23h52q112 0 180.5 -23zM963 759l-68 -67l-68 67
l68 68z" />
    <glyph glyph-name="uni093F0902.06" 
d="M752 913q70 -23 103.5 -75.5t34.5 -142.5v-94h-87v94q0 74 -27.5 111t-76.5 48.5t-132 11.5h-134q-86 0 -137.5 -11.5t-80 -48.5t-28.5 -111v-48h110v-70h-110v-577h-87v577h-110v70h110v48q0 90 34.5 142.5t107 75.5t191.5 23h134q115 0 185 -23zM1064 752l-68 -67
l-69 67l69 69z" />
    <glyph glyph-name="uni093F0902.07" 
d="M817 913q70 -23 103.5 -75.5t34.5 -142.5v-94h-87v94q0 74 -27.5 111t-76.5 48.5t-132 11.5h-199q-86 0 -137.5 -11.5t-80 -48.5t-28.5 -111v-48h110v-70h-110v-577h-87v577h-110v70h110v48q0 90 34.5 142.5t107 75.5t191.5 23h199q115 0 185 -23zM1129 752l-68 -67
l-69 67l69 69z" />
    <glyph glyph-name="uni093F0902.10" 
d="M843.5 913q69.5 -23 103 -75.5t34.5 -142.5v-94h-87v94q0 74 -27.5 111t-76.5 48.5t-131 11.5h-226q-86 0 -137.5 -11.5t-80 -48.5t-28.5 -111v-48h110v-70h-110v-577h-87v577h-110v70h110v48q0 90 34.5 142.5t107 75.5t191.5 23h226q115 0 184.5 -23zM1155 752l-68 -67
l-68 67l68 69z" />
    <glyph glyph-name="uni093F0930094D.01" 
d="M842 955v-74q-32 15 -72 15q-91 0 -91 -99v-178h-16v-11h-71v87q0 74 -23 111t-63 48.5t-108 11.5h-16q-69 0 -109 -11.5t-62.5 -48.5t-22.5 -111v-48h110v-70h-110v-577h-87v577h-111v70h111v48q0 90 29 142.5t90.5 75.5t161.5 23h16q81 0 134.5 -17t84.5 -55
q15 56 56 79.5t95 23.5q45 0 74 -12z" />
    <glyph glyph-name="uni093F0930094D.02" 
d="M913 955v-74q-32 15 -72 15q-90 0 -90 -99v-178h-17v-11h-71v87q0 74 -25 111t-69 48.5t-119 11.5h-34q-80 0 -127.5 -11.5t-74 -48.5t-26.5 -111v-48h110v-70h-110v-577h-87v577h-111v70h111v48q0 90 32.5 142.5t101 75.5t181.5 23h34q89 0 147 -17.5t90 -57.5
q27 106 152 106q45 0 74 -12z" />
    <glyph glyph-name="uni093F0930094D.03" 
d="M929 955v-74q-32 15 -72 15q-91 0 -91 -99v-178h-16v-11h-71v87q0 74 -25.5 111t-70 48.5t-119.5 11.5h-41q-83 0 -131.5 -11.5t-76 -48.5t-27.5 -111v-48h110v-70h-110v-577h-87v577h-111v70h111v48q0 90 33.5 142.5t103.5 75.5t185 23h41q89 0 147.5 -17.5t91.5 -57.5
q14 58 55.5 82t96.5 24q45 0 74 -12z" />
    <glyph glyph-name="uni093F0930094D.04" 
d="M970 955v-74q-32 15 -72 15q-91 0 -91 -99v-178h-16v-11h-71v87q0 74 -26 111t-72.5 48.5t-125.5 11.5h-65q-86 0 -136.5 -11.5t-78.5 -48.5t-28 -111v-48h110v-70h-110v-577h-87v577h-111v70h111v48q0 90 34 142.5t106 75.5t190 23h65q92 0 153 -18t95 -58
q26 107 152 107q45 0 74 -12z" />
    <glyph glyph-name="uni093F0930094D.05" 
d="M964 955v-74q-32 15 -72 15q-90 0 -90 -99v-178h-17v-18h-71v94q0 74 -26.5 111t-74 48.5t-127.5 11.5h-61q-84 0 -133 -11.5t-77 -48.5t-28 -111v-48h110v-70h-110v-577h-87v577h-110v70h110v48q0 90 33.5 142.5t104.5 75.5t187 23h61q95 0 156 -18t96 -59
q26 108 152 108q45 0 74 -12z" />
    <glyph glyph-name="uni093F0930094D.06" 
d="M1064 955v-74q-32 15 -72 15q-90 0 -90 -99v-178h-17v-18h-70v94q0 74 -27.5 111t-76.5 48.5t-132 11.5h-146q-86 0 -137.5 -11.5t-80 -48.5t-28.5 -111v-48h110v-70h-110v-577h-87v577h-110v70h110v48q0 90 34.5 142.5t107 75.5t191.5 23h146q98 0 161 -18.5t98 -59.5
q14 60 55.5 84.5t97.5 24.5q46 0 73 -12z" />
    <glyph glyph-name="uni093F0930094D.07" 
d="M1117 955v-74q-32 15 -72 15q-90 0 -90 -99v-178h-17v-18h-70v94q0 74 -27.5 111t-76.5 48.5t-132 11.5h-199q-86 0 -137.5 -11.5t-80 -48.5t-28.5 -111v-48h110v-70h-110v-577h-87v577h-110v70h110v48q0 90 34.5 142.5t107 75.5t191.5 23h199q98 0 161 -18.5t98 -59.5
q14 60 55.5 84.5t97.5 24.5q46 0 73 -12z" />
    <glyph glyph-name="uni093F0930094D.10" 
d="M1210 955v-74q-32 15 -72 15q-91 0 -91 -99v-178h-16v-18h-71v94q0 74 -27.5 111t-76.5 48.5t-131 11.5h-292q-86 0 -137.5 -11.5t-80 -48.5t-28.5 -111v-48h110v-70h-110v-577h-87v577h-110v70h110v48q0 90 34.5 142.5t107 75.5t191.5 23h292q97 0 160 -18.5t98 -59.5
q14 60 55.5 84.5t97.5 24.5q45 0 74 -12z" />
    <glyph glyph-name="uni093F0930094D0902.01" 
d="M770 896q-91 0 -91 -99v-178h-16v-11h-71v87q0 74 -23 111t-63 48.5t-108 11.5h-16q-69 0 -109 -11.5t-62.5 -48.5t-22.5 -111v-48h110v-70h-110v-577h-87v577h-111v70h111v48q0 90 29 142.5t90.5 75.5t161.5 23h16q81 0 134.5 -17t84.5 -55q15 56 56 79.5t95 23.5
q45 0 74 -12v-74q-32 15 -72 15zM849 766l-68 -68l-69 68l69 68z" />
    <glyph glyph-name="uni093F0930094D0902.02" 
d="M841 896q-90 0 -90 -99v-178h-17v-11h-71v87q0 74 -25 111t-69 48.5t-119 11.5h-34q-80 0 -127.5 -11.5t-74 -48.5t-26.5 -111v-48h110v-70h-110v-577h-87v577h-111v70h111v48q0 90 32.5 142.5t101 75.5t181.5 23h34q89 0 147 -17.5t90 -57.5q27 106 152 106q45 0 74 -12
v-74q-32 15 -72 15zM921 766l-68 -68l-68 68l68 68z" />
    <glyph glyph-name="uni093F0930094D0902.03" 
d="M857 896q-91 0 -91 -99v-178h-16v-11h-71v87q0 74 -25.5 111t-70 48.5t-119.5 11.5h-41q-83 0 -131.5 -11.5t-76 -48.5t-27.5 -111v-48h110v-70h-110v-577h-87v577h-111v70h111v48q0 90 33.5 142.5t103.5 75.5t185 23h41q89 0 147.5 -17.5t91.5 -57.5q14 58 55.5 82
t96.5 24q45 0 74 -12v-74q-32 15 -72 15zM937 766l-68 -68l-69 68l69 68z" />
    <glyph glyph-name="uni093F0930094D0902.04" 
d="M898 896q-91 0 -91 -99v-178h-16v-11h-71v87q0 74 -26 111t-72.5 48.5t-125.5 11.5h-65q-86 0 -136.5 -11.5t-78.5 -48.5t-28 -111v-48h110v-70h-110v-577h-87v577h-111v70h111v48q0 90 34 142.5t106 75.5t190 23h65q92 0 153 -18t95 -58q26 107 152 107q45 0 74 -12v-74
q-32 15 -72 15zM978 766l-68 -68l-69 68l69 68z" />
    <glyph glyph-name="uni093F0930094D0902.05" 
d="M892 896q-90 0 -90 -99v-178h-17v-18h-71v94q0 74 -26.5 111t-74 48.5t-127.5 11.5h-61q-84 0 -133 -11.5t-77 -48.5t-28 -111v-48h110v-70h-110v-577h-87v577h-110v70h110v48q0 90 33.5 142.5t104.5 75.5t187 23h61q95 0 156 -18t96 -59q26 108 152 108q45 0 74 -12v-74
q-32 15 -72 15zM969 766l-68 -68l-69 68l69 68z" />
    <glyph glyph-name="uni093F0930094D0902.06" 
d="M992 896q-90 0 -90 -99v-178h-17v-18h-70v94q0 74 -27.5 111t-76.5 48.5t-132 11.5h-146q-86 0 -137.5 -11.5t-80 -48.5t-28.5 -111v-48h110v-70h-110v-577h-87v577h-110v70h110v48q0 90 34.5 142.5t107 75.5t191.5 23h146q98 0 161 -18.5t98 -59.5q14 60 55.5 84.5
t97.5 24.5q46 0 73 -12v-74q-32 15 -72 15zM1073 766l-69 -68l-68 68l68 68z" />
    <glyph glyph-name="uni093F0930094D0902.07" 
d="M1045 896q-90 0 -90 -99v-178h-17v-18h-70v94q0 74 -27.5 111t-76.5 48.5t-132 11.5h-199q-86 0 -137.5 -11.5t-80 -48.5t-28.5 -111v-48h110v-70h-110v-577h-87v577h-110v70h110v48q0 90 34.5 142.5t107 75.5t191.5 23h199q98 0 161 -18.5t98 -59.5q14 60 55.5 84.5
t97.5 24.5q46 0 73 -12v-74q-32 15 -72 15zM1126 766l-69 -68l-68 68l68 68z" />
    <glyph glyph-name="uni093F0930094D0902.10" 
d="M1138 896q-91 0 -91 -99v-178h-16v-18h-71v94q0 74 -27.5 111t-76.5 48.5t-131 11.5h-292q-86 0 -137.5 -11.5t-80 -48.5t-28.5 -111v-48h110v-70h-110v-577h-87v577h-110v70h110v48q0 90 34.5 142.5t107 75.5t191.5 23h292q97 0 160 -18.5t98 -59.5q14 60 55.5 84.5
t97.5 24.5q45 0 74 -12v-74q-32 15 -72 15zM1218 766l-68 -68l-69 68l69 68z" />
    <glyph glyph-name="uni0940.05" 
d="M298 577h-111v-577h-87v577h-110v70h110v48q0 74 -16 111t-45 48.5t-78 11.5h-17q-45 0 -72 -11.5t-42 -48.5t-15 -111v-107h-87v107q0 90 22.5 142.5t69.5 75.5t124 23h17q81 0 130 -23t72.5 -75.5t23.5 -142.5v-48h111v-70z" />
    <glyph glyph-name="iiMatradeva_anusvara.05" 
d="M0 0zM298 577h-111v-577h-87v577h-110v70h110v48q0 74 -16 111t-45 48.5t-78 11.5h-17q-45 0 -72 -11.5t-42 -48.5t-15 -111v-107h-87v107q0 90 22.5 142.5t69.5 75.5t124 23h17q81 0 130 -23t72.5 -75.5t23.5 -142.5v-48h111v-70zM219 752l68 69l68 -69l-68 -67z" />
    <glyph glyph-name="uni0940.10" 
d="M298 577h-111v-577h-87v577h-110v70h110v48q0 74 -26 111t-73 48.5t-128 11.5h-17q-77 0 -122 -11.5t-70 -48.5t-25 -111v-107h-87v107q0 90 31.5 142.5t97.5 75.5t175 23h17q113 0 181 -23t100.5 -75.5t32.5 -142.5v-48h111v-70z" />
    <glyph glyph-name="uni09400902.10" 
d="M187 647h111v-70h-111v-577h-87v577h-110v70h110v48q0 74 -26 111t-73 48.5t-128 11.5h-17q-77 0 -122 -11.5t-70 -48.5t-25 -111v-107h-87v107q0 90 31.5 142.5t97.5 75.5t175 23h17q113 0 181 -23t100.5 -75.5t32.5 -142.5v-48zM289 685l-68 67l68 69l68 -69z" />
    <glyph glyph-name="uni09400930094D.05" 
d="M188 780v-133h110v-70h-111v-577h-87v577h-110v70h110v48q0 74 -16 111t-45 48.5t-78 11.5h-17q-45 0 -72 -11.5t-42 -48.5t-15 -111v-107h-87v107q0 90 22.5 142.5t69.5 75.5t124 23h17q65 0 107.5 -17t66.5 -55q33 73 132 73q43 0 73 -13v-73q-30 15 -68 15
q-84 0 -84 -86z" />
    <glyph glyph-name="uni09400930094D.10" 
d="M187 797v-150h111v-70h-111v-577h-87v577h-110v70h110v48q0 74 -26 111t-73 48.5t-128 11.5h-17q-77 0 -122 -11.5t-70 -48.5t-25 -111v-107h-87v107q0 90 31.5 142.5t97.5 75.5t175 23h17q96 0 157 -16t95 -53q30 100 151 100q45 0 74 -12v-74q-32 15 -72 15
q-91 0 -91 -99z" />
    <glyph glyph-name="uni09400930094D0902.05" 
d="M187 647h111v-70h-111v-577h-87v577h-110v70h110v48q0 74 -16 111t-45 48.5t-78 11.5h-17q-45 0 -72 -11.5t-42 -48.5t-15 -111v-107h-87v107q0 90 22.5 142.5t69.5 75.5t124 23h17q61 0 101.5 -14.5t65.5 -46.5q17 50 57 71t91 21q45 0 74 -12v-74q-32 15 -72 15
q-91 0 -91 -99v-150zM287 834l69 -68l-69 -68l-68 68z" />
    <glyph glyph-name="uni09400930094D0902.10" 
d="M187 647h111v-70h-111v-577h-87v577h-110v70h110v48q0 74 -26 111t-73 48.5t-128 11.5h-17q-77 0 -122 -11.5t-70 -48.5t-25 -111v-107h-87v107q0 90 31.5 142.5t97.5 75.5t175 23h17q96 0 157 -16t95 -53q30 100 151 100q45 0 74 -12v-74q-32 15 -72 15q-91 0 -91 -99
v-150zM289 834l68 -68l-68 -68l-68 68z" />
    <glyph glyph-name="uni0932.loclMAR" horiz-adv-x="776" 
d="M586 577v-151q69 -12 105 -64.5t36 -131.5q0 -97 -58 -163.5t-190 -66.5h-26v71h26q90 0 124 44t36 115q-1 63 -26 96t-75 33q-49 0 -74 -33t-26 -96v-32h-87v32q-3 129 -100 129q-99 0 -102 -129q2 -71 36.5 -115t124.5 -44h25v-71h-25q-132 0 -190 66.5t-58 163.5
q0 91 46.5 145.5t135.5 54.5q107 0 150 -77q35 59 104 73v151h-508v70h796v-70h-200z" />
    <glyph glyph-name="uni0936.loclMAR" horiz-adv-x="732" 
d="M742 577h-110v-577h-87v577h-287l30 -47l-13 -24q73 -7 105.5 -50t32.5 -125q-1 -84 -57.5 -138.5t-159.5 -63.5l127 -144l-59 -49l-165 191h-42v71h100q83 0 125.5 34.5t43.5 98.5q0 62 -17.5 85.5t-63.5 23.5q-41 0 -60.5 -24t-20.5 -82v-38h-87v45q1 78 36.5 119.5
t110.5 46.5l-24 38l18 32h-228v70h752v-70z" />
    <glyph glyph-name="uni091D.loclNEP" horiz-adv-x="926" 
d="M565 577v-161q51 26 117 26h14q100 0 146.5 -35.5t46.5 -124.5q0 -87 -46 -123.5t-145 -36.5h-12q-15 0 -32 1.5t-28 3.5v70q28 -5 56 -5h12q55 0 81.5 19t26.5 71q0 37 -12.5 56.5t-36.5 26t-65 7.5h-13q-31 0 -57.5 -6t-52.5 -21v-345h-87v251h-215v-90h-87v389
q0 22 -6.5 31t-25.5 9q-18 0 -25.5 -9.5t-7.5 -30.5v-52h-80v52q0 53 27.5 80t88.5 27q62 0 89 -27t27 -80v-228h215v255h-103v70h561v-70h-371z" />
    <glyph glyph-name="uni0979.loclNEP" horiz-adv-x="716" 
d="M334 577v-135q32 10 60.5 15t62.5 5q224 0 224 -194q-1 -98 -54 -151.5t-171 -53.5h-13v-83h-87v239h87v-86h8q60 0 91 16.5t41 45t11 74.5q0 66 -32.5 94t-104.5 28q-35 0 -62.5 -5t-60.5 -16v-5q0 -87 -50.5 -123.5t-156.5 -36.5h-88v70h86q64 0 92.5 18.5t28.5 71.5
v212h-256v70h736v-70h-392z" />
    <glyph glyph-name="uni0928.post" horiz-adv-x="0" 
d="M-429 42.5q-33 27.5 -33 71.5q0 25 16.5 47t50.5 44l237 149l38 -59l-231 -146q-13 -8 -18.5 -14.5t-5.5 -15.5q0 -14 13 -22t36 -8q18 0 27 2l3 -72q-21 -4 -49 -4q-51 0 -84 27.5z" />
    <glyph glyph-name="uni092F.post" horiz-adv-x="803" 
d="M813 647v-70h-110v-577h-87v116q-32 -17 -67.5 -24.5t-65.5 -7.5q-85 0 -138 35.5t-88 128.5q66 18 91 38t25 49q0 32 -38.5 48t-123.5 16h-114v70h113q142 0 196.5 -32.5t54.5 -94.5q0 -45 -24 -75.5t-76 -51.5q20 -36 51.5 -48.5t75.5 -12.5q63 0 128 38v385h-626v70
h823z" />
    <glyph glyph-name="uni0930.post" horiz-adv-x="0" 
d="M-495 52l341 292l51 -58l-340 -292z" />
    <glyph glyph-name="uni0935.post" horiz-adv-x="0" 
d="M-93 159v-434h-88v81q-42 -16 -90 -16h-13q-75 0 -114.5 29t-39.5 94q0 62 38 93t100 31h12q31 0 53 -4v-67q-23 4 -46 4h-12q-61 0 -61 -57q0 -32 19 -44t58 -12h13q46 0 83 17v285h88z" />
    <glyph glyph-name="uni0915094D0915" horiz-adv-x="1383" 
d="M1022 577v-161q51 26 117 26h14q100 0 146.5 -35.5t46.5 -124.5q0 -87 -46 -123.5t-145 -36.5h-12q-15 0 -32 1.5t-28 3.5v70q28 -5 56 -5h12q55 0 81.5 19t26.5 71q0 37 -12.5 56.5t-36.5 26t-65 7.5h-13q-60 0 -110 -27v-345h-87v148q-51 -26 -117 -26h-14
q-90 0 -136 28t-55 97h-165v-247h-87v148q-50 -26 -117 -26h-13q-100 0 -147 35.5t-47 124.5q0 87 46.5 123.5t144.5 36.5h12q15 0 32 -1.5t28 -3.5v-70q-28 5 -56 5h-12q-54 0 -80.5 -19t-26.5 -71q0 -37 12.5 -56.5t36.5 -26t64 -7.5h13q31 0 57.5 6t52.5 21v358h-371v70
h594h809v-70h-371zM935 219v358h-351h-136v-259h165q9 67 55 95.5t134 28.5h12q15 0 32 -1.5t28 -3.5v-70q-28 5 -56 5h-12q-55 0 -81.5 -19t-26.5 -71q0 -37 12.5 -56.5t36.5 -26t65 -7.5h13q60 0 110 27z" />
    <glyph glyph-name="uni0915094D0924" horiz-adv-x="839" 
d="M478 577v-161q51 26 117 26h14q100 0 146.5 -35.5t46.5 -124.5q0 -87 -46 -123.5t-144 -36.5h-12q-15 0 -32 1.5t-28 3.5v70q28 -5 56 -5h12q54 0 80.5 19t26.5 71q0 37 -12.5 56.5t-36.5 26t-64 7.5h-14q-31 0 -57.5 -6t-52.5 -21v-345h-87v392h-102q-36 0 -58 -13
t-33.5 -48.5t-11.5 -102.5q1 -89 28 -123t83 -34h15v-71h-15q-96 0 -147 53t-51 173q0 111 41 166h-111v71h362v114h-401v70h859v-70h-371z" />
    <glyph glyph-name="uni0915094D0924094D" horiz-adv-x="600" 
d="M669 247h-191v-247h-87v392h-102q-36 0 -58 -13t-33.5 -48.5t-11.5 -102.5q1 -89 28 -123t83 -34h15v-71h-15q-96 0 -147 53t-51 173q0 111 41 166h-111v71h362v114h-401v70h620v-70h-132v-259h191v-71z" />
    <glyph glyph-name="uni0915094D0930" horiz-adv-x="796" 
d="M448 577v-161q51 26 117 26h14q100 0 146.5 -35.5t46.5 -124.5q0 -87 -46 -123.5t-144 -36.5h-12q-15 0 -32 1.5t-28 3.5v70q28 -5 56 -5h12q54 0 80.5 19t26.5 71q0 37 -12.5 56.5t-36.5 26t-64 7.5h-14q-31 0 -57.5 -6t-52.5 -21v-345h-87v148l-264 -180l-43 63l147 92
q-85 5 -124.5 41t-39.5 118q0 87 46.5 123.5t144.5 36.5h12q15 0 32 -1.5t28 -3.5v-70q-28 5 -56 5h-12q-54 0 -80.5 -19t-26.5 -71q0 -37 12.5 -56.5t36.5 -26t64 -7.5h13q31 0 57.5 6t52.5 21v358h-371v70h829v-70h-371z" />
    <glyph glyph-name="uni0915094D0932" horiz-adv-x="1359" 
d="M1369 577h-110l-2 -577h-87l1 356q-23 13 -55 13q-51 0 -77 -34t-27 -98v-32h-17v-7h-71v32q-1 63 -26 96t-73 33q-50 0 -75.5 -33t-26.5 -96q2 -71 36.5 -115t124.5 -44h25v-71h-25q-133 0 -190.5 66.5t-57.5 163.5v17h-188v-247h-87v148q-50 -26 -117 -26h-13
q-100 0 -147 35.5t-47 124.5q0 87 46.5 123.5t144.5 36.5h12q15 0 32 -1.5t28 -3.5v-70q-28 5 -56 5h-12q-54 0 -80.5 -19t-26.5 -71q0 -37 12.5 -56.5t36.5 -26t64 -7.5h13q31 0 57.5 6t52.5 21v358h-371v70h1379v-70zM1171 432l1 145h-588h-136v-259h194v-26
q15 64 59.5 101t116.5 37q51 0 88 -18.5t59 -52.5q42 81 147 81q32 0 59 -8z" />
    <glyph glyph-name="uni0915094D0937" horiz-adv-x="768" 
d="M318 187h87v-242h-87v87q-28 -5 -54 -5h-8q-105 0 -156 36.5t-51 120.5q0 46 20 78.5t49.5 54t76.5 48.5q42 24 66 41t40.5 41.5t16.5 57.5q0 85 -74 85t-74 -88v-47h-88v50q1 74 43 113.5t119 39.5q79 0 120 -38.5t41 -114.5q0 -47 -21 -81.5t-52 -57.5t-79 -51
q-40 -24 -63 -40.5t-38.5 -38.5t-15.5 -51q0 -49 31.5 -68t97.5 -19h7q26 0 46 4v85zM778 647v-70h-110v-577h-87v268h-203v70h203v239h-119v70h316z" />
    <glyph glyph-name="uni0915094D0937094D" horiz-adv-x="596" 
d="M384 423.5q-21 -34.5 -52 -57.5t-79 -51q-40 -24 -63 -40.5t-38.5 -38.5t-15.5 -51q0 -49 31.5 -68t97.5 -19h7q26 0 46 4v85h87v-242h-87v87q-28 -5 -54 -5h-8q-105 0 -156 36.5t-51 120.5q0 46 20 78.5t49.5 54t76.5 48.5q42 24 66 41t40.5 41.5t16.5 57.5q0 85 -74 85
t-74 -88v-47h-88v50q1 74 43 113.5t119 39.5q79 0 120 -38.5t41 -114.5q0 -47 -21 -81.5zM664 324v-70h-244v70h244z" />
    <glyph glyph-name="uni0915094D0937094D0930" horiz-adv-x="855" 
d="M318 187h87v-242h-87v87q-28 -5 -54 -5h-8q-105 0 -156 36.5t-51 120.5q0 46 20 78.5t49.5 54t76.5 48.5q42 24 66 41t40.5 41.5t16.5 57.5q0 85 -74 85t-74 -88v-47h-88v50q1 74 43 113.5t119 39.5q79 0 120 -38.5t41 -114.5q0 -47 -21 -81.5t-52 -57.5t-79 -51
q-40 -24 -63 -40.5t-38.5 -38.5t-15.5 -51q0 -49 31.5 -68t97.5 -19h7q26 0 46 4v85zM865 647v-70h-110v-577h-87v199l-169 -215l-61 48l213 257h-273v71h290v217h-203v70h400z" />
    <glyph glyph-name="uni0915094D0937094D0072" horiz-adv-x="596" 
d="M318 187h87v-242h-87v87q-28 -5 -54 -5h-8q-105 0 -156 36.5t-51 120.5q0 46 20 78.5t49.5 54t76.5 48.5q42 24 66 41t40.5 41.5t16.5 57.5q0 85 -74 85t-74 -88v-47h-88v50q1 74 43 113.5t119 39.5q79 0 120 -38.5t41 -114.5q0 -47 -21 -81.5t-52 -57.5t-79 -51
q-40 -24 -63 -40.5t-38.5 -38.5t-15.5 -51q0 -49 31.5 -68t97.5 -19h7q26 0 46 4v85zM676 360v-142l-177 -234l-62 46l202 259h-261v71h298z" />
    <glyph glyph-name="uni0915094D0072" horiz-adv-x="567" 
d="M642 247h-194v-247h-87v148l-264 -180l-43 62l147 93q-84 5 -124 40.5t-40 118.5q0 87 46.5 123.5t144.5 36.5h12q15 0 32 -1.5t28 -3.5v-70q-28 5 -56 5h-12q-54 0 -80.5 -19t-26.5 -71q0 -37 12.5 -56.5t36.5 -26t64 -7.5h13q31 0 57.5 6t52.5 21v358h-371v70h594v-70
h-136v-259h194v-71z" />
    <glyph glyph-name="uni0916094D0930" horiz-adv-x="860" 
d="M870 577h-110v-577h-87v170l-202 -192l-54 54l145 130q-161 0 -161 140q0 70 40.5 105t103.5 35h12q31 0 55 -4v-70q-34 4 -45 4h-12q-67 0 -67 -70q0 -42 20.5 -56t65.5 -14h16q44 0 83 16v329h-314v-182q0 -84 -47 -117t-147 -33h-6v-50q0 -70 31.5 -97t108.5 -27h75
v-71h-75q-110 0 -169 41.5t-59 153.5v234h88v-114h6q56 0 81 15.5t25 64.5v182h-281v70h880v-70z" />
    <glyph glyph-name="uni0916094D0072" horiz-adv-x="627" 
d="M190.5 98q31.5 -27 108.5 -27h75v-71h-75q-110 0 -169 41.5t-59 153.5v234h88v-114h6q56 0 81 15.5t25 64.5v182h-281v70h647v-70h-278v-182q0 -84 -47 -117t-147 -33h-6v-50q0 -70 31.5 -97zM699 190l-3 -1l3 -4l-228 -207l-54 54l154 130h-9q-161 0 -161 140
q0 70 40.5 105t103.5 35h12q31 0 55 -4v-70q-34 4 -45 4h-12q-67 0 -67 -70q0 -42 20.5 -56t65.5 -14h16q58 0 109 29v-71z" />
    <glyph glyph-name="uni0917094D0928" horiz-adv-x="643" 
d="M653 647v-70h-110v-577h-87v252l-162 -103q-13 -8 -19 -15t-6 -15q0 -14 13 -22t36 -8q15 0 23 2l3 -72q-17 -4 -44 -4q-51 0 -84 27.5t-33 71.5q0 26 16.5 47.5t49.5 43.5l207 130v242h-196l1 -217q0 -57 -24.5 -87t-72.5 -30q-44 0 -75 24t-53 75l67 35q13 -31 25 -47
t26 -16q12 0 16 10.5t4 35.5l-1 217h-183v70h663z" />
    <glyph glyph-name="uni0917094D0930" horiz-adv-x="643" 
d="M653 647v-70h-110v-577h-87v234l-279 -240l-52 58l331 283v242h-196l1 -217q0 -57 -24.5 -87t-72.5 -30q-44 0 -75 24t-53 75l67 35q13 -31 25 -47t26 -16q12 0 16 10.5t4 35.5l-1 217h-183v70h663z" />
    <glyph glyph-name="uni0918094D0930" horiz-adv-x="591" 
d="M614 647v-70h-110v-577h-87v142l-260 -174l-45 61l146 90q-84 4 -124.5 39t-40.5 113q0 86 54 120q-46 14 -68 43t-22 78q0 37 12 65h-79v70h624zM192.5 220.5q12.5 -18.5 34.5 -24.5t60 -7h18q65 0 112 29v359h-257q-16 -20 -16 -59q1 -52 34.5 -68.5t108.5 -16.5h28
v-14h8v-57h-36q-55 0 -81 -17.5t-26 -68.5q0 -37 12.5 -55.5z" />
    <glyph glyph-name="uni0918094D0072" horiz-adv-x="372" 
d="M386.5 203q38.5 14 73.5 50v-86l-304 -218l-48 58l166 112q-93 2 -137 36t-44 116q0 86 54 120q-46 14 -68 43t-22 78q0 37 12 65h-79v70h392v-70h-222q-16 -20 -16 -59q1 -52 34.5 -68.5t108.5 -16.5h28v-14h8v-57h-36q-55 0 -81 -17.5t-26 -68.5q0 -37 12.5 -55.5
t34.5 -24.5t60 -7h18q43 0 81.5 14z" />
    <glyph glyph-name="uni0919094D0915" horiz-adv-x="671" 
d="M681 647v-70h-240v-121h-5v-35h-217q-36 0 -53 -8.5t-17 -30.5q0 -14 6.5 -25t16.5 -17h154q180 0 180 -124q0 -54 -37 -86t-106 -40v-63q45 17 90 17h14q74 0 113.5 -29.5t39.5 -94.5q0 -62 -37.5 -93t-99.5 -31h-12q-25 0 -53 5v66q24 -3 46 -3h12q60 0 60 56
q0 33 -18.5 44.5t-57.5 11.5h-14q-47 0 -83 -16v-235h-87v88q-41 -17 -90 -17h-14q-74 0 -113.5 29.5t-39.5 94.5q0 62 37.5 93t99.5 31h12q26 0 53 -5v-66q-24 3 -46 3h-12q-60 0 -60 -56q0 -32 18.5 -44t57.5 -12h14q47 0 83 16v207q-78 1 -137 17.5t-110 48.5l33 67
q53 -34 107.5 -48.5t121.5 -14.5h17q111 0 111 55q0 31 -23 44t-70 13h-198q-23 17 -44.5 51.5t-21.5 67.5q0 55 39 79.5t121 24.5h132v85h-364v70h691zM510 366l68 68l68 -68l-68 -67z" />
    <glyph glyph-name="uni0919094D0915094D" horiz-adv-x="671" 
d="M681 577h-240v-121h-5v-35h-217q-36 0 -53 -8.5t-17 -30.5q0 -14 6.5 -25t16.5 -17h154q180 0 180 -124q0 -54 -37 -86t-106 -40v-128h287v-71h-287v-166h-87v88q-41 -17 -90 -17h-14q-74 0 -113.5 29.5t-39.5 94.5q0 62 37.5 93t99.5 31h12q26 0 53 -5v-66q-24 3 -46 3
h-12q-60 0 -60 -56q0 -32 18.5 -44t57.5 -12h14q47 0 83 16v207q-78 1 -137 17.5t-110 48.5l33 67q53 -34 107.5 -48.5t121.5 -14.5h17q111 0 111 55q0 31 -23 44t-70 13h-198q-23 17 -44.5 51.5t-21.5 67.5q0 55 39 79.5t121 24.5h132v85h-364v70h691v-70zM510 366l68 68
l68 -68l-68 -67z" />
    <glyph glyph-name="uni0919094D0915094D0937" horiz-adv-x="701" 
d="M711 647v-70h-240v-121h-5v-35h-217q-36 0 -53 -8.5t-17 -30.5q0 -14 6.5 -25t16.5 -17h154q180 0 180 -124q0 -41 -19 -67v-424h-81v161h-146v71h146v141q-42 -12 -99 -12h-12q-16 0 -24 1q8 -21 8 -42q0 -45 -30 -73t-85 -56q-40 -21 -59.5 -36.5t-19.5 -37.5
q0 -27 20.5 -37t61.5 -10h7q20 0 29 1v58h80v-175h-80v50q-22 -2 -36 -2h-7q-72 0 -113.5 29t-41.5 83q0 32 15.5 55t37.5 38t58 34q42 21 62.5 38.5t20.5 43.5q0 48 -47 48q-21 0 -34.5 -12.5t-13.5 -37.5v-33h-80v35q0 27 10.5 49t30.5 36q-17 8 -36 20l33 67
q53 -34 107.5 -48.5t121.5 -14.5h17q111 0 111 55q0 31 -23 44t-70 13h-198q-23 17 -44.5 51.5t-21.5 67.5q0 55 39 79.5t121 24.5h132v85h-394v70h721zM608 434l68 -68l-68 -67l-68 67z" />
    <glyph glyph-name="uni0919094D0916" horiz-adv-x="727" 
d="M737 647v-70h-240v-121h-5v-35h-217q-36 0 -53 -8.5t-17 -30.5q0 -14 6.5 -25t16.5 -17h154q180 0 180 -124q0 -25 -8 -47v-444h-81v95q-27 -9 -58 -9h-9q-122 0 -122 112q0 56 31 83.5t84 27.5h7q19 0 31 -2v-67q-12 2 -25 2h-5q-22 0 -32.5 -10t-10.5 -34
q0 -26 12 -35.5t40 -9.5h7q26 0 50 9v214q-45 -15 -110 -15h-12q-52 0 -96 6v-106q0 -53 -31.5 -74.5t-99.5 -21.5h-18v-15q0 -49 19 -66t69 -17h126v-67h-123q-84 0 -128 31.5t-44 118.5v161h81v-79h21q25 0 36 8t11 34v112q-46 16 -89 42l33 67q53 -34 107.5 -48.5
t121.5 -14.5h17q111 0 111 55q0 31 -23 44t-70 13h-198q-23 17 -44.5 51.5t-21.5 67.5q0 55 39 79.5t121 24.5h132v85h-420v70h747zM634 434l68 -68l-68 -67l-68 67z" />
    <glyph glyph-name="uni0919094D0917" horiz-adv-x="671" 
d="M681 647v-70h-240v-121h-4v-35h-218q-36 0 -53 -8.5t-17 -30.5q0 -14 7 -25t16 -17h154q181 0 181 -124q0 -59 -45 -92v-399h-88v366q-33 -5 -66 -5h-13q-33 0 -63 3l1 -131q0 -116 -97 -116q-45 0 -76 24t-52 75l67 35q26 -63 50 -63q12 0 16 10.5t4 35.5v144
q-61 16 -116 50l33 67q53 -34 107.5 -48.5t121.5 -14.5h17q111 0 111 53q0 32 -23 45.5t-70 13.5h-198q-23 17 -44.5 51.5t-21.5 67.5q0 55 39.5 79.5t121.5 24.5h131v85h-364v70h691zM578 434l69 -68l-69 -67l-68 67z" />
    <glyph glyph-name="uni0919094D0918" horiz-adv-x="687" 
d="M697 647v-70h-239v-121h-5v-35h-217q-36 0 -53 -8.5t-17 -30.5q0 -14 6.5 -25t15.5 -17h154q181 0 181 -124q0 -48 -31 -81v-410h-88v61q-47 -19 -104 -19h-18q-79 0 -121 26t-42 93q0 55 36 82q-67 25 -67 93q0 34 19 60q-27 11 -62 32l34 67q53 -34 107 -48.5
t121 -14.5h17q112 0 112 55q0 31 -23 44t-71 13h-198q-23 17 -44.5 51.5t-21.5 67.5q0 55 39.5 79.5t121.5 24.5h131v85h-380v70h707zM595 434l68 -68l-68 -67l-69 67zM404 94q-37 -8 -80 -8h-12q-70 0 -126 12q-11 -16 -11 -36q1 -33 26 -44.5t72 -11.5h42v-10h7v-54h-49
q-67 0 -67 -51q0 -31 21 -42.5t61 -11.5h18q54 0 98 25v232z" />
    <glyph glyph-name="uni0919094D092E" horiz-adv-x="859" 
d="M869 647v-70h-110v-852h-87v238h-219v-97h-88v226q-30 -6 -68 -6h-12q-82 0 -144 16.5t-116 50.5l34 67q52 -34 104.5 -48.5t117.5 -14.5h17q47 0 72.5 13.5t25.5 40.5q0 32 -23 45t-71 13h-178q-23 17 -44.5 51.5t-21.5 67.5q0 55 39.5 79.5t121.5 24.5h111v85h-340v70
h879zM672 34v543h-254v-121h-5v-35h-201q-34 0 -50 -8.5t-16 -30.5q0 -14 6.5 -25t15.5 -17h134q181 0 181 -124q0 -49 -30 -82v-100h219zM620 366l-69 -67l-68 67l68 68z" />
    <glyph glyph-name="uni0919094D0930" horiz-adv-x="604" 
d="M614 647v-70h-210v-147h-4v-34h-181q-37 0 -55 -12t-18 -43q0 -19 7 -34t18 -22h118q88 0 134.5 -35t46.5 -108q0 -61 -31.5 -98t-91.5 -48l135 -103l-53 -61l-169 130l-169 -130l-53 61l140 107q-80 15 -153 61l34 67q51 -33 98.5 -49t102.5 -17h14h14q44 0 69 18t25 54
q0 43 -23 61.5t-70 18.5h-163q-24 18 -46 54.5t-22 77.5q0 65 39 92.5t122 27.5h98v111h-327v70h624zM521 394l68 -68l-68 -68l-69 68z" />
    <glyph glyph-name="uni091A094D091A" horiz-adv-x="947" 
d="M957 647v-70h-110v-577h-88v133q-46 -21 -109 -21h-22q-106 0 -153 39q-72 -39 -156 -39h-19q-98 0 -149 37t-51 123q0 71 38 111h-107v70h648v-70h-114q-24 -15 -37 -40t-13 -65q0 -57 30.5 -76.5t92.5 -19.5h18q56 0 103 24v371h-769v70h967zM329 182q56 0 107 29
q-9 27 -9 61q0 70 38 111h-227q-25 -15 -38 -39.5t-13 -65.5q0 -57 30.5 -76.5t93.5 -19.5h18z" />
    <glyph glyph-name="uni091A094D0930" horiz-adv-x="606" 
d="M629 647v-70h-110v-577h-87v133l-2 -1l-245 -164l-45 61l136 83q-87 5 -131.5 42.5t-44.5 117.5q0 71 38 111h-107v70h321v-70h-114q-25 -15 -38 -39.5t-13 -65.5q0 -57 30.5 -76.5t93.5 -19.5h18q56 0 103 24v371h-442v70h639z" />
    <glyph glyph-name="uni091A094D0072" horiz-adv-x="394" 
d="M404 577h-414v70h414v-70zM482 160q-15 -12 -38 -22l-253 -170l-45 61l134 83q-89 3 -134.5 40.5t-45.5 119.5q0 71 38 111h-107v70h321v-70h-114q-25 -15 -38 -39.5t-13 -65.5q0 -57 30.5 -76.5t93.5 -19.5h18q42 0 79.5 14t73.5 46v-82z" />
    <glyph glyph-name="uni091B094D0928" horiz-adv-x="728" 
d="M615 577v-66q40 -23 40 -92v-98q0 -93 -47 -151v-445h-87v207h-199q-22 0 -30.5 -6t-8.5 -22q0 -27 51 -52l-35 -62q-52 21 -76.5 50.5t-24.5 71.5q0 91 117 91h206v104q-65 -27 -157 -27h-14q-114 0 -187 40t-73 127q0 92 69 124q-48 13 -69.5 42.5t-21.5 75.5
q0 54 38 88h-116v70h748v-70h-123zM527 577h-292q-37 -12 -58.5 -31.5t-21.5 -53.5q1 -44 35 -61.5t109 -17.5h30v-71h-21q-67 0 -98.5 -20t-31.5 -71q0 -100 173 -100h14q88 0 145 38t57 132v101q0 18 -6.5 25.5t-24.5 7.5q-17 0 -24 -7.5t-7 -25.5v-69h-80v72
q0 48 23.5 72.5t78.5 27.5v52z" />
    <glyph glyph-name="uni091B094D0930" horiz-adv-x="728" 
d="M615 577v-72q40 -23 40 -87v-127q0 -126 -60 -190t-160 -79l141 -108l-53 -61l-169 131l-169 -131l-53 61l142 108q-84 12 -134 54.5t-50 121.5q0 109 72 144q-50 15 -72 46t-22 82q0 35 10.5 61t32.5 46h-121v70h748v-70h-123zM527 577h-289q-39 -15 -61 -38.5
t-22 -64.5q1 -51 34.5 -70.5t109.5 -19.5h30v-70h-21q-67 0 -98.5 -24.5t-31.5 -87.5q0 -64 49 -89.5t124 -25.5h14q202 2 202 204v124q0 19 -6.5 26.5t-24.5 7.5q-17 0 -24 -8t-7 -26v-102h-80v105q0 48 23.5 72.5t78.5 28.5v58z" />
    <glyph glyph-name="uni091B094D0935" horiz-adv-x="728" 
d="M615 577v-66q40 -23 40 -92v-98q0 -141 -106 -201v-395h-88v81q-42 -16 -90 -16h-13q-75 0 -114.5 29t-39.5 94q0 62 38 93t100 31h12q31 0 53 -4v-67q-23 4 -46 4h-12q-61 0 -61 -57q0 -32 19 -44t58 -12h13q46 0 83 17v215q-45 -9 -96 -9h-15q-114 0 -187 40t-73 127
q0 92 69 124q-48 13 -69.5 42.5t-21.5 75.5q0 54 38 88h-116v70h748v-70h-123zM527 577h-292q-37 -12 -58.5 -31.5t-21.5 -53.5q1 -44 35 -61.5t109 -17.5h30v-71h-21q-67 0 -98.5 -20t-31.5 -71q0 -100 173 -100h15q88 0 144.5 38t56.5 132v101q0 18 -6.5 25.5t-24.5 7.5
q-17 0 -24 -7.5t-7 -25.5v-69h-80v72q0 48 23.5 72.5t78.5 27.5v52z" />
    <glyph glyph-name="uni091B094D0072" horiz-adv-x="728" 
d="M615 577v-72q40 -23 40 -87v-127q0 -126 -60 -190t-160 -79l141 -108l-53 -61l-169 131l-169 -131l-53 61l142 108q-84 12 -134 54.5t-50 121.5q0 109 72 144q-50 15 -72 46t-22 82q0 35 10.5 61t32.5 46h-121v70h748v-70h-123zM527 577h-289q-39 -15 -61 -38.5
t-22 -64.5q1 -51 34.5 -70.5t109.5 -19.5h30v-70h-21q-67 0 -98.5 -24.5t-31.5 -87.5q0 -64 49 -89.5t124 -25.5h14q202 2 202 204v124q0 19 -6.5 26.5t-24.5 7.5q-17 0 -24 -8t-7 -26v-102h-80v105q0 48 23.5 72.5t78.5 28.5v58zM352 -103l202 -156l-52 -58l-201 156z" />
    <glyph glyph-name="uni091C094D091E094D" horiz-adv-x="531" 
d="M541 577h-551v70h551v-70zM168 412.5q-18 -11.5 -18 -42.5q0 -19 7 -34t18 -23h109q82 0 126 -35t44 -108q0 -74 -44 -112t-125 -38h-12q-69 0 -126 22v-90h-81v235h81v-72q55 -25 122 -25h13q40 0 62.5 18.5t22.5 56.5q0 41 -21 59.5t-62 18.5h-154q-24 18 -45.5 54
t-21.5 78q0 65 39 92.5t122 27.5h386v-71h-386q-38 0 -56 -11.5z" />
    <glyph glyph-name="uni091C094D091C" horiz-adv-x="1107" 
d="M1117 647v-70h-110v-577h-87v362h-99v-70q0 -97 -37.5 -141.5t-132.5 -44.5q-89 0 -127.5 45t-38.5 141v70h-98v-70q0 -97 -37 -141.5t-132 -44.5q-89 0 -128 45.5t-39 140.5v140h84v-145q0 -56 18.5 -83t64.5 -27q49 0 65.5 26t16.5 84v145h269v-145q0 -56 18 -83
t64 -27q49 0 65.5 26t16.5 84v145h187v145h-930v70h1127z" />
    <glyph glyph-name="uni091C094D091C094D" horiz-adv-x="901" 
d="M-10 647h470h451v-70h-921v70zM979 335h-141v-70q0 -96 -37.5 -140.5t-132.5 -44.5q-89 0 -127.5 45t-38.5 140v70h-115v-70q0 -96 -37 -140.5t-132 -44.5q-89 0 -128 45t-39 140v141h84v-146q0 -56 18.5 -83t64.5 -27q49 0 65.5 26t16.5 84v146h202h84v-146
q0 -56 18 -83t64 -27q49 0 65.5 26t16.5 84v146h229v-71z" />
    <glyph glyph-name="uni091C094D091E" horiz-adv-x="676" 
d="M686 647v-70h-110v-577h-87v398h-141q38 -41 39 -119q-1 -95 -59 -139t-173 -44h-1v-111h-81v236h81v-54h1q75 0 109.5 25.5t35.5 90.5q-1 68 -35.5 91.5t-110.5 23.5h-81v71h416v108h-499v70h696z" />
    <glyph glyph-name="uni091C094D091E094D.1" horiz-adv-x="465" 
d="M475 577h-485v70h485v-70zM534 398h-184q38 -41 39 -119q-1 -95 -59 -139t-173 -44h-1v-111h-81v236h81v-54h1q75 0 109.5 25.5t35.5 90.5q-1 68 -35.5 91.5t-110.5 23.5h-81v71h459v-71z" />
    <glyph glyph-name="uni091C094D091E094D0930" horiz-adv-x="706" 
d="M716 647v-70h-110v-577h-87v133l-189 -152l-49 57l238 190v170h-169q38 -41 39 -119q-1 -95 -59 -139t-173 -44h-1v-111h-81v236h81v-54h1q75 0 109.5 25.5t35.5 90.5q-1 68 -35.5 91.5t-110.5 23.5h-81v71h444v108h-529v70h726z" />
    <glyph glyph-name="uni091C094D0930" horiz-adv-x="707" 
d="M717 647v-70h-110v-577h-87v135l-191 -154l-49 57l240 191v153h-133v-70q0 -97 -37 -141.5t-132 -44.5q-89 0 -128 45.5t-39 140.5v140h84v-145q0 -56 18.5 -83t64.5 -27q49 0 65.5 26t16.5 84v145h220v125h-530v70h727z" />
    </font>
</defs>
</svg>
